<svg width="100" height="222" viewBox="0 0 100 222" fill="none" xmlns="http://www.w3.org/2000/svg">
<path d="M7.20903 82.5639C5.35633 83.3713 3.74156 84.0771 2.12946 84.7829C0.840859 85.347 0.0602085 84.8845 0.0067393 83.4595C-0.0948522 80.7353 0.950473 78.5404 3.18548 76.9523C4.23348 76.2091 5.35633 75.5621 6.3562 74.7601C6.75989 74.4339 7.1422 73.8137 7.15824 73.3138C7.3133 68.6031 7.12616 63.9192 6.23323 59.2594C5.85093 57.2703 5.8536 55.1904 5.84558 53.1506C5.82151 46.1996 5.79478 39.2486 5.92577 32.3002C5.99261 28.7205 6.32412 25.1407 6.67434 21.5717C6.88287 19.4302 8.31584 17.8529 9.73277 16.3852C14.1039 11.8563 19.3759 8.60272 24.9929 5.86778C31.091 2.89757 37.5314 1.18657 44.2845 0.550284C51.3371 -0.115407 58.2507 0.440658 65.0787 2.35753C72.9387 4.56313 80.0581 8.18834 86.3648 13.3454C88.1373 14.7971 89.7841 16.4654 91.2144 18.2512C92.086 19.3393 92.8318 20.8097 92.9441 22.1652C93.3184 26.6245 93.4387 31.1079 93.5403 35.5859C93.6847 41.906 93.8264 48.226 93.7649 54.5461C93.7408 57.0832 93.0644 59.6069 92.8719 62.1521C92.5779 65.9965 92.4255 69.849 92.2865 73.7041C92.2731 74.057 92.7383 74.5168 93.0912 74.7788C94.4386 75.7814 95.8475 76.701 97.2056 77.6929C98.8338 78.8852 100.042 82.3794 99.3337 84.1894C99.184 84.5717 98.2322 84.97 97.7991 84.8471C96.5346 84.4861 95.3502 83.8579 94.1285 83.3472C93.6125 83.1334 93.0858 82.9489 92.348 82.6709C92.5725 87.1141 92.8024 91.3569 92.9922 95.5997C93.0457 96.8001 92.9789 98.0031 92.9842 99.2062C93.0644 112.779 93.166 126.352 93.2195 139.926C93.2329 143.209 92.9227 146.497 93.0618 149.769C93.2436 154.084 93.8103 158.383 94.0376 162.698C94.1953 165.674 94.075 168.665 94.0456 171.649C93.9814 177.923 93.96 184.201 93.7836 190.475C93.7168 192.849 93.0083 195.124 91.9683 197.306C89.8616 201.72 87.9581 206.235 85.7739 210.609C85.2285 211.7 84.0549 212.62 82.9641 213.269C78.3551 216.023 73.4092 218.031 68.1826 219.255C64.3702 220.148 60.5418 221.118 56.6653 221.557C53.1738 221.95 49.6021 221.699 46.0677 221.669C39.1863 221.616 32.6256 219.929 26.1879 217.662C22.4691 216.352 18.7744 214.959 15.5823 212.571C14.799 211.986 14.0264 211.2 13.6227 210.331C11.1978 205.142 8.84253 199.921 6.56742 194.665C6.10491 193.598 5.90974 192.339 5.8937 191.165C5.75735 181.196 5.31356 171.208 5.72795 161.257C6.04341 153.667 6.45779 146.088 6.39096 138.49C6.3161 129.914 6.16639 121.34 6.20649 112.763C6.23857 106.318 6.49523 99.8746 6.70109 93.4315C6.81337 89.8892 7.02991 86.3522 7.20903 82.5612L7.20903 82.5639ZM75.5881 211.724C75.4731 211.777 75.3581 211.831 75.2432 211.887L75.3207 212.039C75.4464 211.975 75.5693 211.911 75.695 211.85C79.371 210.657 82.8919 209.216 85.5387 205.909C84.8061 205.551 84.3169 205.31 84.0736 205.193C82.654 206.428 81.475 207.567 80.1784 208.553C78.7 209.681 77.1199 210.676 75.5854 211.729L75.5881 211.724ZM23.8486 211.692C21.0495 209.558 17.7077 208.112 15.6064 205.038C15.0396 205.345 14.5584 205.607 13.9274 205.947C16.5982 209.19 20.0817 210.641 23.7203 211.839L24.1935 212.176C24.2309 212.114 24.2684 212.05 24.3058 211.989L23.846 211.692L23.8486 211.692ZM13.5612 207.548C14.2402 210.2 15.994 211.906 18.3707 213.101C29.4255 218.654 41.0604 221.38 53.4866 220.683C58.8495 220.381 64.0521 219.391 69.1718 217.894C73.9171 216.507 78.5208 214.737 82.7449 212.106C84.3463 211.109 85.274 209.633 85.7926 207.698C84.1137 208.791 82.6995 210 81.0686 210.727C73.3878 214.146 65.5091 216.943 57.0877 217.985C51.4895 218.68 45.9047 218.707 40.3733 217.67C36.9005 217.02 33.4758 216.052 30.0831 215.05C24.2577 213.325 18.3493 211.724 13.7109 207.422C13.6441 207.31 13.5745 207.198 13.5077 207.086C13.4569 207.115 13.4088 207.144 13.358 207.174C13.4248 207.299 13.4943 207.422 13.5612 207.548ZM83.4935 57.1581C83.4159 56.3186 83.4266 55.4577 83.2448 54.6423C81.9749 49.0147 80.7745 43.3684 79.3416 37.7835C77.2964 29.8059 74.7219 22.0101 70.848 14.6848C68.8616 10.926 66.1481 8.22043 61.9293 7.0441C53.7967 4.77701 45.7041 4.76632 37.5875 7.04411C34.2323 7.98516 31.4493 9.73627 29.7783 12.8535C28.1235 15.944 26.4526 19.056 25.1559 22.3042C21.258 32.0703 18.7637 42.2535 16.5848 52.5143C16.2614 54.0381 16.133 55.6048 15.8871 57.3586C16.3683 57.1848 16.5394 57.15 16.6838 57.0698C24.1186 52.9019 32 50.1135 40.4722 48.873C48.6877 47.6673 56.7963 48.0763 64.8274 49.9531C71.3479 51.477 77.5316 53.9472 83.3384 57.3185C83.3972 57.3612 83.456 57.404 83.5175 57.4468C83.5095 57.3505 83.5042 57.257 83.4961 57.1607L83.4935 57.1581ZM22.7873 138.327C22.9129 140.786 23.0386 143.091 23.1482 145.398C23.5198 153.215 23.7978 161.035 24.2817 168.844C24.7095 175.761 25.319 182.666 25.9339 189.572C26.22 192.799 27.3295 195.715 29.7837 197.988C32.0829 200.116 34.9248 201.15 37.8709 201.888C43.135 203.209 48.4846 203.377 53.8876 203.038C57.462 202.813 60.9402 202.255 64.3275 201.089C69.4979 199.308 72.8531 195.862 73.4359 190.352C74.246 182.712 74.8154 175.041 75.3528 167.377C75.6977 162.455 75.7832 157.514 76.0105 152.582C76.1201 150.186 76.3473 147.794 76.4195 145.396C76.4917 143.062 76.4355 140.725 76.4355 138.324L22.79 138.324L22.7873 138.327ZM79.0154 101.479C79.4993 97.4444 79.9565 93.4315 80.4618 89.424C81.2023 83.5638 82.0444 77.7143 82.7128 71.846C83.1593 67.9214 83.3758 63.97 83.7073 60.032C83.7742 59.2353 83.5095 58.6873 82.7796 58.3023C81.2451 57.4976 79.7774 56.5646 78.2161 55.8213C65.4289 49.7526 52.0643 47.7635 38.0928 50.3033C30.674 51.6507 23.7203 54.2734 17.165 57.9895C16.2079 58.5322 15.5903 59.1204 15.7293 60.3715C16.4378 66.6809 17.034 73.001 17.7612 79.3103C18.5525 86.1945 19.4588 93.0653 20.2769 99.9441C20.456 101.455 20.5442 101.591 21.9692 101.265C29.5805 99.5136 37.3255 98.8159 45.1026 98.5592C49.7223 98.4068 54.3608 98.5351 58.9779 98.7891C62.8303 99.0003 66.6721 99.5083 70.5031 100.016C73.3504 100.393 76.1709 100.981 79.0127 101.479L79.0154 101.479ZM76.7189 137.405C76.9889 132.05 77.1948 126.85 77.5236 121.661C77.8979 115.715 78.3551 109.777 78.8363 103.839C78.9218 102.797 78.6652 102.369 77.6038 102.123C70.9496 100.588 64.1831 99.8558 57.3925 99.5377C47.2815 99.0645 37.1892 99.4441 27.1798 101.102C24.9635 101.468 22.7739 101.984 20.8437 102.374C21.5227 114.215 22.1857 125.786 22.8541 137.405L76.7189 137.405V137.405ZM21.5441 183.891L21.5441 185.334C21.5441 188.272 21.5521 191.211 21.5441 194.149C21.5307 197.726 20.9025 201.027 17.8628 203.455C16.4031 204.621 16.4351 204.805 17.8735 206.064C21.9585 209.647 26.6665 212.253 31.599 214.44C34.9542 215.927 38.5607 216.477 42.1912 216.943C49.2812 217.852 56.3231 217.547 63.2527 215.932C69.7786 214.411 75.3421 210.847 80.6596 206.909C81.5151 206.275 82.2049 205.42 82.9935 204.642C80.5767 202.581 78.4085 200.648 78.2268 197.517C78.0476 194.419 78.0369 191.307 77.9754 188.203C77.946 186.73 77.9701 185.257 77.9701 183.808C77.1467 184.083 76.4543 184.244 75.8367 184.548C75.5239 184.703 75.179 185.096 75.1256 185.425C74.8823 186.96 74.7539 188.51 74.5561 190.053C73.8396 195.656 70.9549 199.576 65.6401 201.68C61.8331 203.188 57.8924 203.883 53.8208 204.097C46.7522 204.466 39.7744 204.252 33.1389 201.372C29.0859 199.613 26.3563 196.67 25.3912 192.317C24.894 190.069 24.7042 187.756 24.3299 185.479C24.2764 185.15 24.0411 184.706 23.7684 184.583C23.1001 184.281 22.3622 184.137 21.5388 183.893L21.5441 183.891ZM51.7996 4.22895C53.5133 4.44015 55.2056 4.54977 56.8551 4.87326C60.991 5.68866 65.1429 6.41852 68.4927 9.41814C69.0996 9.96085 70.5673 9.62132 71.6287 9.55181C72.2516 9.51171 72.9039 8.93691 73.4573 9.04384C76.8365 9.69884 79.7533 11.3751 82.5631 13.3107C87.6935 16.845 89.6397 21.708 88.6826 27.758C88.5142 28.8274 87.7656 29.8059 87.2978 30.8298C87.1614 31.1266 86.9449 31.4528 86.9743 31.7469C87.378 35.9442 87.9528 40.1308 88.2175 44.3388C88.5891 50.2365 88.7468 56.1502 88.9714 62.0558C88.9847 62.4114 88.8003 62.7777 88.7067 63.1359C88.5891 63.1225 88.4714 63.1092 88.3538 63.0931C88.303 62.7696 88.2148 62.4488 88.2041 62.1253C88.033 57.3719 87.9822 52.6105 87.6748 47.8624C87.3406 42.6786 86.7979 37.5055 86.2658 32.3377C86.2097 31.7896 85.667 31.2683 85.2847 30.7844C84.9318 30.3379 84.381 30.0225 84.1084 29.5413C83.3651 28.2286 82.6914 26.8731 82.0498 25.507C80.6943 22.625 79.7185 19.5719 77.2696 17.2674C75.5399 15.6393 74.0054 13.7572 72.6312 11.8109C71.8185 10.6586 70.9897 10.5731 69.7118 10.8217C69.8963 11.1479 70.0273 11.3617 70.1422 11.5863C71.7944 14.8319 73.6551 17.9919 75.056 21.3417C78.5636 29.7257 80.6382 38.5561 82.8786 47.3384C84.7179 54.5407 85.2071 61.7805 84.1725 69.1351C83.456 74.2308 82.7155 79.3237 82.0765 84.43C81.3761 90.0202 80.7157 95.6184 80.1516 101.225C79.5608 107.098 79.0208 112.977 78.6171 118.867C78.2401 124.363 78.069 129.876 77.815 135.381C77.4488 143.286 77.0879 151.189 76.7269 159.094C76.5291 163.447 76.3607 167.799 76.1361 172.151C76.0399 174.012 75.818 175.868 75.6896 177.726C75.5533 179.693 75.4571 181.664 75.3421 183.65C77.1333 183.567 78.0209 182.706 78.0664 181.177C78.1439 178.512 78.2268 175.844 78.2802 173.175C78.3818 168.147 78.4567 163.121 78.5529 158.092C78.6304 154.132 78.6625 150.173 78.8283 146.216C79.1571 138.265 79.5261 130.317 79.9485 122.369C80.149 118.599 80.4484 114.83 80.8093 111.071C81.352 105.414 81.9215 99.7569 82.6059 94.1159C83.2742 88.6086 84.0442 83.112 84.8783 77.626C85.6108 72.8005 86.6054 68.047 86.1696 63.0798C85.528 55.7572 84.4612 48.5148 82.654 41.4087C81.3092 36.1179 79.5073 30.9448 77.9193 25.7182C77.799 25.3252 77.7696 24.9055 77.6947 24.4991C77.8712 24.4643 78.0476 24.4296 78.2241 24.3975C83.4266 37.837 86.2578 51.8138 87.1802 66.0553C88.4474 65.5875 89.621 65.2052 90.7412 64.7079C91.1021 64.5475 91.5352 64.1064 91.578 63.7481C92.0111 60.1363 92.5992 56.5218 92.6928 52.8966C92.8318 47.563 92.5939 42.2188 92.5324 36.8772C92.4923 33.3589 92.4629 29.838 92.4602 26.3197C92.4602 22.1973 91.1262 18.7218 87.9581 15.92C84.5334 12.8936 80.8173 10.3191 76.8259 8.13488C70.0353 4.42145 62.7448 2.26396 55.0666 1.42182C53.4973 1.25072 51.9066 1.26944 49.8507 1.17854C50.642 2.41368 51.2328 3.33603 51.8023 4.22629L51.7996 4.22895ZM49.1075 1.25874C48.9069 1.22131 48.6877 1.13308 48.4819 1.15447C45.7442 1.42182 42.9772 1.53411 40.2743 2.01801C29.527 3.93755 19.9989 8.49312 11.7967 15.7114C9.54029 17.6978 7.61807 20.0104 7.28923 23.1945C7.11813 24.8279 6.98179 26.4748 6.97644 28.1136C6.93901 37.591 6.86415 47.0684 6.98713 56.5458C7.02189 59.2621 7.67421 61.9703 7.99503 64.3416C9.62851 65.0153 10.9519 65.5581 12.4196 66.1649C12.6014 58.9466 13.7483 51.8566 15.2294 44.8201C16.6998 37.8423 18.5605 30.9796 21.6163 24.4964C21.7901 24.9696 21.7206 25.3733 21.5896 25.7556C20.8223 27.9826 19.9828 30.1882 19.2743 32.4339C16.7372 40.4596 15.053 48.6778 13.9301 57.0137C13.3313 61.465 12.8607 65.9618 13.4275 70.4211C14.3472 77.6421 15.6598 84.8096 16.6383 92.0253C17.3655 97.3909 17.8895 102.789 18.3948 108.184C18.8519 113.049 19.2102 117.926 19.523 122.802C19.9828 129.986 20.4239 137.169 20.7608 144.358C20.964 148.668 20.964 152.988 21.0469 157.303C21.1431 162.332 21.2367 167.358 21.3115 172.387C21.3543 175.282 21.3436 178.177 21.3757 181.073C21.3944 182.776 22.5547 183.8 24.1694 183.559C23.7845 177.985 23.3487 172.413 23.0306 166.834C22.6937 160.931 22.4745 155.023 22.2018 149.117C21.9398 143.433 21.6858 137.749 21.4024 132.066C21.0522 125.008 20.7554 117.944 20.2796 110.895C19.9588 106.114 19.4241 101.345 18.8894 96.5808C18.3493 91.7766 17.705 86.9831 17.0875 82.187C16.4271 77.0379 15.7026 71.8968 15.085 66.7451C14.6172 62.8525 14.3365 58.9225 15.1546 55.0594C16.4218 49.0735 17.7425 43.0903 19.2663 37.1659C21.3596 29.0172 23.9342 21.0236 28.0887 13.6368C28.6261 12.6824 29.2249 11.7654 29.8158 10.8003C28.3641 10.5169 27.4738 10.8431 26.6558 12.1424C25.5543 13.8935 24.1989 15.5617 22.6563 16.9332C20.825 18.5614 19.6058 20.4862 18.6701 22.6758C17.8841 24.5151 17.1543 26.3892 16.2213 28.1537C15.6973 29.1429 14.8043 29.9316 14.0985 30.8298C13.8018 31.2068 13.3633 31.6078 13.3205 32.0302C12.6762 38.7032 12.0106 45.3788 11.5106 52.0625C11.2567 55.4738 11.3235 58.9092 11.2326 62.3339C11.2246 62.5905 11.1016 62.8445 11.0321 63.1012C10.9118 63.0958 10.7888 63.0931 10.6685 63.0878C10.5963 62.4996 10.4493 61.9088 10.468 61.3233C10.623 56.3908 10.7353 51.4529 11.016 46.5257C11.2085 43.1144 11.7111 39.7218 11.9491 36.3104C12.1148 33.9578 13.3072 31.4501 11.1764 29.322C11.0107 29.1563 10.9465 28.8274 10.9412 28.5708C10.8931 26.3598 10.6284 24.1141 10.9171 21.9433C11.1256 20.39 11.7994 18.7164 12.7618 17.4813C15.9619 13.3722 20.1699 10.6105 25.2041 9.19088C26.1665 8.92086 27.3027 8.34876 27.9658 9.78975C28.0192 9.90738 28.3721 9.9154 28.586 9.92342C29.7463 9.95818 30.8344 9.95282 31.7139 8.89413C32.2299 8.27389 33.0507 7.86485 33.7992 7.49057C37.8041 5.48815 42.1565 4.85989 46.5329 4.36797C47.9632 4.20756 49.1449 2.86282 49.1048 1.26409L49.1075 1.25874ZM86.314 74.9125C86.2204 74.9178 86.1295 74.9205 86.0359 74.9258C85.2499 80.369 84.3463 85.7988 83.7047 91.2607C82.7984 98.9789 81.9696 106.711 81.3199 114.453C80.6409 122.553 80.0821 130.67 79.7185 138.792C79.363 146.746 79.3229 154.713 79.1437 162.674C79.0528 166.81 78.9459 170.948 78.8844 175.084C78.847 177.595 78.8764 180.108 78.8764 182.974C79.1732 182.45 79.3095 182.241 79.4164 182.017C79.6998 181.415 79.9966 180.816 80.2425 180.196C82.1968 175.287 83.2101 170.128 83.8731 164.936C85.012 156.041 86.0707 147.125 86.7685 138.188C87.4154 129.905 87.7844 121.583 87.8405 113.274C87.918 102.019 87.5892 90.7581 87.4127 79.5001C87.3994 78.7061 87.8084 77.6768 86.5118 77.3507C86.3808 77.3186 86.3327 76.7999 86.3166 76.5032C86.2872 75.9738 86.3086 75.4418 86.3086 74.9098L86.314 74.9125ZM13.5826 76.1289C13.3125 76.57 13.0292 77.0512 12.7297 77.5191C12.5052 77.8693 12.0614 78.1982 12.048 78.5484C11.8368 83.8793 11.5213 89.2155 11.5427 94.5463C11.5801 104.334 11.7807 114.124 11.9945 123.909C12.0908 128.352 12.2485 132.804 12.6121 137.233C13.1922 144.27 13.7537 151.32 14.7268 158.308C15.6171 164.717 16.9698 171.069 18.2745 177.41C18.6354 179.169 19.5604 180.813 20.2261 182.508C20.3384 182.466 20.448 182.426 20.5603 182.383C20.4293 146.759 19.3358 111.197 13.5826 76.1236L13.5826 76.1289ZM88.2175 77.6421C88.2175 78.2917 88.1961 78.8612 88.2201 79.428C88.3672 82.6254 88.6559 85.8202 88.6586 89.015C88.6693 97.8748 88.6506 106.735 88.4768 115.592C88.3378 122.57 87.9956 129.545 87.6534 136.517C87.4662 140.332 87.2122 144.152 86.7738 147.946C86.0092 154.56 85.0681 161.156 84.2474 167.762C84.2019 168.136 84.4559 168.802 84.742 168.922C85.8835 169.4 87.0759 169.831 88.2896 170.039C88.8056 170.128 89.7306 169.788 89.9472 169.374C91.8186 165.778 93.0003 161.99 92.7035 157.856C92.4496 154.314 92.0298 150.772 92.0245 147.229C92.0164 141.629 92.3533 136.028 92.4255 130.424C92.4763 126.556 92.3319 122.684 92.2651 118.813C92.1769 113.651 92.1047 108.488 91.979 103.329C91.8133 96.4793 91.6128 89.6325 91.3802 82.7858C91.3641 82.35 90.9471 81.9276 90.7091 81.5052C90.3429 80.8529 89.8563 80.238 89.6317 79.5402C89.4553 78.9868 89.597 78.3292 89.597 77.6421L88.2228 77.6421L88.2175 77.6421ZM10.9305 77.618C10.0482 77.3079 9.821 77.7784 9.83437 78.6981C9.85041 79.6418 10.1712 80.77 9.07244 81.3421C8.14475 81.826 8.06187 82.5987 8.03246 83.4622C7.94691 85.863 7.84265 88.2611 7.76779 90.6618C7.58065 96.752 7.33737 102.842 7.24914 108.935C7.14755 115.929 7.1716 122.925 7.1716 129.919C7.1716 133.349 7.2732 136.779 7.25983 140.209C7.24112 145.275 7.42291 150.36 7.02724 155.4C6.72247 159.292 6.81336 163.006 8.2597 166.641C9.88249 170.724 10.0964 170.78 14.1761 169.216C15.2374 168.81 15.331 168.243 15.1786 167.294C14.6412 163.917 14.0237 160.546 13.6868 157.148C12.8901 149.104 12.0801 141.054 11.5721 132.988C11.0936 125.401 10.8663 117.792 10.7621 110.191C10.6632 102.984 10.8744 95.7708 10.9278 88.5578C10.9546 84.962 10.9332 81.3689 10.9332 77.626L10.9305 77.618ZM15.9646 203.958C18.2317 202.161 20.0924 200.53 20.3223 197.95C20.6191 194.595 20.718 191.211 20.7127 187.842C20.71 186.107 20.4266 184.431 19.6486 182.714C18.2451 179.624 17.3548 176.298 16.3095 173.05C15.9513 171.938 15.7668 170.772 15.5101 169.665C14.0183 170.109 12.6923 170.473 11.385 170.9C10.1819 171.296 9.38791 170.78 8.83718 169.799C8.35863 168.946 7.95226 168.053 7.56193 167.155C7.26251 166.468 7.04328 165.746 6.78663 165.037C6.66632 165.064 6.5487 165.094 6.42839 165.12C6.42839 165.591 6.42304 166.059 6.42839 166.529C6.48988 170.89 6.55672 175.247 6.61019 179.608C6.64761 182.546 6.75188 185.489 6.67435 188.425C6.52463 194.146 9.6499 198.699 11.8876 203.591C11.9865 203.148 11.8635 202.733 11.8823 202.327C11.9865 200.033 12.1015 197.739 12.2833 195.451C12.3047 195.165 12.7511 194.913 12.9998 194.646C13.235 194.921 13.5264 195.165 13.6922 195.477C13.8312 195.739 13.8045 196.084 13.8847 196.384C14.5477 198.817 15.2187 201.247 15.9646 203.955L15.9646 203.958ZM92.9842 164.473C92.1902 166.35 91.5539 167.997 90.7974 169.588C90.2466 170.745 89.335 171.336 87.9688 170.882C86.6695 170.448 85.3542 170.072 83.972 169.646C83.8624 170.09 83.7448 170.513 83.6539 170.943C82.6941 175.563 81.6621 180.156 79.1277 184.246C78.9112 184.596 78.8416 185.088 78.839 185.516C78.8256 189.032 78.8096 192.547 78.863 196.063C78.9138 199.394 80.5286 201.851 83.5576 203.869C84.3249 201.022 85.0334 198.333 85.7873 195.656C85.8915 195.288 86.2257 194.985 86.4556 194.654C86.739 194.991 87.2256 195.301 87.2711 195.667C87.4823 197.37 87.624 199.089 87.6801 200.806C87.7122 201.803 87.5384 202.808 87.4582 203.811C88.9687 200.99 90.3482 198.159 91.594 195.269C92.0592 194.186 92.3747 192.98 92.4656 191.807C92.7196 188.577 92.9174 185.337 92.9602 182.099C93.035 176.314 92.9816 170.529 92.9816 164.481L92.9842 164.473ZM72.6098 9.88064C74 12.3269 75.425 14.4041 77.3659 16.051C79.4993 17.8609 80.9056 20.1334 81.9589 22.6731C82.5364 24.0687 83.0737 25.4883 83.7367 26.8437C84.2019 27.7928 84.766 28.7232 85.4478 29.5252C86.1616 30.362 86.8807 30.2096 87.2657 29.1884C87.5598 28.4077 87.7737 27.5629 87.8218 26.7341C88.0063 23.5046 88.0169 20.2643 85.6322 17.6818C84.3971 16.3477 83.0684 15.0671 81.6301 13.963C79.0421 11.9793 76.1628 10.5383 72.6152 9.87796L72.6098 9.88064ZM26.8456 10.271C26.7146 10.1587 26.5836 10.0464 26.4526 9.93411C21.9745 10.9607 18.2825 13.316 14.9327 16.4466C11.2379 19.8981 11.3556 24.1275 12.0213 28.5334C12.1015 29.0654 12.6575 29.9316 12.9864 29.9262C13.5184 29.9182 14.2215 29.437 14.537 28.9531C15.2348 27.881 15.8122 26.7154 16.3041 25.5311C17.9296 21.6145 19.6914 17.8556 23.0813 15.0164C24.5972 13.7465 25.6078 11.8724 26.8483 10.2736L26.8456 10.271ZM98.4408 84.0156C98.3525 82.8179 98.4301 81.9945 98.2135 81.2566C97.1014 77.5084 93.5296 76.5486 90.6343 74.6558C90.4177 76.5005 90.3723 78.2543 90.4578 80.0028C90.4739 80.3182 90.9684 80.7085 91.3294 80.8903C92.5966 81.5239 93.8959 82.0907 95.1952 82.6602C96.1523 83.0799 97.1254 83.4675 98.4434 84.0156L98.4408 84.0156ZM1.09751 83.7162C1.44239 83.7162 1.64023 83.7723 1.78459 83.7082C3.2443 83.0692 4.63985 82.1977 6.16104 81.802C8.7944 81.1176 9.50553 79.5108 9.07778 77.0459C8.9441 76.2733 8.98688 75.4686 8.94678 74.6772C8.79974 74.6157 8.6527 74.5542 8.50833 74.4927C6.61552 75.8535 4.69064 77.1715 2.83794 78.5858C1.17772 79.853 0.966515 81.679 1.09751 83.7188L1.09751 83.7162ZM91.316 73.8645L91.316 65.6115C87.7336 65.8254 86.4851 67.9989 87.3727 70.004C88.1399 71.7364 89.3671 73.0143 91.316 73.8645ZM8.21158 65.5233L8.21158 73.6346C8.3506 73.7281 8.49229 73.8217 8.63131 73.9153C9.60713 72.9528 10.6818 72.0706 11.532 71.0066C12.3661 69.9612 12.7511 68.6138 11.9651 67.4081C11.1283 66.1275 9.76753 65.5821 8.21158 65.5206L8.21158 65.5233ZM10.1124 76.6903L12.3768 76.6903L12.3768 71.5707C10.8503 73.0598 8.88261 74.0597 10.1124 76.6903ZM87.2015 71.4637L87.2015 76.6796L89.2842 76.6796C90.8882 73.9661 88.3378 73.1721 87.2015 71.4637ZM85.9744 205.022C86.5786 202.533 87.2844 200.118 86.5038 197.613C85.9263 199.389 85.429 201.223 84.7259 202.974C84.234 204.201 84.4826 204.8 85.9744 205.024L85.9744 205.022ZM12.8768 197.37C12.6255 200.159 12.6094 202.64 13.6681 205.147C14.2563 204.853 14.7428 204.607 15.1786 204.391C14.4087 202.041 13.6842 199.838 12.8768 197.37ZM12.1523 204.113C12.1175 204.145 12.0587 204.179 12.0614 204.204C12.0721 204.281 12.1068 204.356 12.1309 204.431C12.1603 204.401 12.2191 204.369 12.2164 204.345C12.2084 204.268 12.1763 204.193 12.1496 204.115L12.1523 204.113ZM85.9183 207.297C85.8942 207.323 85.8541 207.348 85.8515 207.374C85.8515 207.401 85.8889 207.43 85.9076 207.46C85.9317 207.433 85.9718 207.409 85.9744 207.382C85.9744 207.356 85.937 207.326 85.9183 207.297ZM86.1429 206.853L86.207 206.901L86.215 206.815L86.1429 206.853Z" fill="#747474"/>
<path d="M22.782 138.327L76.4276 138.327C76.4276 140.728 76.4837 143.064 76.4115 145.398C76.3367 147.796 76.1121 150.186 76.0025 152.584C75.7752 157.514 75.6897 162.455 75.3448 167.379C74.8074 175.047 74.238 182.714 73.4279 190.355C72.8451 195.865 69.4899 199.311 64.3195 201.092C60.9322 202.26 57.4567 202.816 53.8796 203.04C48.4766 203.38 43.1243 203.212 37.863 201.891C34.9168 201.15 32.0749 200.118 29.7757 197.99C27.3215 195.718 26.212 192.798 25.926 189.574C25.3111 182.671 24.7015 175.766 24.2738 168.847C23.7899 161.038 23.5118 153.215 23.1402 145.401C23.0306 143.094 22.9049 140.789 22.7793 138.329L22.782 138.327Z" fill="#FEFEFE" fill-opacity="0.7"/>
<path d="M79.0103 101.479C76.1684 100.981 73.3479 100.393 70.5007 100.016C66.6723 99.5082 62.8306 99.0003 58.9754 98.7891C54.3584 98.5351 49.7199 98.4095 45.1002 98.5592C37.3231 98.8158 29.5781 99.5136 21.9668 101.265C20.5418 101.594 20.4536 101.455 20.2745 99.944C19.4537 93.0625 18.5501 86.1944 17.7587 79.3103C17.0342 73.0036 16.4354 66.6809 15.7269 60.3715C15.5852 59.1203 16.2055 58.5322 17.1626 57.9895C23.7179 54.2734 30.6715 51.6534 38.0904 50.3033C52.0645 47.7635 65.4265 49.7525 78.2136 55.8213C79.7749 56.5618 81.2427 57.4975 82.7772 58.3022C83.5097 58.6846 83.7744 59.2326 83.7049 60.032C83.3707 63.97 83.1568 67.9214 82.7104 71.846C82.042 77.7142 81.1999 83.5637 80.4593 89.424C79.954 93.4315 79.4942 97.4443 79.013 101.479L79.0103 101.479Z" fill="#FEFEFE" fill-opacity="0.7"/>
<path d="M83.3302 57.3157C77.5235 53.9445 71.3398 51.4716 64.8192 49.9504C56.7881 48.0736 48.6796 47.6672 40.464 48.8703C31.9918 50.1134 24.1105 52.8992 16.6756 57.0671C16.5312 57.1473 16.3601 57.1847 15.8789 57.3558C16.1275 55.602 16.2532 54.0354 16.5767 52.5115C18.7556 42.2508 21.2499 32.0676 25.1478 22.3015C26.4444 19.0532 28.1153 15.9413 29.7702 12.8508C31.4384 9.73354 34.2242 7.98243 37.5794 7.04137C45.696 4.76358 53.7885 4.77695 61.9212 7.04137C66.1399 8.21769 68.8535 10.9232 70.8398 14.6821C74.7137 22.0047 77.2882 29.8005 79.3334 37.7808C80.7664 43.3683 81.9668 49.012 83.2367 54.6396C83.4211 55.455 83.4078 56.3159 83.4853 57.1553C83.4318 57.2061 83.3784 57.2596 83.3276 57.313L83.3302 57.3157Z" fill="#FEFEFE" fill-opacity="0.7"/>
<path d="M76.7136 137.404L22.8488 137.404C22.1831 125.786 21.5174 114.215 20.8384 102.374C22.7659 101.984 24.9582 101.468 27.1745 101.102C37.1839 99.444 47.2762 99.0644 57.3872 99.5376C64.1778 99.8557 70.9443 100.588 77.5985 102.123C78.6599 102.369 78.9166 102.797 78.831 103.839C78.3498 109.777 77.8926 115.717 77.5183 121.66C77.1922 126.852 76.9836 132.049 76.7136 137.404V137.404Z" fill="#FEFEFE" fill-opacity="0.7"/>
<path d="M21.5414 183.891C22.3648 184.134 23.1027 184.278 23.7711 184.58C24.0438 184.703 24.2764 185.147 24.3325 185.476C24.7068 187.754 24.8966 190.066 25.3939 192.315C26.359 196.67 29.0886 199.611 33.1415 201.37C39.7744 204.252 46.7548 204.463 53.8234 204.094C57.8924 203.88 61.8358 203.185 65.6428 201.677C70.9576 199.57 73.8422 195.651 74.5587 190.05C74.7566 188.508 74.8849 186.957 75.1282 185.422C75.179 185.094 75.5265 184.701 75.8393 184.546C76.4596 184.241 77.1493 184.08 77.9727 183.805C77.9727 185.254 77.9487 186.727 77.9781 188.2C78.0396 191.307 78.0503 194.416 78.2294 197.515C78.4112 200.645 80.5794 202.578 82.9962 204.639C82.2048 205.417 81.5151 206.273 80.6622 206.906C75.3447 210.842 69.7813 214.405 63.2554 215.929C56.3231 217.547 49.2839 217.849 42.1939 216.94C38.5633 216.475 34.9568 215.924 31.6016 214.438C26.6691 212.251 21.9611 209.644 17.8761 206.062C16.4378 204.8 16.4057 204.618 17.8654 203.452C20.9051 201.025 21.5334 197.723 21.5468 194.146C21.5575 191.208 21.5468 188.27 21.5468 185.332L21.5468 183.888L21.5414 183.891Z" fill="#FEFDFE" fill-opacity="0.7"/>
<path d="M51.7971 4.22895C51.2276 3.33869 50.6368 2.41636 49.8455 1.18122C51.8987 1.27212 53.4894 1.2534 55.0614 1.4245C62.7422 2.26664 70.03 4.4268 76.8206 8.13756C80.8121 10.3191 84.5282 12.8936 87.9529 15.9227C91.1209 18.7244 92.4523 22.2026 92.455 26.3224C92.455 29.8407 92.4871 33.3616 92.5272 36.8799C92.5887 42.2188 92.8266 47.563 92.6876 52.8992C92.594 56.5244 92.0059 60.139 91.5728 63.7508C91.53 64.1064 91.0969 64.5502 90.736 64.7106C89.6158 65.2078 88.4421 65.5875 87.1749 66.058C86.2526 51.8165 83.4214 37.8423 78.2188 24.4002C78.0424 24.4349 77.8659 24.4697 77.6895 24.5018C77.7617 24.9081 77.7938 25.3279 77.9141 25.7209C79.5021 30.9502 81.3013 36.1233 82.6488 41.4114C84.456 48.5148 85.5227 55.7598 86.1644 63.0824C86.6001 68.0497 85.6056 72.8031 84.8731 77.6287C84.039 83.1146 83.269 88.6113 82.6006 94.1186C81.9162 99.7596 81.3468 105.417 80.8041 111.074C80.4432 114.833 80.1437 118.599 79.9432 122.372C79.5208 130.317 79.1519 138.268 78.823 146.219C78.66 150.176 78.6252 154.135 78.5477 158.094C78.4488 163.123 78.3739 168.149 78.275 173.178C78.2215 175.846 78.1386 178.512 78.0611 181.18C78.0157 182.706 77.1308 183.57 75.3369 183.653C75.4518 181.666 75.5481 179.696 75.6844 177.728C75.8154 175.868 76.0373 174.015 76.1309 172.154C76.3554 167.804 76.5239 163.449 76.7217 159.097C77.0826 151.192 77.4435 143.289 77.8098 135.383C78.0638 129.879 78.2349 124.366 78.6118 118.869C79.0155 112.982 79.5556 107.101 80.1464 101.227C80.7105 95.6211 81.3709 90.0228 82.0713 84.4326C82.7103 79.3263 83.4535 74.2334 84.1673 69.1378C85.2019 61.7831 84.7127 54.5434 82.8733 47.3411C80.6303 38.5615 78.5584 29.7284 75.0508 21.3444C73.6472 17.9946 71.7892 14.8346 70.137 11.589C70.022 11.3644 69.891 11.1505 69.7066 10.8244C70.9845 10.5757 71.8132 10.664 72.626 11.8136C74.0001 13.7572 75.5347 15.6419 77.2644 17.2701C79.7133 19.5746 80.6891 22.6277 82.0445 25.5097C82.6862 26.8758 83.3599 28.2312 84.1031 29.5439C84.3758 30.0251 84.9265 30.3406 85.2794 30.7871C85.6617 31.2683 86.2045 31.7923 86.2606 32.3404C86.7899 37.5108 87.3353 42.6813 87.6695 47.8651C87.977 52.6105 88.0251 57.3719 88.1989 62.128C88.2095 62.4515 88.2978 62.7723 88.3486 63.0958C88.4662 63.1092 88.5838 63.1225 88.7015 63.1386C88.795 62.7777 88.9795 62.4141 88.9661 62.0585C88.7389 56.1501 88.5838 50.2391 88.2122 44.3415C87.9475 40.1362 87.3728 35.9495 86.9691 31.7495C86.9397 31.4554 87.1589 31.1293 87.2925 30.8325C87.7604 29.8086 88.5063 28.8301 88.6774 27.7607C89.6318 21.7134 87.6882 16.8477 82.5579 13.3134C79.7481 11.3778 76.8313 9.70152 73.4521 9.04652C72.8987 8.93959 72.2463 9.51171 71.6234 9.55449C70.5621 9.624 69.0943 9.96353 68.4875 9.42081C65.1376 6.42387 60.9884 5.69134 56.8499 4.87594C55.2004 4.55245 53.5081 4.44283 51.7944 4.23163L51.7971 4.22895Z" fill="#FEFDFE" fill-opacity="0.7"/>
<path d="M49.1048 1.26146C49.1449 2.86019 47.9632 4.20494 46.5329 4.36534C42.1565 4.85726 37.8041 5.48552 33.7992 7.48794C33.0507 7.86222 32.2299 8.27126 31.714 8.8915C30.8344 9.95019 29.7463 9.95555 28.586 9.92079C28.3721 9.91545 28.0192 9.90475 27.9658 9.78712C27.3027 8.34613 26.1665 8.91825 25.2041 9.18827C20.17 10.6052 15.9619 13.3695 12.7618 17.4786C11.7994 18.7138 11.1256 20.3874 10.9171 21.9406C10.6284 24.1115 10.8931 26.3545 10.9412 28.5682C10.9465 28.8248 11.0107 29.1536 11.1765 29.3194C13.3072 31.4448 12.1122 33.9525 11.9491 36.3078C11.7112 39.7191 11.2085 43.1118 11.016 46.5231C10.738 51.4503 10.6257 56.3855 10.468 61.3207C10.4493 61.9062 10.599 62.497 10.6685 63.0851C10.7888 63.0905 10.9118 63.0932 11.0321 63.0985C11.1016 62.8419 11.2246 62.5879 11.2326 62.3312C11.3235 58.9065 11.2567 55.4711 11.5106 52.0598C12.0106 45.3735 12.6736 38.7006 13.3206 32.0276C13.3607 31.6052 13.8018 31.2042 14.0985 30.8272C14.8043 29.9316 15.6999 29.1403 16.2213 28.1511C17.1543 26.3866 17.8841 24.5125 18.6701 22.6732C19.6059 20.481 20.825 18.5587 22.6563 16.9306C24.1989 15.5591 25.557 13.8909 26.6558 12.1398C27.4738 10.8405 28.3641 10.5143 29.8158 10.7977C29.225 11.7655 28.6261 12.6825 28.0887 13.6342C23.9315 21.021 21.3597 29.0146 19.2663 37.1633C17.7425 43.0904 16.4218 49.0709 15.1546 55.0568C14.3365 58.9226 14.6199 62.8526 15.085 66.7424C15.7026 71.8969 16.4244 77.0379 17.0875 82.1843C17.7024 86.9805 18.3493 91.774 18.8894 96.5782C19.4241 101.342 19.9588 106.112 20.2796 110.892C20.7528 117.942 21.0495 125.005 21.4024 132.063C21.6858 137.747 21.9371 143.431 22.2018 149.114C22.4745 155.02 22.6964 160.928 23.0306 166.831C23.3487 172.411 23.7845 177.982 24.1695 183.556C22.5547 183.797 21.3944 182.773 21.3757 181.07C21.3436 178.175 21.3543 175.279 21.3115 172.384C21.2367 167.355 21.1431 162.329 21.0469 157.3C20.964 152.985 20.964 148.665 20.7608 144.356C20.4213 137.167 19.9828 129.98 19.523 122.799C19.2102 117.923 18.852 113.047 18.3948 108.181C17.8895 102.786 17.3682 97.3909 16.6383 92.0226C15.6598 84.8096 14.3472 77.6394 13.4275 70.4184C12.8607 65.9591 13.3286 61.4624 13.9301 57.0111C15.053 48.6752 16.7372 40.4597 19.2743 32.4313C19.9855 30.1856 20.8223 27.98 21.5896 25.753C21.7206 25.3707 21.7901 24.967 21.6163 24.4938C18.5605 30.9796 16.6998 37.8397 15.2294 44.8174C13.7456 51.854 12.5987 58.944 12.4196 66.1623C10.9519 65.5581 9.62852 65.0127 7.99504 64.339C7.67155 61.9676 7.02189 59.2594 6.98714 56.5432C6.86416 47.0685 6.93902 37.5884 6.97645 28.111C6.98179 26.4695 7.12081 24.8253 7.28924 23.1918C7.62075 20.0078 9.5403 17.6979 11.7967 15.7088C19.9989 8.49049 29.5244 3.93492 40.2744 2.01538C42.9745 1.53416 45.7442 1.42188 48.4819 1.15186C48.6877 1.13047 48.9043 1.22136 49.1075 1.25611L49.1048 1.26146Z" fill="#FEFDFE" fill-opacity="0.7"/>
<path d="M86.3113 74.9124C86.3113 75.4444 86.2899 75.9764 86.3193 76.5058C86.3354 76.8025 86.3835 77.3212 86.5145 77.3533C87.8111 77.6794 87.4021 78.7087 87.4154 79.5027C87.5919 90.7606 87.9207 102.021 87.8432 113.276C87.787 121.586 87.4181 129.905 86.7711 138.19C86.0734 147.128 85.0147 156.044 83.8758 164.938C83.2101 170.13 82.1995 175.29 80.2452 180.198C79.9993 180.816 79.7025 181.415 79.4191 182.019C79.3122 182.244 79.1759 182.455 78.8791 182.976C78.8791 180.113 78.847 177.6 78.8871 175.087C78.9486 170.948 79.0555 166.812 79.1464 162.677C79.3229 154.715 79.3657 146.748 79.7212 138.795C80.0822 130.673 80.6436 122.556 81.3226 114.455C81.9696 106.713 82.7984 98.9815 83.7074 91.2633C84.349 85.8014 85.2526 80.3716 86.0386 74.9284C86.1322 74.9231 86.2231 74.9204 86.3167 74.9151L86.3113 74.9124Z" fill="#FEFDFE" fill-opacity="0.7"/>
<path d="M13.5797 76.1316C19.333 111.205 20.4264 146.767 20.5574 182.391C20.4451 182.434 20.3355 182.474 20.2232 182.516C19.5575 180.819 18.6325 179.177 18.2716 177.418C16.9643 171.074 15.6142 164.725 14.7239 158.316C13.7535 151.328 13.1894 144.278 12.6092 137.241C12.243 132.812 12.0879 128.363 11.9917 123.917C11.7778 114.129 11.5773 104.342 11.5398 94.5544C11.5185 89.2208 11.8339 83.8873 12.0451 78.5564C12.0585 78.2062 12.5023 77.8773 12.7269 77.5271C13.029 77.0593 13.3097 76.578 13.5797 76.1369L13.5797 76.1316Z" fill="#FEFDFE" fill-opacity="0.7"/>
<path d="M88.2149 77.6448L89.589 77.6448C89.589 78.3318 89.4473 78.9895 89.6238 79.5429C89.8457 80.2407 90.3322 80.8529 90.7012 81.5079C90.9391 81.933 91.3588 82.3554 91.3722 82.7885C91.6048 89.6352 91.8053 96.4846 91.9711 103.331C92.0967 108.491 92.1689 113.654 92.2571 118.816C92.324 122.687 92.4683 126.558 92.4175 130.427C92.3454 136.03 92.0085 141.631 92.0165 147.232C92.0219 150.774 92.4416 154.32 92.6956 157.859C92.9923 161.992 91.8107 165.781 89.9392 169.376C89.7227 169.793 88.7977 170.133 88.2817 170.042C87.0679 169.834 85.8756 169.403 84.734 168.925C84.448 168.804 84.194 168.139 84.2394 167.764C85.0629 161.156 86.0012 154.563 86.7658 147.949C87.2043 144.155 87.4583 140.335 87.6454 136.52C87.9876 129.547 88.3298 122.572 88.4688 115.594C88.6453 106.737 88.6613 97.8775 88.6506 89.0176C88.648 85.8229 88.3592 82.6254 88.2122 79.4306C88.1854 78.8639 88.2095 78.2917 88.2095 77.6448L88.2149 77.6448Z" fill="#FEFDFE" fill-opacity="0.7"/>
<path d="M10.928 77.6207C10.928 81.3635 10.9493 84.9594 10.9226 88.5525C10.8691 95.7628 10.6579 102.976 10.7568 110.186C10.8611 117.789 11.0883 125.398 11.5669 132.983C12.0775 141.048 12.8849 149.098 13.6816 157.143C14.0185 160.541 14.636 163.912 15.1734 167.288C15.3258 168.24 15.2322 168.804 14.1709 169.211C10.0885 170.775 9.87729 170.718 8.2545 166.636C6.80816 163 6.71458 159.284 7.02202 155.394C7.41769 150.355 7.2359 145.27 7.25461 140.204C7.26798 136.774 7.16373 133.344 7.1664 129.914C7.1664 122.92 7.14233 115.923 7.24392 108.93C7.33215 102.837 7.5781 96.7466 7.76257 90.6565C7.83476 88.2557 7.93902 85.8576 8.02724 83.4569C8.05932 82.5933 8.13953 81.818 9.06722 81.3368C10.1687 80.7647 9.84519 79.6365 9.82915 78.6928C9.81311 77.7758 10.0404 77.3026 10.9253 77.6127L10.928 77.6207Z" fill="#FEFDFE" fill-opacity="0.7"/>
<path d="M15.9619 203.96C15.216 201.249 14.545 198.819 13.882 196.389C13.8018 196.089 13.8285 195.745 13.6895 195.483C13.5237 195.17 13.235 194.927 12.9971 194.651C12.7484 194.919 12.3047 195.17 12.2806 195.456C12.0988 197.744 11.9838 200.038 11.8796 202.332C11.8609 202.738 11.9812 203.153 11.8849 203.597C9.64455 198.704 6.51928 194.149 6.67167 188.43C6.7492 185.492 6.64494 182.551 6.60751 179.613C6.55404 175.253 6.48453 170.895 6.42571 166.534C6.42037 166.067 6.42571 165.596 6.42571 165.126C6.54602 165.099 6.66366 165.069 6.78396 165.043C7.04062 165.748 7.25983 166.47 7.55926 167.16C7.94958 168.058 8.35595 168.951 8.8345 169.804C9.38523 170.788 10.1792 171.301 11.3823 170.906C12.6896 170.478 14.0157 170.114 15.5075 169.67C15.7641 170.777 15.9486 171.946 16.3068 173.055C17.3521 176.301 18.2424 179.629 19.646 182.72C20.4239 184.433 20.7073 186.112 20.71 187.847C20.7153 191.218 20.6164 194.6 20.3197 197.956C20.0898 200.535 18.229 202.166 15.9619 203.963L15.9619 203.96Z" fill="#FEFDFE" fill-opacity="0.7"/>
<path d="M92.9816 164.473C92.9816 170.521 93.0351 176.306 92.9603 182.091C92.9175 185.329 92.7196 188.569 92.4657 191.799C92.3721 192.972 92.0593 194.178 91.5941 195.261C90.351 198.151 88.9688 200.982 87.4583 203.802C87.5385 202.8 87.7123 201.795 87.6802 200.797C87.624 199.081 87.4797 197.365 87.2711 195.659C87.2257 195.293 86.7391 194.983 86.4557 194.646C86.2285 194.977 85.8916 195.279 85.7874 195.648C85.0334 198.325 84.325 201.014 83.5577 203.861C80.5287 201.845 78.9112 199.386 78.8631 196.055C78.8096 192.539 78.8257 189.024 78.839 185.508C78.839 185.08 78.9086 184.588 79.1278 184.238C81.6622 180.148 82.6915 175.555 83.6539 170.935C83.7422 170.505 83.8625 170.082 83.9721 169.638C85.3543 170.063 86.6696 170.44 87.9689 170.873C89.3377 171.331 90.2467 170.737 90.7974 169.58C91.554 167.989 92.1903 166.342 92.9843 164.465L92.9816 164.473Z" fill="#FEFDFE" fill-opacity="0.7"/>
<path d="M13.7083 207.422C18.3441 211.724 24.2524 213.325 30.0779 215.052C33.4705 216.058 36.8952 217.023 40.368 217.672C45.8994 218.71 51.4842 218.68 57.0825 217.988C65.5012 216.945 73.3799 214.146 81.0634 210.729C82.6942 210.005 84.1111 208.794 85.7874 207.7C85.2687 209.636 84.3437 211.109 82.7396 212.109C78.5156 214.74 73.9145 216.509 69.1665 217.897C64.0468 219.394 58.8443 220.383 53.4813 220.685C41.0551 221.383 29.4175 218.659 18.3655 213.103C15.9861 211.908 14.235 210.2 13.5559 207.551C13.6067 207.508 13.6548 207.465 13.7083 207.425L13.7083 207.422Z" fill="#FEFDFE" fill-opacity="0.7"/>
<path d="M72.6071 9.88074C76.1548 10.5411 79.0341 11.9821 81.622 13.9658C83.063 15.0699 84.3917 16.3505 85.6242 17.6846C88.0116 20.2671 87.9982 23.5073 87.8138 26.7369C87.7656 27.5657 87.5518 28.4105 87.2577 29.1911C86.8727 30.2124 86.1535 30.3648 85.4397 29.528C84.758 28.7259 84.1939 27.7956 83.7287 26.8465C83.063 25.4911 82.5283 24.0741 81.9509 22.6759C80.9002 20.1361 79.4913 17.8637 77.3579 16.0538C75.4143 14.4042 73.992 12.327 72.6018 9.88341L72.6071 9.88074Z" fill="#FEFDFE" fill-opacity="0.7"/>
<path d="M26.8427 10.271C25.6023 11.8697 24.5917 13.7438 23.0759 15.0137C19.6859 17.8529 17.9241 21.6118 16.2986 25.5284C15.8067 26.7127 15.2293 27.8784 14.5315 28.9504C14.216 29.437 13.5129 29.9182 12.9809 29.9236C12.6547 29.9289 12.0986 29.0627 12.0158 28.5307C11.3501 24.1248 11.2324 19.8954 14.9272 16.444C18.277 13.316 21.969 10.9607 26.4471 9.93144C26.5781 10.0437 26.7091 10.156 26.8401 10.2683L26.8427 10.271Z" fill="#FEFDFE" fill-opacity="0.7"/>
<path d="M98.4381 84.0156C97.1201 83.4675 96.1469 83.0825 95.1898 82.6601C93.8932 82.0907 92.5912 81.5239 91.324 80.8903C90.9631 80.7112 90.4685 80.3182 90.4525 80.0027C90.3669 78.2543 90.4124 76.5005 90.6289 74.6558C93.5243 76.5486 97.096 77.5111 98.2082 81.2566C98.4274 81.9918 98.3472 82.8179 98.4354 84.0156L98.4381 84.0156Z" fill="#FEFDFE" fill-opacity="0.7"/>
<path d="M1.09472 83.7162C0.963718 81.6764 1.1776 79.8531 2.83514 78.5832C4.68785 77.1689 6.61274 75.8509 8.50555 74.4901C8.65259 74.5516 8.79962 74.6131 8.94398 74.6746C8.98141 75.4659 8.94132 76.268 9.075 77.0433C9.50275 79.5109 8.78893 81.1176 6.15825 81.7993C4.63705 82.195 3.24151 83.0666 1.7818 83.7055C1.63743 83.7697 1.43959 83.7135 1.09472 83.7135L1.09472 83.7162Z" fill="#FEFDFE" fill-opacity="0.7"/>
<path d="M91.3134 73.8644C89.3645 73.0142 88.1374 71.7363 87.3701 70.0039C86.4825 67.9988 87.731 65.8253 91.3134 65.6114L91.3134 73.8644Z" fill="#FEFDFE" fill-opacity="0.7"/>
<path d="M8.20874 65.5233C9.76737 65.5848 11.1282 66.1302 11.9623 67.4108C12.7483 68.6165 12.366 69.9639 11.5292 71.0092C10.679 72.0733 9.60429 72.9555 8.62847 73.918C8.48946 73.8244 8.34776 73.7308 8.20874 73.6373L8.20874 65.526L8.20874 65.5233Z" fill="#FEFDFE" fill-opacity="0.7"/>
<path d="M23.7177 211.839C20.0818 210.641 16.5983 209.19 13.9248 205.947C14.5531 205.604 15.0343 205.345 15.6037 205.038C17.7024 208.112 21.0442 209.558 23.846 211.692C23.8032 211.743 23.7631 211.791 23.7177 211.839V211.839Z" fill="#FEFDFE" fill-opacity="0.7"/>
<path d="M75.5854 211.724C77.1227 210.671 78.7027 209.679 80.1811 208.551C81.4751 207.561 82.6567 206.425 84.0764 205.19C84.3196 205.31 84.8089 205.548 85.5414 205.907C82.8947 209.216 79.3737 210.655 75.6977 211.847C75.6603 211.804 75.6256 211.764 75.5881 211.721L75.5854 211.724Z" fill="#FEFDFE" fill-opacity="0.7"/>
<path d="M10.1096 76.6876C8.87716 74.0543 10.8475 73.0571 12.374 71.5679L12.374 76.6876L10.1096 76.6876Z" fill="#FEFDFE" fill-opacity="0.7"/>
<path d="M87.199 71.461C88.3352 73.1693 90.8857 73.9633 89.2816 76.6769L87.199 76.6769L87.199 71.461Z" fill="#FEFDFE" fill-opacity="0.7"/>
<path d="M85.9743 205.019C84.4825 204.794 84.2339 204.195 84.7258 202.968C85.4289 201.217 85.9262 199.383 86.5036 197.608C87.2843 200.113 86.5785 202.527 85.9743 205.016L85.9743 205.019Z" fill="#FEFDFE" fill-opacity="0.7"/>
<path d="M12.8767 197.368C13.684 199.832 14.4085 202.035 15.1785 204.388C14.7427 204.607 14.2562 204.851 13.668 205.145C12.6093 202.637 12.6254 200.156 12.8767 197.368Z" fill="#FEFDFE" fill-opacity="0.7"/>
<path d="M23.8459 211.692C23.9983 211.791 24.1533 211.89 24.3057 211.989C24.2683 212.05 24.2308 212.114 24.1934 212.176C24.0357 212.063 23.8779 211.951 23.7175 211.839C23.7603 211.791 23.8031 211.743 23.8459 211.692V211.692Z" fill="#FEFDFE" fill-opacity="0.7"/>
<path d="M75.695 211.847C75.5693 211.911 75.4463 211.975 75.3207 212.037L75.2432 211.884C75.3581 211.831 75.4731 211.777 75.5854 211.721C75.6228 211.761 75.6575 211.804 75.695 211.844L75.695 211.847Z" fill="#FEFDFE" fill-opacity="0.7"/>
<path d="M12.1523 204.107C12.1763 204.185 12.2084 204.26 12.2191 204.337C12.2218 204.361 12.163 204.393 12.1335 204.423C12.1095 204.348 12.0747 204.273 12.0641 204.195C12.0614 204.171 12.1202 204.139 12.1549 204.105L12.1523 204.107Z" fill="#FEFDFE" fill-opacity="0.7"/>
<path d="M13.5584 207.548C13.4916 207.422 13.4221 207.299 13.3552 207.174C13.406 207.144 13.4541 207.115 13.5049 207.085C13.5718 207.198 13.6413 207.31 13.7081 207.422C13.6573 207.462 13.6065 207.505 13.5584 207.548V207.548Z" fill="#FEFDFE" fill-opacity="0.7"/>
<path d="M83.488 57.1607C83.4961 57.2569 83.5014 57.3505 83.5094 57.4467C83.4506 57.4039 83.3918 57.3612 83.3303 57.3184C83.3811 57.2649 83.4346 57.2141 83.488 57.1633L83.488 57.1607Z" fill="#FEFEFE" fill-opacity="0.7"/>
<path d="M85.9207 207.292C85.942 207.321 85.9792 207.351 85.9766 207.377C85.9766 207.404 85.934 207.428 85.91 207.454C85.8887 207.425 85.8515 207.396 85.8541 207.369C85.8541 207.343 85.8967 207.319 85.9207 207.292Z" fill="#FEFDFE" fill-opacity="0.7"/>
<path d="M86.1428 206.85L86.215 206.813L86.207 206.898L86.1428 206.85Z" fill="#FEFDFE" fill-opacity="0.7"/>
</svg>
