<svg width="32" height="31" viewBox="0 0 32 31" fill="none" xmlns="http://www.w3.org/2000/svg">
<circle cx="16.2002" cy="15.5" r="15" fill="white"/>
<path d="M31.228 15.5121C31.224 23.8423 24.5654 30.6432 16.4209 30.6392C7.9089 30.6392 1.02106 23.8976 0.985491 15.5397C0.949926 7.0712 7.71922 0.376976 16.2984 0.408589C24.676 0.436251 31.2319 7.06727 31.228 15.5121ZM13.6824 11.5682C13.71 11.7144 13.7416 11.8607 13.6784 11.5445C13.876 11.7975 13.7851 11.6789 13.6902 11.5604C13.6073 11.5327 13.5203 11.505 13.4334 11.4813C13.5164 11.509 13.5994 11.5406 13.6863 11.5682H13.6824ZM19.3689 19.5547C20.1987 21.6017 20.9614 23.6763 21.8901 25.6798C22.471 26.9404 23.5577 27.1024 25.0119 26.4544C23.1151 24.0438 21.3092 21.7439 19.4993 19.444C19.436 19.2978 19.3728 19.1556 19.3136 19.0093C19.2503 19.041 19.1871 19.0765 19.1239 19.1081C19.2108 19.2583 19.2938 19.4045 19.3768 19.5547H19.3728H19.3689ZM11.1888 14.0657C9.31966 12.9 7.49396 11.6512 5.56947 10.5922C4.28516 9.88481 3.43556 10.3393 2.69264 11.8883C5.4944 12.6629 8.27245 13.4335 11.0545 14.204C11.1691 14.2198 11.2876 14.2357 11.4022 14.2515C11.3311 14.1882 11.2639 14.125 11.1928 14.0657H11.1888ZM3.51457 9.33951C3.47506 9.35531 3.4316 9.36712 3.40394 9.39083C3.38813 9.40269 3.39602 9.44224 3.39207 9.47385C3.42764 9.42248 3.46321 9.37506 3.49878 9.32368C4.75542 9.57264 6.00813 9.81766 7.33986 10.0785C7.70737 9.57265 8.13413 8.98779 8.60439 8.33971C7.75872 7.38339 6.94468 6.46265 5.90143 5.28504C5.0281 6.76693 4.26937 8.0552 3.51064 9.33951H3.51457ZM19.116 11.8923C20.8547 10.0785 22.6172 8.28436 24.3164 6.43891C24.6602 6.06745 25.0633 5.39963 24.9408 5.03213C24.7709 4.49864 24.2097 3.96121 23.6802 3.74386C23.4628 3.65692 22.8148 4.33661 22.5223 4.7713C21.9335 5.64858 21.4001 6.57327 20.9417 7.52563C20.2659 8.94035 19.6771 10.3985 19.0527 11.837C18.9421 12.41 18.8275 12.983 18.6299 13.9946C21.9533 13.6943 24.925 13.473 27.8809 13.1055C28.3827 13.0462 28.8846 12.41 29.2244 11.9278C29.4102 11.6631 29.26 11.1612 29.264 10.7661C28.9202 10.7898 28.5526 10.7384 28.2405 10.8451C26.2448 11.5327 24.2769 12.2993 22.2734 12.9513C21.3131 13.2635 20.2896 13.3781 19.1239 13.6152V11.8883H19.1199L19.116 11.8923ZM18.1557 19.7206C17.5629 17.642 17.6894 16.251 19.851 15.9823C20.0565 15.9547 20.2185 15.5832 20.3963 15.3737C20.1474 15.1682 19.9063 14.7928 19.6573 14.7889C18.0846 14.7494 17.6854 13.884 17.7763 12.4811C17.804 12.0701 17.4799 11.6433 17.3219 11.2205C16.2707 12.9395 15.4211 14.0973 13.4729 12.9197C13.2674 12.7972 12.7814 13.1371 11.9673 13.4216C15.1129 14.8561 13.0857 16.6186 12.6747 18.2309C13.1094 18.2309 13.303 18.2901 13.4097 18.223C14.8402 17.3062 15.9664 17.4484 16.8082 19.0528C16.9544 19.3294 17.4839 19.4045 18.1557 19.7206ZM2.1868 17.3694C3.00086 17.2943 3.81887 17.2745 4.61316 17.1204C5.08737 17.0295 5.92514 16.666 5.90538 16.5356C5.74731 15.5358 6.66805 14.2199 5.32447 13.5718C4.45114 13.1529 3.43555 13.0383 2.1868 12.7103V17.3733V17.3694ZM11.5958 6.11885C13.9115 5.41149 14.8402 3.79523 14.3857 1.27404C12.888 1.72454 11.422 2.16712 10.0033 2.59786C10.5803 3.87031 11.0663 4.95704 11.5958 6.11885ZM9.12206 28.0114C10.7541 28.5686 12.1333 29.0427 13.4927 29.5051C13.8404 28.0429 14.1052 26.9404 14.3818 25.7747C13.3306 25.3993 12.3585 25.0555 11.3429 24.6919C10.6395 25.7431 9.97563 26.735 9.12206 28.0114ZM23.4352 22.9334C24.2137 23.8897 24.9645 24.8065 25.9445 26.0118C26.9957 24.5654 27.8848 23.3483 28.7305 22.1904C27.4343 21.5107 26.4029 20.9694 25.3478 20.4161C24.6958 21.2776 24.0991 22.06 23.4352 22.9373V22.9334ZM23.6723 8.22509C25.5928 11.0585 26.81 11.2916 28.9715 9.13005C28.1496 7.96034 27.3158 6.77088 26.5136 5.62093C25.4743 6.56934 24.5733 7.39523 23.6762 8.22114L23.6723 8.22509ZM16.33 20.2857C15.7926 22.9413 15.2709 25.3479 14.8442 27.7742C14.7691 28.1971 14.9588 28.9005 15.267 29.1059C15.7452 29.4221 16.4486 29.5407 17.0216 29.4735C17.2112 29.4498 17.4325 28.5922 17.4207 28.122C17.393 27.1222 17.2507 26.1224 17.1045 25.1266C16.8714 23.542 16.5987 21.9652 16.3261 20.2897L16.33 20.2857ZM19.8036 16.658C19.7601 16.8359 19.7127 17.0137 19.6692 17.1955C22.2971 17.4839 24.6405 18.464 26.7428 20.0368C28.5131 21.3606 29.2402 21.0405 29.8014 18.4403C26.4622 17.8436 23.1349 17.2548 19.8036 16.658ZM12.7023 11.3232C12.7695 11.2481 12.8367 11.177 12.9078 11.102C12.0187 9.23279 11.1532 7.35175 10.2364 5.49445C9.95983 4.9333 9.60417 4.03233 9.2011 3.98491C8.49769 3.90588 7.73502 4.36427 6.61669 4.71992C8.86916 7.16208 10.7857 9.24462 12.7023 11.3193V11.3232ZM11.1612 17.4958L11.0387 17.3061C8.60835 17.5274 6.17014 17.6973 3.75169 17.9937C2.49109 18.1478 2.81909 19.2465 2.94159 20.0091C2.98506 20.2897 3.76353 20.756 4.00854 20.6572C6.41909 19.6613 8.78222 18.5667 11.1572 17.4998L11.1612 17.4958ZM15.5594 1.51509V11.2363C16.3972 9.08657 16.982 6.92104 17.4483 4.72784C17.8909 2.64133 17.4246 1.92607 15.5594 1.51509ZM20.5979 6.13067C21.2776 5.00443 21.9177 3.94935 22.6725 2.7006C21.0128 2.20269 19.5388 1.76404 18.1755 1.35701C18.3177 2.80334 18.4442 4.04024 18.5746 5.37592C19.1831 5.60117 19.851 5.85405 20.5939 6.13462L20.5979 6.13067ZM7.06719 20.4359C5.82635 20.9654 4.73567 21.4357 3.40789 22.0008C4.42744 23.3483 5.35607 24.5813 6.25707 25.7747C6.96442 24.5101 7.5572 23.4471 8.2527 22.2102C7.95632 21.7676 7.55718 21.167 7.07112 20.4399L7.06719 20.4359ZM26.557 16.8675C27.7544 17.1165 28.9044 17.3575 30.1017 17.6104V13.0699C29.343 13.4532 28.7937 13.9393 28.2207 13.9749C26.312 14.0974 26.1895 15.2117 26.557 16.8715V16.8675ZM22.8701 28.0864C22.1311 27.3158 21.4159 26.8061 21.0365 26.1066C20.5544 25.2333 20.0644 25.0989 19.1397 25.3202C18.0411 25.585 18.0529 26.2765 18.1596 27.0945C18.2584 27.8533 18.3928 28.6041 18.5469 29.6118C20.1316 29.0506 21.4791 28.5764 22.8701 28.0864ZM13.4769 19.934C13.3702 19.8273 13.2635 19.7246 13.1568 19.6179C11.4062 21.2381 9.56861 22.7753 7.9405 24.518C7.21339 25.2965 7.46236 26.3556 8.52537 27.1578C10.2167 24.688 11.8487 22.309 13.4729 19.934H13.4769ZM6.8854 14.0065V17.1837C8.391 16.6897 9.6516 16.2787 10.9082 15.8637C10.8885 15.6583 10.8687 15.4567 10.849 15.2513C9.58441 14.8561 8.32382 14.457 6.8854 14.0065ZM20.175 12.0741C20.3094 12.2361 20.4437 12.4021 20.5741 12.5641C21.8585 12.1333 23.1428 11.7026 24.6286 11.2126C23.9489 10.2958 23.4391 9.60425 22.712 8.62422C21.7517 9.93224 20.9614 11.0031 20.175 12.078V12.0741ZM14.0933 10.6277C14.2791 10.5605 14.4727 10.4934 14.6584 10.4262V6.09116C13.6152 6.47447 12.8169 6.76694 11.7263 7.16606C12.6193 8.47013 13.3504 9.5489 14.0894 10.6277H14.0933ZM24.7392 19.5981C23.1744 19.0805 21.9059 18.6616 20.6374 18.2427C20.5425 18.3968 20.4556 18.5549 20.3647 18.709C21.1353 19.7957 21.9059 20.8864 22.799 22.1509C23.4312 21.3171 23.9608 20.6256 24.7392 19.5942V19.5981ZM11.8646 23.8581C12.73 24.1624 13.303 24.4864 13.8957 24.5338C14.2158 24.5615 14.8402 24.1426 14.8679 23.8818C14.9785 22.7832 14.9153 21.6688 14.9153 20.5623C14.7493 20.5189 14.5873 20.4715 14.4213 20.424C13.631 21.487 12.8406 22.5461 11.8646 23.8621V23.8581ZM25.3715 16.6146V14.3582C24.182 14.4807 23.0914 14.5676 22.0165 14.7336C21.7834 14.7691 21.3921 15.1367 21.4277 15.2592C21.5028 15.5397 21.7557 15.9191 22.0047 15.9823C23.0242 16.2352 24.0714 16.3814 25.3755 16.6146H25.3715ZM9.2011 21.8348C10.1614 21.0129 11.0189 20.3331 11.8053 19.5744C11.9871 19.4005 12.0384 18.8671 11.9001 18.6576C11.7895 18.4838 11.256 18.4166 11.011 18.5233C10.0073 18.9619 9.04305 19.4915 7.93261 20.0486C8.3673 20.6612 8.7427 21.1907 9.2011 21.8348ZM18.0292 6.34407C17.7408 7.47031 17.4523 8.33179 17.3219 9.20907C17.2626 9.59238 17.5234 10.0271 17.638 10.438C17.9818 10.2286 18.4639 10.0982 18.6457 9.78996C19.1792 8.90082 19.5902 7.94451 20.1157 6.87359C19.3452 6.67996 18.7524 6.52585 18.0332 6.34407H18.0292ZM17.9344 24.5022C19.9221 24.36 20.0999 24.0873 19.4242 22.4315C19.2266 21.9454 19.0804 21.4278 18.8038 20.9971C18.6457 20.7481 18.2663 20.6414 17.9897 20.4675C17.8237 20.7441 17.5037 21.0326 17.5234 21.2934C17.6064 22.3723 17.7921 23.4432 17.9383 24.5022H17.9344ZM9.16159 9.29599C8.78618 9.89665 7.56113 10.2879 8.67947 11.2442C9.35126 11.8133 10.1574 12.244 10.9478 12.6392C11.169 12.7498 11.6156 12.5957 11.8448 12.4179C11.9515 12.3349 11.8843 11.8054 11.7263 11.6473C10.9517 10.8767 10.1179 10.1614 9.15764 9.29995L9.16159 9.29599ZM18.788 18.2783C18.863 18.3059 18.9381 18.3257 19.0211 18.3494V17.4603C18.9579 17.4603 18.8986 17.4602 18.8354 17.4563C18.8196 17.729 18.8038 18.0017 18.788 18.2743V18.2783ZM15.761 19.3294C15.7214 19.3729 15.6543 19.4164 15.6622 19.444C15.678 19.5349 15.7214 19.6179 15.7531 19.7048C15.7886 19.6693 15.8558 19.6337 15.8518 19.6061C15.84 19.5152 15.7965 19.4321 15.7649 19.3294H15.761ZM11.588 16.8635L11.6591 16.7687L11.5405 16.7529L11.584 16.8596L11.588 16.8635ZM11.908 14.6387L11.9713 14.5597L11.8685 14.5478L11.912 14.6427L11.908 14.6387Z" fill="#747474"/>
<path d="M9 12C9 9.79086 10.7909 8 13 8H20C22.2091 8 24 9.79086 24 12V19C24 21.2091 22.2091 23 20 23H13C10.7909 23 9 21.2091 9 19V12Z" fill="url(#paint0_linear_166_434)"/>
<path d="M21.5666 14.0384L17.6823 14.038L17.682 10.4336C17.6823 9.75231 17.1297 9.2 16.4484 9.2C15.7673 9.2 15.215 9.75231 15.215 10.4336V14.0382L11.4338 14.038C10.7525 14.0382 10.2002 14.5905 10.2002 15.2716C10.2006 15.9529 10.7525 16.505 11.4338 16.505H15.215V20.5664C15.215 21.2483 15.7673 21.8 16.4486 21.8C17.1299 21.8 17.682 21.2477 17.6823 20.5668V16.505H21.567C22.2479 16.505 22.8002 15.9529 22.8002 15.2721C22.8008 14.5903 22.2479 14.038 21.5666 14.0384Z" fill="white"/>
<defs>
<linearGradient id="paint0_linear_166_434" x1="16.5" y1="8" x2="16.5" y2="23" gradientUnits="userSpaceOnUse">
<stop stop-color="#665492"/>
<stop offset="1" stop-color="#683D89"/>
</linearGradient>
</defs>
</svg>
