<svg width="31" height="31" viewBox="0 0 31 31" fill="none" xmlns="http://www.w3.org/2000/svg">
<path d="M30.6733 15.436C30.6693 23.7662 24.0107 30.5671 15.8662 30.5631C7.35421 30.5631 0.466369 23.8215 0.430804 15.4636C0.395238 6.99509 7.16453 0.300865 15.7437 0.332478C24.1213 0.36014 30.6772 6.99116 30.6733 15.436ZM13.1277 11.4921C13.1553 11.6383 13.1869 11.7846 13.1237 11.4684C13.3213 11.7213 13.2304 11.6028 13.1356 11.4843C13.0526 11.4566 12.9656 11.4289 12.8787 11.4052C12.9617 11.4329 13.0447 11.4645 13.1316 11.4921H13.1277ZM18.8142 19.4786C19.6441 21.5256 20.4067 23.6002 21.3354 25.6037C21.9163 26.8643 23.003 27.0263 24.4572 26.3782C22.5604 23.9677 20.7545 21.6678 18.9446 19.3679C18.8814 19.2217 18.8181 19.0794 18.7589 18.9332C18.6956 18.9648 18.6324 19.0004 18.5692 19.032C18.6561 19.1822 18.7391 19.3284 18.8221 19.4786H18.8181H18.8142ZM10.6341 13.9896C8.76497 12.8239 6.93927 11.5751 5.01478 10.5161C3.73048 9.8087 2.88087 10.2632 2.13795 11.8122C4.93971 12.5868 7.71776 13.3573 10.4998 14.1279C10.6144 14.1437 10.7329 14.1595 10.8475 14.1753C10.7764 14.1121 10.7092 14.0489 10.6381 13.9896H10.6341ZM2.95989 9.26339C2.92037 9.2792 2.87691 9.29101 2.84925 9.31472C2.83344 9.32658 2.84134 9.36613 2.83738 9.39774C2.87295 9.34637 2.90852 9.29894 2.94409 9.24757C4.20073 9.49653 5.45344 9.74155 6.78517 10.0024C7.15268 9.49654 7.57944 8.91168 8.0497 8.2636C7.20403 7.30728 6.38999 6.38654 5.34674 5.20893C4.47341 6.69082 3.71468 7.97909 2.95596 9.26339H2.95989ZM18.5613 11.8162C20.3 10.0023 22.0625 8.20825 23.7617 6.3628C24.1055 5.99134 24.5086 5.32352 24.3861 4.95601C24.2162 4.42253 23.655 3.8851 23.1255 3.66775C22.9082 3.58081 22.2601 4.2605 21.9677 4.69519C21.3788 5.57247 20.8454 6.49716 20.387 7.44952C19.7112 8.86424 19.1224 10.3224 18.498 11.7609C18.3874 12.3339 18.2728 12.9068 18.0752 13.9185C21.3986 13.6181 24.3703 13.3969 27.3262 13.0293C27.828 12.9701 28.3299 12.3338 28.6697 11.8517C28.8555 11.587 28.7053 11.0851 28.7093 10.69C28.3655 10.7137 27.998 10.6623 27.6858 10.769C25.6902 11.4566 23.7222 12.2232 21.7187 12.8752C20.7584 13.1874 19.7349 13.302 18.5692 13.5391V11.8122H18.5652L18.5613 11.8162ZM17.601 19.6445C17.0083 17.5659 17.1347 16.1749 19.2963 15.9062C19.5018 15.8785 19.6638 15.5071 19.8416 15.2976C19.5927 15.0921 19.3516 14.7167 19.1027 14.7128C17.5299 14.6733 17.1308 13.8078 17.2216 12.405C17.2493 11.994 16.9253 11.5672 16.7672 11.1444C15.716 12.8634 14.8664 14.0212 12.9182 12.8436C12.7127 12.7211 12.2267 13.061 11.4126 13.3455C14.5582 14.78 12.531 16.5425 12.12 18.1548C12.5547 18.1548 12.7483 18.214 12.855 18.1468C14.2855 17.23 15.4117 17.3723 16.2535 18.9767C16.3997 19.2533 16.9292 19.3284 17.601 19.6445ZM1.63212 17.2933C2.44617 17.2182 3.26418 17.1984 4.05848 17.0443C4.53268 16.9534 5.37045 16.5899 5.35069 16.4595C5.19263 15.4597 6.11336 14.1437 4.76978 13.4957C3.89645 13.0768 2.88086 12.9622 1.63212 12.6342V17.2972V17.2933ZM11.0412 6.04274C13.3569 5.33538 14.2855 3.71912 13.8311 1.19793C12.3334 1.64842 10.8673 2.09101 9.44862 2.52174C10.0256 3.7942 10.5116 4.88093 11.0412 6.04274V6.04274ZM8.56737 27.9353C10.1994 28.4924 11.5786 28.9666 12.938 29.429C13.2857 27.9668 13.5505 26.8643 13.8271 25.6986C12.7759 25.3232 11.8038 24.9794 10.7882 24.6158C10.0848 25.667 9.42094 26.6588 8.56737 27.9353V27.9353ZM22.8805 22.8573C23.659 23.8136 24.4098 24.7304 25.3898 25.9357C26.441 24.4893 27.3301 23.2722 28.1758 22.1143C26.8796 21.4346 25.8482 20.8933 24.7931 20.34C24.1411 21.2015 23.5444 21.9839 22.8805 22.8612V22.8573ZM23.1176 8.14898C25.0381 10.9824 26.2553 11.2155 28.4169 9.05394C27.5949 7.88423 26.7611 6.69477 25.9589 5.54482C24.9196 6.49323 24.0186 7.31912 23.1215 8.14503L23.1176 8.14898ZM15.7753 20.2096C15.2379 22.8652 14.7163 25.2718 14.2895 27.6981C14.2144 28.1209 14.4041 28.8243 14.7123 29.0298C15.1905 29.346 15.8939 29.4645 16.4669 29.3974C16.6566 29.3737 16.8778 28.5161 16.866 28.0459C16.8383 27.0461 16.6961 26.0463 16.5498 25.0505C16.3167 23.4658 16.044 21.8891 15.7714 20.2136L15.7753 20.2096ZM19.2489 16.5819C19.2054 16.7598 19.158 16.9376 19.1145 17.1194C21.7424 17.4078 24.0858 18.3879 26.1881 19.9607C27.9585 21.2845 28.6856 20.9644 29.2467 18.3642C25.9075 17.7674 22.5802 17.1786 19.2489 16.5819ZM12.1476 11.2471C12.2148 11.172 12.282 11.1009 12.3531 11.0258C11.464 9.15668 10.5986 7.27564 9.68176 5.41833C9.40514 4.85719 9.04949 3.95622 8.64641 3.9088C7.94301 3.82977 7.18033 4.28816 6.062 4.64381C8.31448 7.08597 10.231 9.16851 12.1476 11.2432V11.2471ZM10.6065 17.4197L10.484 17.23C8.05366 17.4513 5.61545 17.6212 3.197 17.9176C1.93641 18.0717 2.2644 19.1703 2.38691 19.933C2.43038 20.2136 3.20885 20.6799 3.45385 20.5811C5.8644 19.5852 8.22753 18.4906 10.6025 17.4236L10.6065 17.4197ZM15.0047 1.43898V11.1602C15.8425 9.01046 16.4273 6.84493 16.8936 4.65172C17.3362 2.56522 16.8699 1.84996 15.0047 1.43898V1.43898ZM20.0432 6.05455C20.7229 4.92832 21.363 3.87323 22.1178 2.62449C20.4581 2.12658 18.9841 1.68793 17.6208 1.2809C17.763 2.72723 17.8895 3.96413 18.0199 5.29981C18.6285 5.52506 19.2963 5.77794 20.0392 6.05851L20.0432 6.05455ZM6.5125 20.3598C5.27166 20.8893 4.18098 21.3596 2.85321 21.9247C3.87275 23.2722 4.80139 24.5051 5.70238 25.6986C6.40974 24.434 7.00251 23.371 7.69801 22.1341C7.40164 21.6915 7.00249 21.0909 6.51643 20.3637L6.5125 20.3598ZM26.0023 16.7914C27.1997 17.0403 28.3497 17.2814 29.547 17.5343V12.9938C28.7883 13.3771 28.239 13.8632 27.666 13.8987C25.7573 14.0213 25.6348 15.1356 26.0023 16.7953V16.7914ZM22.3154 28.0103C21.5764 27.2397 20.8612 26.7299 20.4818 26.0305C19.9997 25.1572 19.5097 25.0228 18.585 25.2441C17.4864 25.5089 17.4982 26.2004 17.6049 27.0184C17.7037 27.7772 17.8381 28.528 17.9922 29.5357C19.5769 28.9745 20.9244 28.5003 22.3154 28.0103V28.0103ZM12.9222 19.8579C12.8155 19.7512 12.7088 19.6485 12.6021 19.5418C10.8515 21.162 9.01392 22.6992 7.38581 24.4419C6.6587 25.2204 6.90767 26.2795 7.97068 27.0817C9.66202 24.6118 11.2941 22.2329 12.9182 19.8579H12.9222ZM6.33071 13.9303V17.1075C7.83632 16.6136 9.09691 16.2026 10.3536 15.7876C10.3338 15.5821 10.314 15.3806 10.2943 15.1751C9.02972 14.78 7.76914 14.3808 6.33071 13.9303ZM19.6203 11.998C19.7547 12.16 19.8891 12.3259 20.0195 12.488C21.3038 12.0572 22.5881 11.6265 24.0739 11.1365C23.3942 10.2197 22.8844 9.52814 22.1573 8.54811C21.1971 9.85613 20.4067 10.927 19.6203 12.0019V11.998ZM13.5386 10.5516C13.7244 10.4844 13.918 10.4173 14.1037 10.3501V6.01505C13.0605 6.39836 12.2622 6.69083 11.1716 7.08995C12.0647 8.39402 12.7957 9.47279 13.5347 10.5516H13.5386ZM24.1846 19.522C22.6197 19.0044 21.3512 18.5855 20.0827 18.1666C19.9878 18.3207 19.9009 18.4788 19.81 18.6329C20.5806 19.7196 21.3512 20.8103 22.2443 22.0748C22.8766 21.241 23.4061 20.5495 24.1846 19.5181V19.522ZM11.3099 23.782C12.1753 24.0863 12.7483 24.4103 13.3411 24.4577C13.6611 24.4854 14.2855 24.0665 14.3132 23.8057C14.4238 22.7071 14.3606 21.5927 14.3606 20.4862C14.1946 20.4428 14.0326 20.3953 13.8666 20.3479C13.0763 21.4109 12.2859 22.47 11.3099 23.7859V23.782ZM24.8168 16.5385V14.2821C23.6274 14.4046 22.5367 14.4915 21.4618 14.6574C21.2287 14.693 20.8375 15.0606 20.873 15.1831C20.9481 15.4636 21.201 15.843 21.45 15.9062C22.4695 16.1591 23.5167 16.3053 24.8208 16.5385H24.8168ZM8.64641 21.7587C9.60668 20.9368 10.4642 20.257 11.2506 19.4983C11.4324 19.3244 11.4837 18.791 11.3454 18.5815C11.2348 18.4076 10.7013 18.3405 10.4563 18.4472C9.45257 18.8858 8.48836 19.4153 7.37793 19.9725C7.81261 20.585 8.18801 21.1146 8.64641 21.7587V21.7587ZM17.4746 6.26796C17.1861 7.3942 16.8976 8.25568 16.7672 9.13296C16.7079 9.51627 16.9687 9.95096 17.0833 10.3619C17.4271 10.1525 17.9092 10.0221 18.091 9.71385C18.6245 8.82471 19.0355 7.86839 19.561 6.79748C18.7905 6.60385 18.1977 6.44974 17.4785 6.26796H17.4746ZM17.3797 24.4261C19.3674 24.2839 19.5452 24.0112 18.8695 22.3554C18.6719 21.8693 18.5257 21.3517 18.2491 20.921C18.091 20.672 17.7116 20.5653 17.435 20.3914C17.2691 20.668 16.949 20.9565 16.9687 21.2173C17.0517 22.2962 17.2374 23.3671 17.3836 24.4261H17.3797ZM8.6069 9.21988C8.23149 9.82054 7.00645 10.2118 8.12478 11.1681C8.79657 11.7371 9.60272 12.1679 10.3931 12.5631C10.6144 12.6737 11.0609 12.5196 11.2901 12.3417C11.3968 12.2588 11.3296 11.7293 11.1716 11.5712C10.397 10.8006 9.56322 10.0853 8.60295 9.22384L8.6069 9.21988ZM18.2333 18.2022C18.3084 18.2298 18.3835 18.2496 18.4664 18.2733V17.3841C18.4032 17.3841 18.3439 17.3841 18.2807 17.3802C18.2649 17.6529 18.2491 17.9255 18.2333 18.1982V18.2022ZM15.2063 19.2533C15.1668 19.2968 15.0996 19.3402 15.1075 19.3679C15.1233 19.4588 15.1667 19.5418 15.1984 19.6287C15.2339 19.5932 15.3011 19.5576 15.2972 19.5299C15.2853 19.4391 15.2418 19.356 15.2102 19.2533H15.2063ZM11.0333 16.7874L11.1044 16.6926L10.9858 16.6768L11.0293 16.7835L11.0333 16.7874ZM11.3534 14.5626L11.4166 14.4836L11.3138 14.4717L11.3573 14.5666L11.3534 14.5626Z" fill="#747474"/>
</svg>
