<svg width="61" height="102" viewBox="0 0 61 102" fill="none" xmlns="http://www.w3.org/2000/svg">
<path d="M59.0335 29.2901L58.9228 30.0409C57.7808 30.1121 56.6783 30.1714 55.6311 30.2188C50.4425 30.4638 46.6686 30.4756 46.6567 30.5389C31.3122 31.2107 19.0619 43.8364 19.0619 59.3508C19.0619 72.9605 28.4907 84.3375 41.148 87.4001C41.1954 87.4001 41.2271 87.4317 41.2587 87.4475C43.0528 87.9731 45.8308 88.5816 48.597 88.9768L48.518 98.6546L14.7703 97.8603C14.7703 97.8603 11.1031 96.5325 4.93844 100.966L1.63086 99.1723C1.63086 99.1723 6.13979 92.4781 5.57864 86.4517C5.0175 80.4253 8.74791 29.4363 25.602 3.43009C25.602 3.43009 27.1155 0.964224 29.3324 0.900996C31.5493 0.821962 35.6709 1.21318 38.2909 1.01164C40.9149 0.825913 45.0168 0.667847 45.0168 0.667847C45.0168 0.667847 48.7156 0.825911 48.7156 5.50474C48.7156 8.26699 52.0231 8.44087 53.3983 7.06568C54.9593 5.50475 55.5678 2.25643 55.5678 2.25643C55.5678 2.25643 58.0179 8.63845 58.828 18.004C59.6381 27.3538 59.0295 29.2901 59.0295 29.2901H59.0335Z" fill="white"/>
<path d="M59.9977 29.5075C59.9977 29.5075 59.9029 30.1793 59.9029 30.1832C59.8357 30.6535 59.4445 31.0012 58.9861 31.0249C56.0342 31.1948 52.7266 31.345 49.7509 31.4201C48.9408 31.4359 47.696 31.4715 46.9057 31.5031L46.8385 31.507C46.8306 31.507 46.8267 31.507 46.8267 31.507L46.8662 31.4991H46.8939L46.9492 31.4794C46.9887 31.4675 47.0282 31.4517 47.0677 31.4359C47.044 31.4398 47.123 31.4359 47.3325 31.262C47.4906 31.1198 47.5973 30.9064 47.6289 30.7364L46.7042 31.5228C29.0123 32.246 16.3708 49.4518 20.9943 66.5429C23.472 76.4894 32.2014 84.2585 41.152 86.4082C41.3654 86.4082 41.5748 86.4833 41.6736 86.5426C41.7724 86.5979 41.8119 86.6216 41.7013 86.5623C42.4324 86.7441 43.8036 87.0998 45.0998 87.3606C46.305 87.6095 47.5182 87.819 48.7353 87.9968C49.2293 88.0679 49.5889 88.4947 49.585 88.9847L49.5059 98.6625C49.502 99.2118 49.0436 99.6544 48.4943 99.6425L14.7466 98.8482L14.4345 98.7889C13.7627 98.6072 12.9881 98.6546 12.2689 98.7336C9.82676 99.0774 7.51895 100.358 5.51147 101.769C5.19534 101.994 4.78437 102.01 4.46428 101.836L1.1567 100.042C0.646929 99.769 0.480955 99.0972 0.808947 98.619C1.42146 97.635 1.99842 96.5286 2.49238 95.4339C3.6779 92.7547 4.61839 89.8462 4.43266 86.9101C4.08491 81.184 4.73299 75.5173 5.2388 69.8426C6.80368 54.8103 9.4948 39.857 14.1302 25.4451C15.6753 20.624 17.5168 15.882 19.9036 11.4047C21.0813 9.15613 22.3774 6.97083 23.7605 4.84085C25.0725 2.74249 26.7401 0.205486 29.5261 0.268714C32.2172 0.292424 34.8925 0.569052 37.4967 0.462356L41.235 0.20944L44.9931 0C45.0089 0 45.0286 0 45.0484 0C48.028 0.256862 49.5099 2.84524 49.4783 5.61934C49.5138 7.23954 51.5371 7.42922 52.5883 6.63098C53.7817 5.49684 54.2519 3.71461 54.5997 2.07465C54.738 1.12229 56.1606 0.928652 56.4926 1.90077C58.0614 6.3425 58.9742 10.8514 59.5591 15.4907C59.8318 17.8025 60.0017 20.0866 60.1361 22.3904C60.2111 24.7891 60.4166 27.0969 59.9977 29.5075ZM58.0732 29.0688C58.4091 26.9626 58.2392 24.6508 58.1641 22.4971C57.8164 15.7634 56.8956 8.98225 54.6511 2.60813L56.5439 2.43426C56.3543 3.27202 56.1132 4.01889 55.8089 4.78948C55.3189 5.95128 54.6708 7.23164 53.5881 8.01803C51.9916 9.10871 49.3558 8.9941 48.3402 7.12099C47.7237 6.0066 48.1544 4.75787 47.7237 3.61187C47.3997 2.35523 46.0798 1.41866 45.0484 1.31987L41.3022 1.44633L37.5401 1.62416C34.8253 1.69529 32.1856 1.42657 29.5537 1.50956C27.2854 1.57279 26.1355 3.92801 25.1673 5.67467C23.9699 7.84021 22.9346 10.0927 21.9783 12.3728C16.2127 26.1248 12.4467 40.6236 9.99669 55.3201C8.35277 65.1006 7.03684 75.0352 6.7207 84.9461C6.70094 86.2383 6.87483 87.5305 6.71281 88.8069C6.25441 92.7744 4.61048 96.3902 2.44494 99.7057C2.44494 99.7136 2.09721 98.2871 2.09721 98.2871L5.40479 100.081L4.35758 100.148C6.64562 98.536 9.19052 97.1608 12.0041 96.7617C13.0434 96.6313 14.0749 96.6076 15.1063 96.9158L14.794 96.8565L48.5417 97.6508L47.5301 98.6309L47.6091 88.9531L48.4587 89.941C45.9257 89.5577 43.0014 89.044 40.741 88.2734C40.8043 88.309 40.9742 88.3762 41.148 88.3722C30.593 86.0684 21.8005 77.4773 19.0817 67.0408C15.1853 52.9056 22.7172 37.486 36.2637 31.8824C39.5357 30.4914 43.0607 29.6971 46.6133 29.5351L45.6886 30.3215C45.7202 30.1516 45.8308 29.9343 45.9889 29.792C46.1983 29.6221 46.2774 29.6102 46.2576 29.6181C46.3248 29.5825 46.3841 29.5746 46.4513 29.5549L46.4908 29.547L46.5777 29.5351L46.6646 29.5272L46.7871 29.5193L46.9966 29.5075C48.597 29.4561 51.138 29.3968 52.7542 29.3375C54.7933 29.2704 56.8285 29.1518 58.8636 29.0412L57.9468 29.8829L58.0693 29.057L58.0732 29.0688Z" fill="#747474"/>
<path d="M8.53467 49.8153C9.408 40.9714 19.7575 29.0451 24.1914 21.1733C25.3571 18.8497 28.5778 10.7329 27.3725 8.58708C27.329 8.54757 27.2895 8.5199 27.1551 8.50409C26.3688 8.49619 25.2939 9.07314 24.5075 9.46831C23.5314 9.97413 22.5474 10.5432 21.4647 11.0292C21.4172 11.049 21.3619 11.0292 21.3422 10.9818C21.8638 9.92276 22.7964 9.04152 23.6855 8.24723C25.2544 6.81671 28.3604 5.5324 29.3365 8.2986C29.8897 10.2231 29.4076 12.0883 29.0362 13.9021C28.313 16.775 27.4357 19.5412 26.1514 22.2007C25.3374 23.7577 24.3889 25.2238 23.4445 26.682C19.7062 32.3962 15.6912 37.8535 12.6168 43.8996C11.6723 45.8201 10.7437 47.8908 10.5066 49.9852C10.3525 51.2379 8.47935 51.1154 8.53862 49.8074L8.53467 49.8153Z" fill="#747474"/>
<path d="M19.6744 28.4326C20.5873 26.1564 21.5831 23.9593 22.3537 21.6633C22.6975 20.5568 23.1835 19.2053 23.0057 18.166C23.0136 18.1858 23.0729 18.2648 23.1322 18.3043C23.1914 18.3439 23.2191 18.3478 23.1875 18.3399C22.4011 18.3004 21.4487 18.6956 20.5556 19.0078C19.8404 19.2646 19.0856 19.5808 18.3427 19.8376L17.2046 18.2253C19.1172 16.1428 23.7368 13.2501 25.843 16.6249C27.5699 20.0194 23.3139 26.6188 21.4053 29.3889L19.6744 28.4365V28.4326Z" fill="#747474"/>
<path d="M27.4155 1.46608C31.2289 2.47772 35.0542 3.52493 38.6265 5.26368C39.5117 5.70628 40.3851 6.28323 41.0411 7.04591C42.8826 9.00201 42.8984 11.9935 42.9695 14.4791C42.9932 16.5735 42.9418 19.399 42.9181 21.5052L42.9102 21.4578L41.8433 20.6912C44.0167 20.3355 46.2771 19.7625 48.3399 18.9682C51.0468 17.8894 54.0738 16.1823 54.5796 13.096C54.7021 11.9895 54.7219 10.397 54.7891 9.26282C54.8879 6.93526 55.0222 4.58793 55.0894 2.28013C55.0894 2.00746 55.3147 1.78222 55.5873 1.79408C55.8323 1.80198 56.0299 1.99167 56.0536 2.22877C56.2907 4.59585 56.3895 6.92736 56.4528 9.27863C56.4686 10.3337 56.5318 11.7801 56.5041 12.8312C56.4923 15.5381 54.6152 17.9289 52.4536 19.3239C49.8534 21.0192 46.8817 21.9202 43.8626 22.426C43.2619 22.5287 42.681 22.6078 42.0408 22.6552C41.535 22.7184 41.0687 22.3786 40.9739 21.8886C40.8909 21.3353 40.9067 20.4501 40.8869 19.8732C40.8593 18.087 40.8988 16.2574 40.9146 14.4909C40.8356 12.3294 41.1003 9.97808 39.6501 8.24722C39.1561 7.62285 38.4922 7.18026 37.7927 6.80089C34.4259 4.99891 30.7271 3.79759 27.0954 2.60417C26.3802 2.37893 26.6529 1.2922 27.4116 1.46608H27.4155Z" fill="#747474"/>
<path d="M34.2799 22.4536L38.0262 21.5922C39.2749 21.3077 40.5158 20.9955 41.7606 20.6991C42.294 20.5647 42.8354 20.8967 42.9619 21.4302C43.1002 22.0032 42.6971 22.5801 42.1122 22.6433C40.8358 22.7895 39.5594 22.9555 38.283 23.0899L34.4538 23.5008C33.7939 23.5641 33.6319 22.6038 34.276 22.4497L34.2799 22.4536Z" fill="#747474"/>
<path d="M38.2433 22.1849C38.2512 19.7072 38.2788 16.2574 38.2235 13.8191C38.1642 11.7524 38.101 9.6738 37.7414 7.64657C37.6347 7.09333 37.4806 6.36621 37.1644 5.95523C36.6902 5.46522 37.4055 4.74601 37.8955 5.22416C39.7923 7.39366 39.7093 14.9928 39.7765 18.004C39.7647 19.4148 39.733 20.8216 39.6421 22.2363C39.6184 22.6236 39.2826 22.916 38.8953 22.8883C38.5199 22.8646 38.2353 22.5485 38.2393 22.181L38.2433 22.1849Z" fill="#747474"/>
<path d="M13.8218 78.3033C13.8218 78.3033 14.6121 84.4995 13.8218 88.9096C13.8218 88.9096 16.9831 86.4833 17.7735 84.3691C17.7735 84.3691 15.7976 80.2791 13.8218 78.3033Z" stroke="#747474" stroke-width="2" stroke-linecap="round" stroke-linejoin="round"/>
<path d="M58.7528 28.6539C54.5442 28.1323 50.2843 27.8517 46.0322 27.8635C45.7951 27.8635 45.7635 27.5039 46.0045 27.4763C48.1306 27.2036 50.2724 27.006 52.4221 26.8796C54.5837 26.7531 56.7176 26.678 58.895 26.6859C59.4404 26.6859 59.883 27.1325 59.879 27.6818C59.879 28.2745 59.3376 28.7408 58.7528 28.6578V28.6539Z" fill="#747474"/>
<path d="M5 67C5 64.7909 6.79086 63 9 63H16C18.2091 63 20 64.7909 20 67V74C20 76.2091 18.2091 78 16 78H9C6.79086 78 5 76.2091 5 74V67Z" fill="url(#paint0_linear_198_117)"/>
<path d="M17.5666 69.0384L13.6823 69.038L13.682 65.4336C13.6823 64.7523 13.1297 64.2 12.4484 64.2C11.7673 64.2 11.215 64.7523 11.215 65.4336V69.0382L7.43381 69.038C6.7525 69.0382 6.2002 69.5905 6.2002 70.2716C6.20061 70.9529 6.7525 71.505 7.43381 71.505H11.215V75.5664C11.215 76.2483 11.7673 76.8 12.4486 76.8C13.1299 76.8 13.682 76.2477 13.6823 75.5668V71.505H17.567C18.2479 71.505 18.8002 70.9529 18.8002 70.2721C18.8008 69.5903 18.2479 69.038 17.5666 69.0384Z" fill="white"/>
<defs>
<linearGradient id="paint0_linear_198_117" x1="12.5" y1="63" x2="12.5" y2="78" gradientUnits="userSpaceOnUse">
<stop stop-color="#665492"/>
<stop offset="1" stop-color="#683D89"/>
</linearGradient>
</defs>
</svg>
