<svg width="50" height="93" viewBox="0 0 50 93" fill="none" xmlns="http://www.w3.org/2000/svg">
<path d="M48.6405 2.33362L46.8148 88.7537C46.8148 88.7537 11.8421 90.1368 1.62695 91.5199L5.45617 4.95361C5.45617 4.95361 8.088 1.43261 13.818 1.6223C19.548 1.81198 48.6405 2.33362 48.6405 2.33362V2.33362Z" fill="#FEFEFE" stroke="#747474" stroke-width="2" stroke-linecap="round" stroke-linejoin="round"/>
<path d="M12.1422 69.4456C11.9011 73.9901 11.7154 77.9694 11.4546 81.9409C11.4111 82.6009 11.2096 83.4031 10.7868 83.8615C10.1782 84.5135 9.28511 84.9047 8.51847 85.4105C8.24976 84.6202 7.82297 83.8377 7.74788 83.0276C7.61352 81.5774 7.48706 80.0836 9.05194 79.0957C9.37599 78.8942 9.39575 78.088 9.42736 77.5545C9.58148 75.0452 9.61704 72.52 9.86995 70.0226C9.93713 69.3389 10.605 68.7145 11.0001 68.0665C11.4822 68.6474 11.9644 69.2283 12.1461 69.4417L12.1422 69.4456Z" fill="#747474"/>
</svg>
