<svg width="14" height="21" viewBox="0 0 14 21" fill="none" xmlns="http://www.w3.org/2000/svg">
<path d="M1.23438 19.6727L11.9712 17.602L12.8366 1.61331C12.8366 1.61331 8.40278 7.28009 6.64032 10.2478C4.87785 13.2156 1.23438 19.6727 1.23438 19.6727Z" fill="#FEFEFE" stroke="#747474" stroke-width="2" stroke-linecap="round" stroke-linejoin="round"/>
<path d="M2 8C2 6.89543 2.89543 6 4 6H11C12.1046 6 13 6.89543 13 8V15C13 16.1046 12.1046 17 11 17H4C2.89543 17 2 16.1046 2 15V8Z" fill="url(#paint0_linear_198_115)"/>
<path d="M11.2157 10.4282L8.36721 10.4279L8.36706 7.78465C8.36721 7.28502 7.96203 6.88 7.46241 6.88C6.96294 6.88 6.55791 7.28502 6.55791 7.78465V10.428L3.78502 10.4279C3.2854 10.428 2.88037 10.8331 2.88037 11.3325C2.88068 11.8322 3.2854 12.237 3.78502 12.237H6.55791V15.2153C6.55791 15.7154 6.96294 16.12 7.46256 16.12C7.96219 16.12 8.36706 15.715 8.36721 15.2157V12.237H11.216C11.7153 12.237 12.1204 11.8322 12.1204 11.3328C12.1208 10.8329 11.7153 10.4279 11.2157 10.4282Z" fill="white"/>
<defs>
<linearGradient id="paint0_linear_198_115" x1="7.5" y1="6" x2="7.5" y2="17" gradientUnits="userSpaceOnUse">
<stop stop-color="#665492"/>
<stop offset="1" stop-color="#683D89"/>
</linearGradient>
</defs>
</svg>
