<svg width="50" height="93" viewBox="0 0 50 93" fill="none" xmlns="http://www.w3.org/2000/svg">
<path d="M48.6405 2.33362L46.8148 88.7537C46.8148 88.7537 11.8421 90.1368 1.62695 91.5199L5.45617 4.95361C5.45617 4.95361 8.088 1.43261 13.818 1.6223C19.548 1.81198 48.6405 2.33362 48.6405 2.33362Z" fill="#FEFEFE" stroke="#747474" stroke-width="2" stroke-linecap="round" stroke-linejoin="round"/>
<path d="M12.1422 69.4456C11.9011 73.9901 11.7154 77.9694 11.4546 81.9409C11.4111 82.6009 11.2096 83.4031 10.7868 83.8615C10.1782 84.5135 9.28511 84.9047 8.51847 85.4105C8.24976 84.6202 7.82297 83.8377 7.74788 83.0276C7.61352 81.5774 7.48706 80.0836 9.05194 79.0957C9.37599 78.8942 9.39575 78.088 9.42736 77.5545C9.58148 75.0452 9.61704 72.52 9.86995 70.0226C9.93713 69.3389 10.605 68.7145 11.0001 68.0665C11.4822 68.6474 11.9644 69.2283 12.1461 69.4417L12.1422 69.4456Z" fill="#747474"/>
<rect x="15" y="35" width="20" height="20" rx="5" fill="url(#paint0_linear_165_408)"/>
<path d="M31.7553 43.0513L26.5762 43.0507L26.5759 38.2448C26.5762 37.3364 25.8395 36.6 24.9311 36.6C24.0229 36.6 23.2865 37.3364 23.2865 38.2448V43.051L18.2449 43.0507C17.3365 43.051 16.6001 43.7874 16.6001 44.6955C16.6007 45.6039 17.3365 46.3401 18.2449 46.3401H23.2865V51.7552C23.2865 52.6644 24.0229 53.4 24.9314 53.4C25.8398 53.4 26.5759 52.6636 26.5762 51.7557V46.3401H31.7558C32.6637 46.3401 33.4001 45.6039 33.4001 44.6961C33.4009 43.7871 32.6637 43.0507 31.7553 43.0513Z" fill="white"/>
<defs>
<linearGradient id="paint0_linear_165_408" x1="25" y1="35" x2="25" y2="55" gradientUnits="userSpaceOnUse">
<stop stop-color="#665492"/>
<stop offset="1" stop-color="#683D89"/>
</linearGradient>
</defs>
</svg>
