<svg width="78" height="110" viewBox="0 0 78 110" fill="none" xmlns="http://www.w3.org/2000/svg">
<path d="M76.1372 68.9748L75.5721 92.7523C75.5721 92.7523 77.1883 103.568 67.558 105.536C57.9277 107.504 55.6633 108.907 53.4346 108.998C51.2097 109.085 47.3647 106.611 44.9423 106.07C42.516 105.528 29.0841 103.691 29.0841 103.691C29.0841 103.691 30.3368 106.334 26.3495 105.536C22.3622 104.738 18.5172 105.058 16.0908 106.674L1.02295 55.3414C1.02295 55.3414 4.33449 56.6257 9.71672 45.8572C13.2733 38.7441 14.1861 30.2322 14.1861 30.2322L18.8057 32.4214C18.8057 32.4214 21.967 34.0021 26.2072 30.6471C30.9848 26.8692 60.8954 1.11592 60.8954 1.11592L63.1795 9.74648C49.0639 12.0859 37.9873 23.4629 38.1651 38.7441C38.3667 55.9341 52.008 68.1844 68.5973 68.1844H76.2478L76.1372 68.9748Z" fill="#FEFEFE" stroke="#747474" stroke-width="2" stroke-linecap="round" stroke-linejoin="round"/>
<path d="M14.0677 102.782L18.0708 90.1007C18.2407 89.583 19.0192 89.7885 18.9085 90.3259L15.9763 103.295C15.6365 104.607 13.7002 104.09 14.0677 102.782Z" fill="#747474"/>
<path d="M20.7817 73.1241L21.1137 91.9698L21.1888 96.2851C21.1888 96.2851 19.9993 102.643 29.0843 103.691L33.0321 98.415C33.0321 98.415 32.6092 92.9064 31.1392 88.4054C30.6017 86.7575 29.926 85.244 29.0803 84.1889C25.919 80.2372 21.5721 74.7048 20.7817 73.1241V73.1241Z" stroke="#747474" stroke-width="2" stroke-linecap="round" stroke-linejoin="round"/>
<path d="M21.1099 91.9698C21.1099 91.9698 24.5044 86.6982 31.1393 88.4054" stroke="#747474" stroke-width="2" stroke-linecap="round" stroke-linejoin="round"/>
<path d="M24.6623 78.3483C24.4845 80.2728 24.3304 82.5054 24.8678 84.3351C25.0022 84.7619 25.2353 85.0899 25.3934 85.1333C26.164 85.5167 26.2904 82.6121 26.2549 82.1142C26.2549 81.2686 27.5076 81.233 27.551 82.0787C27.6222 83.7226 27.4127 87.2317 24.8915 86.4256C22.5284 85.4021 23.0658 80.3241 23.216 78.1823C23.3425 77.222 24.7611 77.384 24.6584 78.3522L24.6623 78.3483Z" fill="#747474"/>
<path d="M33.2611 97.4548C37.7186 98.8142 45.2901 101.561 46.851 106.378C47.0209 106.994 46.1239 107.291 45.8987 106.69C45.4956 105.548 44.5946 104.607 43.5948 103.821C40.465 101.509 36.5528 100.268 32.8027 99.3793C31.4828 99.0789 31.9412 97.1268 33.2611 97.4588V97.4548Z" fill="#747474"/>
<path d="M75.7226 92.3413C72.2056 94.4238 71.4943 99.1066 71.3323 102.865L71.3402 104.603V104.659C71.3165 105.959 69.3999 105.979 69.3604 104.671C69.7002 100.075 70.8581 93.7876 75.4618 91.6023C75.9637 91.4205 76.2284 92.1634 75.7226 92.3413Z" fill="#747474"/>
<path d="M67.0919 83.6435C67.3566 87.3147 67.5147 90.9977 67.6293 94.6767C67.7202 98.4071 67.9257 102.138 67.5147 105.86C67.4712 106.259 67.1116 106.552 66.7085 106.508C66.4319 106.469 66.1869 106.457 65.9577 106.398C63.6104 105.923 61.9309 103.742 61.6859 101.414C61.2987 98.4111 62.4328 93.918 66.266 93.7244C66.6453 93.6967 66.8113 94.2341 66.4872 94.4238C66.0328 94.7162 65.5902 94.9731 65.282 95.3485C64.1004 96.6447 63.9423 98.5415 63.9265 100.209C63.9068 102.28 64.875 104.145 66.8508 104.916L65.9419 105.702C65.44 100.193 65.8866 94.6688 66.0565 89.1522C66.1435 87.3107 66.2502 85.4732 66.3806 83.6357C66.4122 83.2207 67.0484 83.201 67.084 83.6357L67.0919 83.6435Z" fill="#747474"/>
<rect x="15" y="44" width="20" height="20" rx="5" fill="url(#paint0_linear_198_112)"/>
<path d="M31.7553 52.0513L26.5762 52.0507L26.5759 47.2448C26.5762 46.3364 25.8395 45.6 24.9311 45.6C24.0229 45.6 23.2865 46.3364 23.2865 47.2448V52.051L18.2449 52.0507C17.3365 52.051 16.6001 52.7874 16.6001 53.6955C16.6007 54.6039 17.3365 55.3401 18.2449 55.3401H23.2865V60.7552C23.2865 61.6644 24.0229 62.4 24.9314 62.4C25.8398 62.4 26.5759 61.6636 26.5762 60.7557V55.3401H31.7558C32.6637 55.3401 33.4001 54.6039 33.4001 53.6961C33.4009 52.7871 32.6637 52.0507 31.7553 52.0513Z" fill="white"/>
<defs>
<linearGradient id="paint0_linear_198_112" x1="25" y1="44" x2="25" y2="64" gradientUnits="userSpaceOnUse">
<stop stop-color="#665492"/>
<stop offset="1" stop-color="#683D89"/>
</linearGradient>
</defs>
</svg>
