<svg width="55" height="88" viewBox="0 0 55 88" fill="none" xmlns="http://www.w3.org/2000/svg">
<path d="M53.6806 1.73308L52.2343 37.2985C52.2343 37.2985 52.4318 47.7469 46.034 54.856C38.9604 62.712 11.8833 84.6282 11.8833 84.6282C11.8833 84.6282 9.45693 87.4063 5.75418 85.4581C2.05142 83.5099 1.65625 83.1147 1.65625 83.1147C1.65625 83.1147 7.69841 24.5937 8.63101 4.45975C8.63101 4.45975 39 1.51176 53.6845 1.73701L53.6806 1.73308Z" fill="#FEFEFE" stroke="#747474" stroke-width="2" stroke-linecap="round" stroke-linejoin="round"/>
<path d="M15.0646 61.3961C14.8235 65.9405 14.6378 69.9199 14.377 73.8914C14.3335 74.5513 14.132 75.3535 13.7091 75.8119C13.1006 76.464 12.2075 76.8552 11.4408 77.361C11.1721 76.5706 10.7453 75.7882 10.6702 74.9781C10.5359 73.5278 10.4094 72.0341 11.9743 71.0462C12.2983 70.8446 12.3181 70.0385 12.3497 69.505C12.5038 66.9957 12.5394 64.4705 12.7923 61.973C12.8595 61.2894 13.5273 60.665 13.9225 60.0169C14.4046 60.5978 14.8867 61.1787 15.0685 61.3921L15.0646 61.3961Z" fill="#747474"/>
<rect x="20" y="24" width="20" height="20" rx="5" fill="url(#paint0_linear_165_413)"/>
<path d="M36.7553 32.0513L31.5762 32.0507L31.5759 27.2448C31.5762 26.3364 30.8395 25.6 29.9311 25.6C29.0229 25.6 28.2865 26.3364 28.2865 27.2448V32.051L23.2449 32.0507C22.3365 32.051 21.6001 32.7874 21.6001 33.6955C21.6007 34.6039 22.3365 35.3401 23.2449 35.3401H28.2865V40.7552C28.2865 41.6644 29.0229 42.4 29.9314 42.4C30.8398 42.4 31.5759 41.6636 31.5762 40.7557V35.3401H36.7558C37.6637 35.3401 38.4001 34.6039 38.4001 33.6961C38.4009 32.7871 37.6637 32.0507 36.7553 32.0513Z" fill="white"/>
<defs>
<linearGradient id="paint0_linear_165_413" x1="30" y1="24" x2="30" y2="44" gradientUnits="userSpaceOnUse">
<stop stop-color="#665492"/>
<stop offset="1" stop-color="#683D89"/>
</linearGradient>
</defs>
</svg>
