<svg width="18" height="32" viewBox="0 0 18 32" fill="none" xmlns="http://www.w3.org/2000/svg">
<path d="M16.3923 1.30612L1.69189 4.51491L8.5244 30.9874C8.5244 30.9874 11.5672 28.7824 12.8515 21.2188C14.1358 13.6552 16.3923 1.30612 16.3923 1.30612Z" fill="#FEFEFE" stroke="#747474" stroke-width="2" stroke-linecap="round" stroke-linejoin="round"/>
<path d="M1 8C1 5.79086 2.79086 4 5 4H12C14.2091 4 16 5.79086 16 8V15C16 17.2091 14.2091 19 12 19H5C2.79086 19 1 17.2091 1 15V8Z" fill="url(#paint0_linear_198_116)"/>
<path d="M13.5666 10.0384L9.68225 10.038L9.68205 6.43361C9.68225 5.75231 9.12974 5.2 8.44843 5.2C7.76733 5.2 7.21502 5.75231 7.21502 6.43361V10.0382L3.43381 10.038C2.7525 10.0382 2.2002 10.5905 2.2002 11.2716C2.20061 11.9529 2.7525 12.505 3.43381 12.505H7.21502V16.5664C7.21502 17.2483 7.76733 17.8 8.44864 17.8C9.12994 17.8 9.68204 17.2477 9.68225 16.5668V12.505H13.567C14.2479 12.505 14.8002 11.9529 14.8002 11.2721C14.8008 10.5903 14.2479 10.038 13.5666 10.0384Z" fill="white"/>
<defs>
<linearGradient id="paint0_linear_198_116" x1="8.5" y1="4" x2="8.5" y2="19" gradientUnits="userSpaceOnUse">
<stop stop-color="#665492"/>
<stop offset="1" stop-color="#683D89"/>
</linearGradient>
</defs>
</svg>
