<svg width="30" height="67" viewBox="0 0 30 67" fill="none" xmlns="http://www.w3.org/2000/svg">
<path d="M28.6599 1.78249C28.6599 1.78249 24.8149 52.5857 23.6649 61.9671L7.74745 65.1917C7.74745 65.1917 0.385387 40.9203 1.04137 9.27099L28.6599 1.78249Z" fill="#FEFEFE" stroke="#747474" stroke-width="2" stroke-linecap="round" stroke-linejoin="round"/>
<rect x="3" y="17" width="20" height="20" rx="5" fill="url(#paint0_linear_198_111)"/>
<path d="M19.7553 25.0513L14.5762 25.0507L14.5759 20.2448C14.5762 19.3364 13.8395 18.6 12.9311 18.6C12.0229 18.6 11.2865 19.3364 11.2865 20.2448V25.051L6.24492 25.0507C5.33651 25.051 4.6001 25.7874 4.6001 26.6955C4.60065 27.6039 5.33651 28.3401 6.24492 28.3401H11.2865V33.7552C11.2865 34.6644 12.0229 35.4 12.9314 35.4C13.8398 35.4 14.5759 34.6636 14.5762 33.7557V28.3401H19.7558C20.6637 28.3401 21.4001 27.6039 21.4001 26.6961C21.4009 25.7871 20.6637 25.0507 19.7553 25.0513Z" fill="white"/>
<defs>
<linearGradient id="paint0_linear_198_111" x1="13" y1="17" x2="13" y2="37" gradientUnits="userSpaceOnUse">
<stop stop-color="#665492"/>
<stop offset="1" stop-color="#683D89"/>
</linearGradient>
</defs>
</svg>
