<svg width="55" height="88" viewBox="0 0 55 88" fill="none" xmlns="http://www.w3.org/2000/svg">
<path d="M53.6806 1.73308L52.2343 37.2985C52.2343 37.2985 52.4318 47.7469 46.034 54.856C38.9604 62.712 11.8833 84.6282 11.8833 84.6282C11.8833 84.6282 9.45693 87.4063 5.75418 85.4581C2.05142 83.5099 1.65625 83.1147 1.65625 83.1147C1.65625 83.1147 7.69841 24.5937 8.63101 4.45975C8.63101 4.45975 39 1.51176 53.6845 1.73701L53.6806 1.73308Z" fill="#FEFEFE" stroke="#747474" stroke-width="2" stroke-linecap="round" stroke-linejoin="round"/>
<path d="M15.0646 61.3961C14.8235 65.9405 14.6378 69.9199 14.377 73.8914C14.3335 74.5513 14.132 75.3535 13.7091 75.8119C13.1006 76.464 12.2075 76.8552 11.4408 77.361C11.1721 76.5706 10.7453 75.7882 10.6702 74.9781C10.5359 73.5278 10.4094 72.0341 11.9743 71.0462C12.2983 70.8446 12.3181 70.0385 12.3497 69.505C12.5038 66.9957 12.5394 64.4705 12.7923 61.973C12.8595 61.2894 13.5273 60.665 13.9225 60.0169C14.4046 60.5978 14.8867 61.1787 15.0685 61.3921L15.0646 61.3961Z" fill="#747474"/>
</svg>
