<svg width="22" height="172" viewBox="0 0 22 172" fill="none" xmlns="http://www.w3.org/2000/svg">
<path d="M1.50684 159.887L4.46669 170.984C4.46669 170.984 13.6939 170.514 15.2746 170.514L16.2507 1.7081L9.15342 1.90964L6.60851 146.483C6.60851 146.483 6.3872 154.114 1.50684 159.887Z" fill="#FEFEFE" stroke="#747474" stroke-width="2" stroke-linecap="round" stroke-linejoin="round"/>
<path d="M7 87C7 84.7909 8.79086 83 11 83H18C20.2091 83 22 84.7909 22 87V94C22 96.2091 20.2091 98 18 98H11C8.79086 98 7 96.2091 7 94V87Z" fill="url(#paint0_linear_198_114)"/>
<path d="M19.5666 89.0384L15.6823 89.038L15.682 85.4336C15.6823 84.7523 15.1297 84.2 14.4484 84.2C13.7673 84.2 13.215 84.7523 13.215 85.4336V89.0382L9.43381 89.038C8.7525 89.0382 8.2002 89.5905 8.2002 90.2716C8.20061 90.9529 8.7525 91.505 9.43381 91.505H13.215V95.5664C13.215 96.2483 13.7673 96.8 14.4486 96.8C15.1299 96.8 15.682 96.2477 15.6823 95.5668V91.505H19.567C20.2479 91.505 20.8002 90.9529 20.8002 90.2721C20.8008 89.5903 20.2479 89.038 19.5666 89.0384Z" fill="white"/>
<defs>
<linearGradient id="paint0_linear_198_114" x1="14.5" y1="83" x2="14.5" y2="98" gradientUnits="userSpaceOnUse">
<stop stop-color="#665492"/>
<stop offset="1" stop-color="#683D89"/>
</linearGradient>
</defs>
</svg>
