<svg width="61" height="54" viewBox="0 0 61 54" fill="none" xmlns="http://www.w3.org/2000/svg">
<ellipse cx="26.5547" cy="26.5761" rx="22" ry="22.5" stroke="white" stroke-width="6"/>
<path d="M26.6741 1.97586C40.2917 1.97586 51.3723 13.0564 51.3723 26.6741C51.3723 40.2917 40.2917 51.3723 26.6741 51.3723C13.0565 51.3723 1.97586 40.2917 1.97586 26.6741C1.97586 13.0564 13.0565 1.97586 26.6741 1.97586ZM26.6741 0C11.9421 0 0 11.9421 0 26.6741C0 41.406 11.9421 53.3481 26.6741 53.3481C41.4061 53.3481 53.3482 41.406 53.3482 26.6741C53.3482 11.9421 41.4061 0 26.6741 0Z" fill="#747474"/>
<path d="M26.4961 7.73743C36.8891 7.73743 45.3418 16.1902 45.3418 26.5832C45.3418 36.9762 36.8891 45.4289 26.4961 45.4289C16.1031 45.4289 7.65036 36.9762 7.65036 26.5832C7.65036 16.1902 16.1031 7.73743 26.4961 7.73743ZM26.4961 6.55192C15.4313 6.55192 6.46484 15.5184 6.46484 26.5832C6.46484 37.648 15.4352 46.6144 26.4961 46.6144C37.5569 46.6144 46.5273 37.644 46.5273 26.5832C46.5273 15.5223 37.5569 6.55192 26.4961 6.55192Z" fill="#747474"/>
<path d="M50 23C50 21.8954 50.8954 21 52 21H59C60.1046 21 61 21.8954 61 23V30C61 31.1046 60.1046 32 59 32H52C50.8954 32 50 31.1046 50 30V23Z" fill="url(#paint0_linear_198_113)"/>
<path d="M59.2157 25.4282L56.3672 25.4279L56.3671 22.7846C56.3672 22.285 55.962 21.88 55.4624 21.88C54.9629 21.88 54.5579 22.285 54.5579 22.7846V25.428L51.785 25.4279C51.2854 25.428 50.8804 25.8331 50.8804 26.3325C50.8807 26.8322 51.2854 27.237 51.785 27.237H54.5579V30.2153C54.5579 30.7154 54.9629 31.12 55.4626 31.12C55.9622 31.12 56.3671 30.715 56.3672 30.2157V27.237H59.216C59.7153 27.237 60.1204 26.8322 60.1204 26.3328C60.1208 25.8329 59.7153 25.4279 59.2157 25.4282Z" fill="white"/>
<defs>
<linearGradient id="paint0_linear_198_113" x1="55.5" y1="21" x2="55.5" y2="32" gradientUnits="userSpaceOnUse">
<stop stop-color="#665492"/>
<stop offset="1" stop-color="#683D89"/>
</linearGradient>
</defs>
</svg>
