<svg width="54" height="54" viewBox="0 0 54 54" fill="none" xmlns="http://www.w3.org/2000/svg">
<ellipse cx="26.5547" cy="26.5761" rx="22" ry="22.5" stroke="white" stroke-width="6"/>
<path d="M26.6741 1.97586C40.2917 1.97586 51.3723 13.0564 51.3723 26.6741C51.3723 40.2917 40.2917 51.3723 26.6741 51.3723C13.0565 51.3723 1.97586 40.2917 1.97586 26.6741C1.97586 13.0564 13.0565 1.97586 26.6741 1.97586M26.6741 0C11.9421 0 0 11.9421 0 26.6741C0 41.406 11.9421 53.3481 26.6741 53.3481C41.4061 53.3481 53.3482 41.406 53.3482 26.6741C53.3482 11.9421 41.4061 0 26.6741 0Z" fill="#747474"/>
<path d="M26.4963 7.73743C36.8893 7.73743 45.3421 16.1902 45.3421 26.5832C45.3421 36.9762 36.8893 45.4289 26.4963 45.4289C16.1033 45.4289 7.6506 36.9762 7.6506 26.5832C7.6506 16.1902 16.1033 7.73743 26.4963 7.73743M26.4963 6.55192C15.4315 6.55192 6.46509 15.5184 6.46509 26.5832C6.46509 37.648 15.4355 46.6144 26.4963 46.6144C37.5572 46.6144 46.5276 37.644 46.5276 26.5832C46.5276 15.5223 37.5572 6.55192 26.4963 6.55192Z" fill="#747474"/>
</svg>
