<svg width="55" height="54" viewBox="0 0 55 54" fill="none" xmlns="http://www.w3.org/2000/svg">
<ellipse cx="26.5547" cy="26.5761" rx="22" ry="22.5" stroke="white" stroke-width="6"/>
<path d="M26.6741 1.97586C40.2917 1.97586 51.3723 13.0564 51.3723 26.6741C51.3723 40.2917 40.2917 51.3723 26.6741 51.3723C13.0565 51.3723 1.97586 40.2917 1.97586 26.6741C1.97586 13.0564 13.0565 1.97586 26.6741 1.97586ZM26.6741 0C11.9421 0 0 11.9421 0 26.6741C0 41.406 11.9421 53.3481 26.6741 53.3481C41.4061 53.3481 53.3482 41.406 53.3482 26.6741C53.3482 11.9421 41.4061 0 26.6741 0Z" fill="#747474"/>
<path d="M26.4961 7.73743C36.8891 7.73743 45.3418 16.1902 45.3418 26.5832C45.3418 36.9762 36.8891 45.4289 26.4961 45.4289C16.1031 45.4289 7.65036 36.9762 7.65036 26.5832C7.65036 16.1902 16.1031 7.73743 26.4961 7.73743ZM26.4961 6.55192C15.4313 6.55192 6.46484 15.5184 6.46484 26.5832C6.46484 37.648 15.4352 46.6144 26.4961 46.6144C37.5569 46.6144 46.5273 37.644 46.5273 26.5832C46.5273 15.5223 37.5569 6.55192 26.4961 6.55192Z" fill="#747474"/>
<path d="M44 23C44 21.8954 44.8954 21 46 21H53C54.1046 21 55 21.8954 55 23V30C55 31.1046 54.1046 32 53 32H46C44.8954 32 44 31.1046 44 30V23Z" fill="url(#paint0_linear_198_113)"/>
<path d="M53.2157 25.4282L50.3672 25.4279L50.3671 22.7846C50.3672 22.285 49.962 21.88 49.4624 21.88C48.9629 21.88 48.5579 22.285 48.5579 22.7846V25.428L45.785 25.4279C45.2854 25.428 44.8804 25.8331 44.8804 26.3325C44.8807 26.8322 45.2854 27.237 45.785 27.237H48.5579V30.2153C48.5579 30.7154 48.9629 31.12 49.4626 31.12C49.9622 31.12 50.3671 30.715 50.3672 30.2157V27.237H53.216C53.7153 27.237 54.1204 26.8322 54.1204 26.3328C54.1208 25.8329 53.7153 25.4279 53.2157 25.4282Z" fill="white"/>
<defs>
<linearGradient id="paint0_linear_198_113" x1="49.5" y1="21" x2="49.5" y2="32" gradientUnits="userSpaceOnUse">
<stop stop-color="#665492"/>
<stop offset="1" stop-color="#683D89"/>
</linearGradient>
</defs>
</svg>
