<svg width="135" height="186" viewBox="0 0 135 186" fill="none" xmlns="http://www.w3.org/2000/svg">
<path fill-rule="evenodd" clip-rule="evenodd" d="M7.5 147.5C6.5 126.5 7 93 10 86C11 85.8333 13 84.9 13 82.5C13 82.1632 13.0063 81.8263 13.0125 81.493C13.0619 78.8578 13.107 76.4439 10 76C6.5 75.5 11.5 7 16.5 3C14.5 26 13.7 73.1 16.5 79.5V83.5C14 97 8.7 128.7 7.5 147.5ZM127 147.5C128 126.5 127.5 93 124.5 86C123.5 85.8333 121.5 84.9 121.5 82.5C121.5 82.1632 121.494 81.8263 121.487 81.493C121.438 78.8578 121.393 76.4439 124.5 76C128 75.5 125.5 8 120.5 4C120.833 26.5 120.8 73.1 118 79.5V83.5C120.5 97 125.8 128.7 127 147.5Z" fill="white"/>
<path d="M10 86L9.8356 85.0136L9.29625 85.1035L9.08085 85.6061L10 86ZM7.5 147.5L6.50113 147.548L8.49797 147.564L7.5 147.5ZM13.0125 81.493L12.0127 81.4743L12.0127 81.4743L13.0125 81.493ZM10 76L10.1414 75.0101L10.1414 75.0101L10 76ZM16.5 3L17.4962 3.08663L17.6985 0.76057L15.8753 2.21913L16.5 3ZM16.5 79.5H17.5V79.2908L17.4162 79.0992L16.5 79.5ZM16.5 83.5L17.4833 83.6821L17.5 83.5918V83.5H16.5ZM124.5 86L125.419 85.6061L125.204 85.1035L124.664 85.0136L124.5 86ZM127 147.5L126.002 147.564L127.999 147.548L127 147.5ZM121.487 81.493L122.487 81.4743L122.487 81.4743L121.487 81.493ZM124.5 76L124.359 75.0101L124.359 75.0101L124.5 76ZM120.5 4L121.125 3.21913L119.469 1.89433L119.5 4.01481L120.5 4ZM118 79.5L117.084 79.0992L117 79.2908V79.5H118ZM118 83.5H117V83.5918L117.017 83.6821L118 83.5ZM69 166.5L69.0351 165.501L69 165.499L68.9649 165.501L69 166.5ZM131 21.5L131.998 21.4356L131.998 21.4356L131 21.5ZM69 185L68.9915 186L69 186L69.0085 186L69 185ZM3.5 21.5L2.50207 21.4356L2.50207 21.4356L3.5 21.5ZM9.08085 85.6061C8.26185 87.5171 7.65961 91.0725 7.20826 95.5081C6.75189 99.9932 6.43839 105.519 6.2505 111.468C5.87468 123.369 5.99985 137.021 6.50113 147.548L8.49887 147.452C8.00015 136.979 7.87532 123.381 8.2495 111.532C8.43661 105.606 8.74811 100.132 9.19799 95.7106C9.65289 91.24 10.2382 87.9829 10.9191 86.3939L9.08085 85.6061ZM12 82.5C12 83.3843 11.6458 83.9543 11.2116 84.3393C10.7477 84.7506 10.1791 84.9563 9.8356 85.0136L10.1644 86.9864C10.8209 86.877 11.7523 86.5328 12.5384 85.8357C13.3542 85.1124 14 84.0157 14 82.5H12ZM12.0127 81.4743C12.0065 81.8061 12 82.1523 12 82.5H14C14 82.1741 14.0061 81.8466 14.0124 81.5117L12.0127 81.4743ZM9.85858 76.9899C10.5101 77.083 10.9169 77.2677 11.1814 77.4697C11.4398 77.6671 11.6225 77.9267 11.7537 78.2761C12.0433 79.0478 12.0385 80.0946 12.0127 81.4743L14.0124 81.5117C14.0359 80.2562 14.0784 78.7785 13.6261 77.5734C13.3864 76.9345 13.0008 76.3427 12.3954 75.8803C11.7961 75.4225 11.0434 75.1389 10.1414 75.0101L9.85858 76.9899ZM15.8753 2.21913C15.3571 2.63366 14.9653 3.33612 14.646 4.07832C14.3092 4.86124 13.9864 5.85308 13.6761 7.00436C13.0544 9.31029 12.4562 12.3554 11.8953 15.8657C10.7727 22.8922 9.78574 31.873 9.06579 40.7315C8.34582 49.5902 7.89093 58.3503 7.83597 64.937C7.80854 68.2252 7.88042 70.9993 8.07408 72.981C8.17016 73.9643 8.30051 74.8011 8.48118 75.4214C8.57019 75.7269 8.68765 76.0384 8.85589 76.2996C9.01297 76.5434 9.32733 76.9141 9.85858 76.9899L10.1414 75.0101C10.4539 75.0547 10.5661 75.2613 10.5371 75.2163C10.5193 75.1887 10.4668 75.0867 10.4014 74.8621C10.2732 74.422 10.157 73.732 10.0646 72.7865C9.8813 70.9109 9.80865 68.2202 9.8359 64.9537C9.89032 58.4309 10.3417 49.7223 11.0592 40.8935C11.7768 32.0645 12.7586 23.139 13.8703 16.1812C14.4266 12.6993 15.012 9.73268 15.6071 7.52494C15.9052 6.41938 16.1992 5.52889 16.4832 4.86871C16.7847 4.16778 17.0179 3.86634 17.1247 3.78087L15.8753 2.21913ZM17.4162 79.0992C17.1308 78.447 16.849 77.1438 16.6064 75.1952C16.3684 73.2838 16.1794 70.856 16.0362 68.0307C15.7501 62.3822 15.65 55.1968 15.7 47.4815C15.7999 32.0492 16.4992 14.5522 17.4962 3.08663L15.5038 2.91337C14.5008 14.4478 13.8001 32.0008 13.7 47.4685C13.65 55.2032 13.7499 62.4303 14.0388 68.1318C14.1831 70.9815 14.3753 73.4631 14.6217 75.4423C14.8635 77.3843 15.1692 78.953 15.5838 79.9008L17.4162 79.0992ZM17.5 83.5V79.5H15.5V83.5H17.5ZM8.49797 147.564C9.69376 128.83 14.9832 97.1825 17.4833 83.6821L15.5167 83.3179C13.0168 96.8175 7.70624 128.57 6.50203 147.436L8.49797 147.564ZM123.581 86.3939C124.262 87.9829 124.847 91.24 125.302 95.7106C125.752 100.132 126.063 105.606 126.25 111.532C126.625 123.381 126.5 136.979 126.001 147.452L127.999 147.548C128.5 137.021 128.625 123.369 128.25 111.468C128.062 105.519 127.748 99.9932 127.292 95.5081C126.84 91.0725 126.238 87.5171 125.419 85.6061L123.581 86.3939ZM120.5 82.5C120.5 84.0157 121.146 85.1124 121.962 85.8357C122.748 86.5328 123.679 86.877 124.336 86.9864L124.664 85.0136C124.321 84.9563 123.752 84.7506 123.288 84.3393C122.854 83.9543 122.5 83.3843 122.5 82.5H120.5ZM120.488 81.5117C120.494 81.8466 120.5 82.1741 120.5 82.5H122.5C122.5 82.1523 122.493 81.8061 122.487 81.4743L120.488 81.5117ZM124.359 75.0101C123.457 75.1389 122.704 75.4225 122.105 75.8803C121.499 76.3427 121.114 76.9345 120.874 77.5734C120.422 78.7785 120.464 80.2562 120.488 81.5117L122.487 81.4743C122.461 80.0946 122.457 79.0478 122.746 78.2761C122.877 77.9267 123.06 77.6671 123.319 77.4697C123.583 77.2677 123.99 77.083 124.641 76.9899L124.359 75.0101ZM119.875 4.78087C119.976 4.86113 120.2 5.15117 120.482 5.84083C120.747 6.48995 121.015 7.36663 121.279 8.4571C121.807 10.6345 122.295 13.5598 122.735 16.9941C123.613 23.8564 124.283 32.6555 124.689 41.359C125.094 50.0621 125.234 58.6453 125.055 65.0738C124.966 68.2931 124.797 70.9446 124.547 72.7929C124.421 73.7243 124.281 74.4047 124.137 74.8393C124.064 75.0606 124.007 75.1639 123.986 75.1951C123.952 75.244 124.061 75.0526 124.359 75.0101L124.641 76.9899C125.158 76.9161 125.473 76.5626 125.635 76.3265C125.809 76.0727 125.937 75.7682 126.036 75.4667C126.238 74.8556 126.398 74.0306 126.529 73.0606C126.793 71.1062 126.964 68.371 127.054 65.1294C127.235 58.636 127.093 50.0004 126.686 41.266C126.279 32.532 125.606 23.6749 124.718 16.7402C124.275 13.2762 123.776 10.2678 123.223 7.98626C122.947 6.84724 122.652 5.86308 122.333 5.08373C122.031 4.34493 121.649 3.63887 121.125 3.21913L119.875 4.78087ZM118.916 79.9008C119.328 78.9603 119.648 77.4063 119.915 75.4788C120.188 73.5162 120.42 71.0578 120.616 68.2367C121.01 62.5926 121.266 55.4459 121.425 47.8082C121.742 32.5303 121.667 15.2428 121.5 3.98519L119.5 4.01481C119.667 15.2572 119.742 32.5197 119.425 47.7668C119.267 55.3916 119.011 62.5011 118.621 68.0977C118.426 70.8969 118.198 73.3049 117.935 75.2036C117.666 77.1375 117.372 78.4397 117.084 79.0992L118.916 79.9008ZM119 83.5V79.5H117V83.5H119ZM127.998 147.436C126.794 128.57 121.483 96.8175 118.983 83.3179L117.017 83.6821C119.517 97.1825 124.806 128.83 126.002 147.564L127.998 147.436ZM68.9649 167.499C78.5152 167.834 92.9084 167.284 105.047 164.525C111.11 163.147 116.686 161.201 120.821 158.486C124.966 155.764 127.778 152.182 127.999 147.548L126.001 147.452C125.822 151.218 123.559 154.295 119.723 156.814C115.876 159.34 110.565 161.22 104.603 162.575C92.6916 165.282 78.4848 165.832 69.0351 165.501L68.9649 167.499ZM120.294 4.97855C122.937 5.53494 129.225 9.51971 130.002 21.5644L131.998 21.4356C131.175 8.68029 124.397 3.7984 120.706 3.02145L120.294 4.97855ZM130.002 21.5644C131 37.0327 131.5 70.0079 131.5 74.5H133.5C133.5 69.9921 133 36.9673 131.998 21.4356L130.002 21.5644ZM131.5 74.5V147.5H133.5V74.5H131.5ZM131.5 147.5C131.5 154.135 130.396 163.035 122.207 170.381C113.974 177.766 98.3953 183.751 68.9915 184L69.0085 186C98.6047 185.749 114.776 179.734 123.543 171.869C132.354 163.965 133.5 154.365 133.5 147.5H131.5ZM68.9649 165.501C59.5163 165.832 44.4279 165.283 31.6323 162.572C25.2277 161.215 19.4727 159.331 15.2938 156.795C11.1133 154.258 8.67636 151.18 8.49887 147.452L6.50113 147.548C6.72364 152.22 9.79923 155.8 14.2562 158.505C18.7148 161.211 24.7223 163.152 31.2177 164.528C44.2221 167.284 59.4837 167.835 69.0351 167.499L68.9649 165.501ZM16.294 2.02145C14.4664 2.40621 11.2409 4.06166 8.37679 7.1727C5.48237 10.3167 2.91814 14.9866 2.50207 21.4356L4.49793 21.5644C4.88186 15.6134 7.23429 11.3666 9.84821 8.5273C12.4925 5.65501 15.3669 4.26046 16.706 3.97855L16.294 2.02145ZM2.50207 21.4356C1.50003 36.9673 1 69.9921 1 74.5H3C3 70.0079 3.49997 37.0327 4.49793 21.5644L2.50207 21.4356ZM1 74.5V147.5H3V74.5H1ZM1 147.5C1 154.461 3.0736 164.036 12.744 171.901C22.3707 179.73 39.3863 185.749 68.9915 186L69.0085 184C39.6137 183.751 23.1293 177.77 14.006 170.349C4.9264 162.964 3 154.039 3 147.5H1Z" fill="#747474"/>
<path d="M58 168C58 166.343 59.3431 165 61 165H75C76.6569 165 78 166.343 78 168V182C78 183.657 76.6569 185 75 185H61C59.3431 185 58 183.657 58 182V168Z" fill="url(#paint0_linear_226_52)"/>
<path d="M74.7553 173.051L69.5762 173.051L69.5759 168.245C69.5762 167.336 68.8395 166.6 67.9311 166.6C67.0229 166.6 66.2865 167.336 66.2865 168.245V173.051L61.2449 173.051C60.3365 173.051 59.6001 173.787 59.6001 174.696C59.6007 175.604 60.3365 176.34 61.2449 176.34H66.2865V181.755C66.2865 182.664 67.0229 183.4 67.9314 183.4C68.8398 183.4 69.5759 182.664 69.5762 181.756V176.34H74.7558C75.6637 176.34 76.4001 175.604 76.4001 174.696C76.4009 173.787 75.6637 173.051 74.7553 173.051Z" fill="white"/>
<path d="M0 99C0 97.3431 1.34315 96 3 96H10C11.6569 96 13 97.3431 13 99V106C13 107.657 11.6569 109 10 109H3C1.34315 109 0 107.657 0 106V99Z" fill="url(#paint1_linear_226_52)"/>
<path d="M10.8909 101.233L7.52449 101.233L7.52431 98.1091C7.52449 97.5187 7.04564 97.04 6.45517 97.04C5.86489 97.04 5.38622 97.5187 5.38622 98.1091V101.233L2.10917 101.233C1.51871 101.233 1.04004 101.712 1.04004 102.302C1.0404 102.893 1.51871 103.371 2.10917 103.371H5.38622V106.891C5.38622 107.482 5.86489 107.96 6.45536 107.96C7.04582 107.96 7.52431 107.481 7.52449 106.891V103.371H10.8913C11.4814 103.371 11.96 102.893 11.96 102.302C11.9606 101.712 11.4814 101.233 10.8909 101.233Z" fill="white"/>
<path d="M0 38C0 36.3431 1.34315 35 3 35H10C11.6569 35 13 36.3431 13 38V45C13 46.6569 11.6569 48 10 48H3C1.34315 48 0 46.6569 0 45V38Z" fill="url(#paint2_linear_226_52)"/>
<path d="M10.8909 40.2333L7.52449 40.233L7.52431 37.1091C7.52449 36.5187 7.04564 36.04 6.45517 36.04C5.86489 36.04 5.38622 36.5187 5.38622 37.1091V40.2331L2.10917 40.233C1.51871 40.2331 1.04004 40.7118 1.04004 41.3021C1.0404 41.8926 1.51871 42.371 2.10917 42.371H5.38622V45.8909C5.38622 46.4819 5.86489 46.96 6.45536 46.96C7.04582 46.96 7.52431 46.4813 7.52449 45.8912V42.371H10.8913C11.4814 42.371 11.96 41.8926 11.96 41.3025C11.9606 40.7116 11.4814 40.233 10.8909 40.2333Z" fill="white"/>
<path d="M122 38C122 36.3431 123.343 35 125 35H132C133.657 35 135 36.3431 135 38V45C135 46.6569 133.657 48 132 48H125C123.343 48 122 46.6569 122 45V38Z" fill="url(#paint3_linear_226_52)"/>
<path d="M132.891 40.2333L129.524 40.233L129.524 37.1091C129.524 36.5187 129.046 36.04 128.455 36.04C127.865 36.04 127.386 36.5187 127.386 37.1091V40.2331L124.109 40.233C123.519 40.2331 123.04 40.7118 123.04 41.3021C123.04 41.8926 123.519 42.371 124.109 42.371H127.386V45.8909C127.386 46.4819 127.865 46.96 128.455 46.96C129.046 46.96 129.524 46.4813 129.524 45.8912V42.371H132.891C133.481 42.371 133.96 41.8926 133.96 41.3025C133.961 40.7116 133.481 40.233 132.891 40.2333Z" fill="white"/>
<path d="M122 99C122 97.3431 123.343 96 125 96H132C133.657 96 135 97.3431 135 99V106C135 107.657 133.657 109 132 109H125C123.343 109 122 107.657 122 106V99Z" fill="url(#paint4_linear_226_52)"/>
<path d="M132.891 101.233L129.524 101.233L129.524 98.1091C129.524 97.5187 129.046 97.04 128.455 97.04C127.865 97.04 127.386 97.5187 127.386 98.1091V101.233L124.109 101.233C123.519 101.233 123.04 101.712 123.04 102.302C123.04 102.893 123.519 103.371 124.109 103.371H127.386V106.891C127.386 107.482 127.865 107.96 128.455 107.96C129.046 107.96 129.524 107.481 129.524 106.891V103.371H132.891C133.481 103.371 133.96 102.893 133.96 102.302C133.961 101.712 133.481 101.233 132.891 101.233Z" fill="white"/>
<defs>
<linearGradient id="paint0_linear_226_52" x1="68" y1="165" x2="68" y2="185" gradientUnits="userSpaceOnUse">
<stop stop-color="#665492"/>
<stop offset="1" stop-color="#683D89"/>
</linearGradient>
<linearGradient id="paint1_linear_226_52" x1="6.5" y1="96" x2="6.5" y2="109" gradientUnits="userSpaceOnUse">
<stop stop-color="#665492"/>
<stop offset="1" stop-color="#683D89"/>
</linearGradient>
<linearGradient id="paint2_linear_226_52" x1="6.5" y1="35" x2="6.5" y2="48" gradientUnits="userSpaceOnUse">
<stop stop-color="#665492"/>
<stop offset="1" stop-color="#683D89"/>
</linearGradient>
<linearGradient id="paint3_linear_226_52" x1="128.5" y1="35" x2="128.5" y2="48" gradientUnits="userSpaceOnUse">
<stop stop-color="#665492"/>
<stop offset="1" stop-color="#683D89"/>
</linearGradient>
<linearGradient id="paint4_linear_226_52" x1="128.5" y1="96" x2="128.5" y2="109" gradientUnits="userSpaceOnUse">
<stop stop-color="#665492"/>
<stop offset="1" stop-color="#683D89"/>
</linearGradient>
</defs>
</svg>
