<svg width="44" height="62" viewBox="0 0 44 62" fill="none" xmlns="http://www.w3.org/2000/svg">
<path d="M33.0806 36.8092C33.0806 36.8092 48.776 23.4124 36.7482 4.81474C36.3849 4.25001 36.7482 4.43317 36.7482 4.43317" stroke="#747474" stroke-width="2" stroke-linecap="round" stroke-linejoin="round"/>
<path d="M6.51611 2.99849C6.51611 2.99849 20.3261 -0.0540579 36.7519 2.99849C36.7519 2.99849 32.1779 19.7264 33.1149 37.4999C33.1149 37.4999 26.5063 40.3311 10.7727 37.8814C10.7727 37.8814 9.1932 10.2483 6.51611 2.99849V2.99849Z" stroke="#747474" stroke-width="2" stroke-linecap="round" stroke-linejoin="round"/>
<path d="M7.30755 8.73344C7.30755 8.73344 0.752506 22.5157 9.84696 35.1723" stroke="#747474" stroke-width="2" stroke-linecap="round" stroke-linejoin="round"/>
<path d="M6.51611 5.12381C6.51611 5.12381 -3.77539 19.5433 6.29047 32.3907C7.46839 33.894 8.92548 35.3745 10.7077 36.8092" stroke="#747474" stroke-width="2" stroke-linecap="round" stroke-linejoin="round"/>
<path d="M5.02471 32.5395L2.46235 34.4969C2.46235 34.4969 1.28444 52.1254 7.43792 57.4215C13.5914 62.7177 36.1554 60.4283 38.4501 58.5204C40.7447 56.6126 42.6149 43.1242 42.0603 35.1761L37.494 32.5395" stroke="#747474" stroke-width="2" stroke-linecap="round" stroke-linejoin="round"/>
<path d="M5.55993 32.9516L5.0245 35.8782C5.0245 35.8782 4.34376 47.7526 7.43771 49.7024C10.5317 51.6522 17.4386 52.7511 21.6339 52.5832C25.8293 52.4153 35.9181 52.3276 37.184 49.1262C38.4499 45.9249 38.8323 37.1488 36.9201 34.0963" stroke="#747474" stroke-width="2" stroke-linecap="round" stroke-linejoin="round"/>
<path d="M10.7077 38.4118L11.1169 46.1004L8.1377 49.3552" stroke="#747474" stroke-width="2" stroke-linecap="round" stroke-linejoin="round"/>
<path d="M37.1803 49.1262L33.0806 46.1004L33.1112 37.4999" stroke="#747474" stroke-width="2" stroke-linecap="round" stroke-linejoin="round"/>
<path d="M8.1377 9.50039L13.9699 12.7285H28.8966L35.4478 8.73344C35.4478 8.73344 40.5114 16.7922 34.6983 35.1723" stroke="#747474" stroke-width="2" stroke-linecap="round" stroke-linejoin="round"/>
<path d="M10.7075 25.6255L15.1209 27.228H28.4375L33.2142 25.6255" stroke="#747474" stroke-width="2" stroke-linecap="round" stroke-linejoin="round"/>
<path d="M22.8156 47.0543C22.8156 47.0543 14.7384 47.4435 14.9296 52.6023C15.1208 57.7611 15.2126 59.3294 22.8156 59.4973C30.4185 59.6651 30.8009 56.9942 31.0763 52.2932C31.2943 48.6073 26.6859 47.039 22.8156 47.0581V47.0543Z" fill="white" stroke="#747474" stroke-width="2" stroke-linecap="round" stroke-linejoin="round"/>
</svg>
