<svg width="43" height="62" viewBox="0 0 43 62" fill="none" xmlns="http://www.w3.org/2000/svg">
<path d="M10.7582 36.6566C10.7582 36.6566 -4.93719 23.2597 7.09059 4.66211C7.45391 4.09739 7.09059 4.28054 7.09059 4.28054" stroke="#747474" stroke-width="2" stroke-linecap="round" stroke-linejoin="round"/>
<path d="M37.3227 2.84585C37.3227 2.84585 23.5128 -0.206692 7.08691 2.84585C7.08691 2.84585 11.6609 19.5738 10.7239 37.3472C10.7239 37.3472 17.3325 40.1785 33.0662 37.7288C33.0662 37.7288 34.6456 10.0956 37.3227 2.84585Z" stroke="#747474" stroke-width="2" stroke-linecap="round" stroke-linejoin="round"/>
<path d="M36.5311 8.58081C36.5311 8.58081 43.0862 22.3631 33.9917 35.0197" stroke="#747474" stroke-width="2" stroke-linecap="round" stroke-linejoin="round"/>
<path d="M37.3224 4.97118C37.3224 4.97118 47.6139 19.3906 37.5481 32.238C36.3701 33.7414 34.913 35.2219 33.1309 36.6566" stroke="#747474" stroke-width="2" stroke-linecap="round" stroke-linejoin="round"/>
<path d="M38.8141 32.3868L41.3765 34.3443C41.3765 34.3443 42.5544 51.9727 36.4009 57.2689C30.2475 62.565 7.68342 60.2756 5.38877 58.3678C3.09412 56.46 1.22398 42.9715 1.77852 35.0235L6.34487 32.3868" stroke="#747474" stroke-width="2" stroke-linecap="round" stroke-linejoin="round"/>
<path d="M38.2786 32.7989L38.814 35.7256C38.814 35.7256 39.4947 47.6 36.4008 49.5498C33.3068 51.4958 26.3999 52.5985 22.2046 52.4306C18.0092 52.2627 7.92037 52.175 6.65449 48.9736C5.38861 45.7722 5.00617 36.9962 6.91838 33.9436" stroke="#747474" stroke-width="2" stroke-linecap="round" stroke-linejoin="round"/>
<path d="M33.1313 38.2592L32.7183 45.9478L35.7013 49.2025" stroke="#747474" stroke-width="2" stroke-linecap="round" stroke-linejoin="round"/>
<path d="M6.65479 48.9736L10.7584 45.9478L10.724 37.3472" stroke="#747474" stroke-width="2" stroke-linecap="round" stroke-linejoin="round"/>
<path d="M35.7011 9.34777L29.8689 12.5758H14.9422L8.39094 8.58081C8.39094 8.58081 3.32742 16.6395 9.14053 35.0197" stroke="#747474" stroke-width="2" stroke-linecap="round" stroke-linejoin="round"/>
<path d="M33.1311 25.4728L28.7177 27.0754H15.4011L10.6206 25.4728" stroke="#747474" stroke-width="2" stroke-linecap="round" stroke-linejoin="round"/>
<path d="M21.0231 46.8979C21.0231 46.8979 29.1002 47.2871 28.909 52.4459C28.7178 57.6009 28.626 59.1729 21.0231 59.3408C13.4201 59.5087 13.0377 56.8377 12.7623 52.1368C12.5443 48.4509 17.1528 46.8826 21.0231 46.9017V46.8979Z" fill="white" stroke="#747474" stroke-width="2" stroke-linecap="round" stroke-linejoin="round"/>
<path d="M14 22C14 20.3431 15.3431 19 17 19H26C27.6569 19 29 20.3431 29 22V31C29 32.6569 27.6569 34 26 34H17C15.3431 34 14 32.6569 14 31V22Z" fill="url(#paint0_linear_198_150)"/>
<path d="M26.5666 25.0384L22.6823 25.038L22.682 21.4336C22.6823 20.7523 22.1297 20.2 21.4484 20.2C20.7673 20.2 20.215 20.7523 20.215 21.4336V25.0382L16.4338 25.038C15.7525 25.0382 15.2002 25.5905 15.2002 26.2716C15.2006 26.9529 15.7525 27.505 16.4338 27.505H20.215V31.5664C20.215 32.2483 20.7673 32.8 21.4486 32.8C22.1299 32.8 22.682 32.2477 22.6823 31.5668V27.505H26.567C27.2479 27.505 27.8002 26.9529 27.8002 26.2721C27.8008 25.5903 27.2479 25.038 26.5666 25.0384Z" fill="white"/>
<defs>
<linearGradient id="paint0_linear_198_150" x1="21.5" y1="19" x2="21.5" y2="34" gradientUnits="userSpaceOnUse">
<stop stop-color="#665492"/>
<stop offset="1" stop-color="#683D89"/>
</linearGradient>
</defs>
</svg>
