<svg width="107" height="68" viewBox="0 0 107 68" fill="none" xmlns="http://www.w3.org/2000/svg">
<path d="M12.5343 2.04878C9.72334 2.91112 8.61426 3.6323 8.61426 3.6323L12.1518 35.0735L33.8171 34.9628L36.739 3.05994C36.739 3.05994 35.649 1.95339 32.6278 1.67103C29.6065 1.38867 15.3414 1.19025 12.5305 2.0526L12.5343 2.04878Z" stroke="#747474" stroke-width="2" stroke-linecap="round" stroke-linejoin="round"/>
<path d="M36.739 4.36109C39.5538 7.10838 39.5538 13.595 39.5538 13.595L39.8559 33.967L33.8171 34.9628C33.8171 34.9628 33.0675 44.9943 33.2511 46.4671C33.4347 47.94 34.0925 51.3703 38.7353 51.3703" stroke="#747474" stroke-width="2" stroke-linecap="round" stroke-linejoin="round"/>
<path d="M38.9302 7.01299C38.9302 7.01299 40.4561 5.75762 41.3434 5.86065C41.3434 5.86065 43.4698 30.8381 44.7624 34.4286H63.9877C63.9877 34.4286 67.162 9.94342 66.5501 5.85683L68.9633 7.01681" stroke="#747474" stroke-width="2" stroke-linecap="round" stroke-linejoin="round"/>
<path d="M41.4087 5.05554L42.2309 3.67427H65.491L66.5542 5.85301" stroke="#747474" stroke-width="2" stroke-linecap="round" stroke-linejoin="round"/>
<path d="M71.6786 4.81897C71.6786 4.81897 68.9327 4.92582 68.9671 13.2669C69.0015 21.608 68.9671 34.1997 68.9671 34.1997L74.3557 34.9628L71.6786 4.81897V4.81897Z" stroke="#747474" stroke-width="2" stroke-linecap="round" stroke-linejoin="round"/>
<path d="M100.14 5.05555C100.14 5.05555 102.515 4.67016 102.202 16.5751C101.888 28.48 101.502 33.3946 101.502 33.3946L96.0825 35.1956" stroke="#747474" stroke-width="2" stroke-linecap="round" stroke-linejoin="round"/>
<path d="M68.9634 34.1997L63.9878 34.4248L68.9634 34.1997Z" stroke="#747474" stroke-width="2" stroke-miterlimit="10"/>
<path d="M9.8418 11.1606L13.1652 13.595H32.2376L35.997 11.1606" stroke="#747474" stroke-width="2" stroke-linecap="round" stroke-linejoin="round"/>
<path d="M11.2378 23.2525L15.284 24.4048H30.6237L34.888 23.2525" stroke="#747474" stroke-width="2" stroke-linecap="round" stroke-linejoin="round"/>
<path d="M11.8877 32.04H33.8169" stroke="#747474" stroke-width="2" stroke-linecap="round" stroke-linejoin="round"/>
<path d="M44.7627 32.04H63.9001" stroke="#747474" stroke-width="2" stroke-linecap="round" stroke-linejoin="round"/>
<path d="M43.3779 23.2525L47.1335 24.4048H62.3738L65.3262 23.2525" stroke="#747474" stroke-width="2" stroke-linecap="round" stroke-linejoin="round"/>
<path d="M42.3071 13.0036L45.6726 14.7397H63.2955L66.3856 12.3778" stroke="#747474" stroke-width="2" stroke-linecap="round" stroke-linejoin="round"/>
<path d="M72.6465 11.1606L76.9183 13.595H95.1608L98.8973 11.1606" stroke="#747474" stroke-width="2" stroke-linecap="round" stroke-linejoin="round"/>
<path d="M73.916 23.2525L78.1802 25.0421H93.4282L97.2717 23.2525" stroke="#747474" stroke-width="2" stroke-linecap="round" stroke-linejoin="round"/>
<path d="M74.0957 32.04H96.0861" stroke="#747474" stroke-width="2" stroke-linecap="round" stroke-linejoin="round"/>
<path d="M68.9634 34.1997L70.5275 63.1989L70.1451 65.8699L59.8192 66.2514C59.8192 66.2514 56.534 64.9121 53.9678 65.0113C51.4016 65.1105 48.17 66.2514 48.17 66.2514L38.4025 65.4883L38.02 62.4357L39.8519 33.967L44.7625 34.4286" stroke="#747474" stroke-width="2" stroke-miterlimit="10"/>
<path d="M44.2461 35.1918V45.746H63.9877L64.4199 34.9628" stroke="#747474" stroke-width="2" stroke-miterlimit="10"/>
<path d="M44.2465 45.746C44.2465 45.746 43.3783 54.4266 47.5852 55.1898C51.792 55.9529 54.2779 55.682 54.2779 55.682C53.2338 55.7011 60.9706 55.9529 62.1179 54.4266C63.4144 52.6981 63.9498 51.1871 63.9919 45.746" stroke="#747474" stroke-width="2" stroke-miterlimit="10"/>
<path d="M43.3783 65.2708C43.3783 65.2708 43.2062 61.5505 44.2465 60.0891C45.2867 58.6277 47.5354 55.7278 47.5354 55.7278" stroke="#747474" stroke-width="2" stroke-miterlimit="10"/>
<path d="M64.8639 66.0645C64.8639 66.0645 65.319 63.0958 64.8639 61.8138C64.4088 60.5317 60.9668 55.5675 60.9668 55.5675" stroke="#747474" stroke-width="2" stroke-miterlimit="10"/>
<path d="M70.5312 51.706C70.5312 51.706 75.1205 51.3703 74.7381 45.2652C74.3557 39.1601 74.3557 34.9628 74.3557 34.9628L96.086 35.188L99.7727 3.67426C99.7727 3.67426 99.0729 2.33114 95.1299 2.04878C91.1869 1.76642 76.6159 0.804865 71.6633 2.81191V4.76172" stroke="#747474" stroke-width="2" stroke-linecap="round" stroke-linejoin="round"/>
<path d="M97.1836 35.6191L98.8969 47.8179C99.9792 49.844 102.656 52.515 105.716 52.8965C105.716 52.8965 105.326 39.4463 101.505 33.3908" stroke="#747474" stroke-width="2" stroke-linecap="round" stroke-linejoin="round"/>
<path d="M106.668 52.8164C106.687 53.7894 106.653 55.0677 106.477 56.0178C106.359 56.4795 106.24 57.1663 106.041 57.5975C105.169 60.2532 102.584 62.1534 99.7768 62.161C99.2299 62.161 99.1801 61.3635 99.7232 61.2986C102.243 61.0468 104.175 59.2611 104.691 56.8038C104.844 56.0254 104.89 55.1783 104.882 54.3885L104.764 52.9766L104.756 52.8889C104.683 51.5801 106.63 51.4962 106.668 52.8126V52.8164Z" fill="#747474"/>
<path d="M105.716 53.6597C106.098 56.3307 106.098 63.5804 104.951 64.7251C103.804 65.8699 99.7728 66.0645 99.7728 66.0645L95.0076 66.633C95.0076 66.633 93.0954 65.4883 88.8886 65.4883C84.6817 65.4883 82.3488 66.2514 82.3488 66.2514L70.1489 65.8699" stroke="#747474" stroke-width="2" stroke-linecap="round" stroke-linejoin="round"/>
<path d="M76.2717 65.9309C76.0652 64.1222 76.046 62.306 76.6121 60.5508C77.2163 58.8566 78.0424 57.2731 79.0673 55.8041C80.8954 53.1942 83.5878 51.1337 86.8959 51.1184C90.946 51.0955 94.9578 53.0415 97.2983 56.365C98.9313 58.5399 99.4668 61.2681 99.6924 63.9162C99.7421 64.6679 99.8913 65.4196 99.7268 66.1789C99.6886 66.259 99.6733 66.3124 99.5853 66.3773C99.3482 66.5605 99.069 66.3468 98.9658 66.1751C98.7975 65.969 98.6713 65.6676 98.9543 65.4921C99.1187 65.3967 99.3253 65.4539 99.4209 65.6142C99.4668 65.6867 99.4629 65.7706 99.5012 65.8469C99.5088 65.8775 99.5432 65.9118 99.5012 65.8813C99.44 65.8393 99.3023 65.8507 99.2488 65.9004C99.2143 65.9347 99.2067 65.9347 99.199 65.9652C99.2641 65.7592 99.2526 65.5073 99.2488 65.2631C99.0843 62.2755 98.7325 59.1275 96.9044 56.6473C94.6633 53.4612 90.7968 51.5763 86.9074 51.6297C83.7867 51.6717 81.2702 53.6673 79.5721 56.1475C78.1762 58.2804 76.8836 60.6385 76.8721 63.2523C76.853 64.107 76.9065 64.9846 77.0327 65.8202C77.1054 66.3125 76.3482 66.4269 76.2793 65.9233L76.2717 65.9309Z" fill="#747474"/>
<path d="M74.7573 45.746C74.7573 45.746 87.6724 47.3676 98.6064 45.746" stroke="#747474" stroke-width="2" stroke-linecap="round" stroke-linejoin="round"/>
<path d="M6.66399 33.4366C6.66399 33.4366 3.22201 47.5546 2.45713 52.1334C1.76491 56.2734 0.544925 60.1463 8.19375 61.6726" stroke="#747474" stroke-width="2" stroke-linecap="round" stroke-linejoin="round"/>
<path d="M2.94642 55.1325C2.77433 56.3459 2.65577 57.6165 2.60605 58.849C2.58311 60.3409 2.52956 61.8328 3.05733 63.1302L3.12999 63.2599C3.15677 63.2942 3.17971 63.3248 3.19883 63.3591L3.4283 63.6033C4.68653 64.6603 6.59874 64.9579 8.23559 65.1105L7.23742 66.0606C7.73842 65.3013 7.8149 64.3932 7.94111 63.5308C8.19734 60.9896 8.84367 58.3682 10.5417 56.3688C13.5171 52.8545 16.068 50.878 20.9097 50.9543C21.1086 50.9658 21.6746 50.9811 21.8696 50.9925C22.0876 51.0116 22.6116 51.0803 22.8296 51.1031C24.5391 51.3702 26.2065 52.1067 27.4533 53.3239C30.2413 56.0101 31.2968 59.8868 32.23 63.5041C32.23 63.5079 31.9011 63.2485 31.9011 63.2485C33.5914 63.3362 35.9435 63.2485 37.6492 63.2637C39.5652 63.2942 41.4812 63.4087 43.3934 63.5003C43.5082 63.5079 43.5961 63.6071 43.5923 63.7216C43.5846 63.8323 43.4929 63.92 43.382 63.92C42.4258 63.9162 41.4697 63.8971 40.5136 63.878C37.7562 63.8246 34.6585 63.8017 31.9049 63.92C31.7366 63.9353 31.6142 63.8132 31.576 63.6605C30.3598 58.8604 28.3826 52.6485 22.7072 51.9083C22.5007 51.8815 22.0073 51.8396 21.8123 51.8167C21.6287 51.8167 21.0971 51.7938 20.9059 51.79C18.726 51.79 16.4543 52.244 14.695 53.5719C13.4062 54.5067 12.3392 55.7506 11.2492 56.9946C10.7521 57.586 10.3581 58.2614 10.0369 58.9863C9.42881 60.4668 9.04636 62.058 8.80543 63.6453C8.73659 64.4695 8.62185 65.3318 9.1458 66.0682C9.28348 66.2476 9.21464 66.5223 9.00812 66.6177L8.1438 67.0222C5.74589 66.7856 3.01909 66.3697 1.5008 64.2634C0.582937 62.5845 0.678545 60.5355 0.697667 58.7841C0.751209 57.4601 0.869767 56.1704 1.05716 54.8502C1.12983 54.3274 1.61553 53.9649 2.13947 54.0412C2.67107 54.1137 3.03438 54.6136 2.95025 55.1401L2.94642 55.1325Z" fill="#747474"/>
<path d="M38.4062 65.4883L26.8412 66.633C26.8412 66.633 23.6057 65.4883 19.9152 65.4883C16.2246 65.4883 12.9892 66.633 12.9892 66.633L8.19336 66.0645" stroke="#747474" stroke-width="2" stroke-linecap="round" stroke-linejoin="round"/>
<path d="M2.45703 52.1334C2.45703 52.1334 7.91447 51.3168 9.53602 45.6544C9.66605 45.2041 9.76931 44.7272 9.8458 44.2159C10.8746 37.2523 11.2417 34.9628 11.2417 34.9628L6.66771 33.4366C6.66771 33.4366 3.9715 7.95927 8.37722 5.05172" stroke="#747474" stroke-width="2" stroke-linecap="round" stroke-linejoin="round"/>
<path d="M32.8379 45.746C32.8379 45.746 19.3568 47.8369 9.94873 45.4064" stroke="#747474" stroke-width="2" stroke-linecap="round" stroke-linejoin="round"/>
<path d="M65.3267 63.3706V63.8017H70.5317L76.5054 64.3207" stroke="#747474" stroke-width="0.7" stroke-linecap="round" stroke-linejoin="round"/>
<path d="M11.2376 65.7897C11.2376 65.7897 8.76704 57.67 19.8578 58.0515C30.9486 58.4331 28.1186 65.8737 28.1186 65.8737" stroke="#747474" stroke-width="2" stroke-linecap="round" stroke-linejoin="round"/>
<path d="M47.5351 65.4883C47.5351 65.4883 45.0722 58.1011 53.8798 58.0744C62.6874 58.0477 61.5401 63.0081 60.9665 65.8698" stroke="#747474" stroke-width="2" stroke-linecap="round" stroke-linejoin="round"/>
<path d="M80.5553 65.8698C80.5553 65.8698 76.7386 58.5666 87.8791 58.6887C99.0196 58.8108 96.9697 63.7712 96.0824 66.2514" stroke="#747474" stroke-width="2" stroke-linecap="round" stroke-linejoin="round"/>
<path d="M44 18C44 16.3431 45.3431 15 47 15H61C62.6569 15 64 16.3431 64 18V32C64 33.6569 62.6569 35 61 35H47C45.3431 35 44 33.6569 44 32V18Z" fill="url(#paint0_linear_198_151)"/>
<path d="M60.7553 23.0513L55.5762 23.0507L55.5759 18.2448C55.5762 17.3364 54.8395 16.6 53.9311 16.6C53.0229 16.6 52.2865 17.3364 52.2865 18.2448V23.051L47.2449 23.0507C46.3365 23.051 45.6001 23.7874 45.6001 24.6955C45.6007 25.6039 46.3365 26.3401 47.2449 26.3401H52.2865V31.7552C52.2865 32.6644 53.0229 33.4 53.9314 33.4C54.8398 33.4 55.5759 32.6636 55.5762 31.7557V26.3401H60.7558C61.6637 26.3401 62.4001 25.6039 62.4001 24.6961C62.4009 23.7871 61.6637 23.0507 60.7553 23.0513Z" fill="white"/>
<defs>
<linearGradient id="paint0_linear_198_151" x1="54" y1="15" x2="54" y2="35" gradientUnits="userSpaceOnUse">
<stop stop-color="#665492"/>
<stop offset="1" stop-color="#683D89"/>
</linearGradient>
</defs>
</svg>
