<svg width="97" height="81" viewBox="0 0 97 81" fill="none" xmlns="http://www.w3.org/2000/svg">
<path d="M86.0806 55.8092C86.0806 55.8092 101.776 42.4124 89.7482 23.8147C89.3849 23.25 89.7482 23.4332 89.7482 23.4332" stroke="#747474" stroke-width="2" stroke-linecap="round" stroke-linejoin="round"/>
<path d="M59.5161 21.9985C59.5161 21.9985 73.3261 18.9459 89.7519 21.9985C89.7519 21.9985 85.1779 38.7264 86.1149 56.4999C86.1149 56.4999 79.5063 59.3311 63.7727 56.8814C63.7727 56.8814 62.1932 29.2483 59.5161 21.9985V21.9985Z" stroke="#747474" stroke-width="2" stroke-linecap="round" stroke-linejoin="round"/>
<path d="M60.3076 27.7334C60.3076 27.7334 53.7525 41.5157 62.847 54.1723" stroke="#747474" stroke-width="2" stroke-linecap="round" stroke-linejoin="round"/>
<path d="M59.5161 24.1238C59.5161 24.1238 49.2246 38.5433 59.2905 51.3907C60.4684 52.894 61.9255 54.3745 63.7077 55.8092" stroke="#747474" stroke-width="2" stroke-linecap="round" stroke-linejoin="round"/>
<path d="M58.0247 51.5395L55.4624 53.4969C55.4624 53.4969 54.2844 71.1254 60.4379 76.4215C66.5914 81.7177 89.1554 79.4283 91.4501 77.5204C93.7447 75.6126 95.6149 62.1242 95.0603 54.1761L90.494 51.5395" stroke="#747474" stroke-width="2" stroke-linecap="round" stroke-linejoin="round"/>
<path d="M58.5599 51.9516L58.0245 54.8782C58.0245 54.8782 57.3438 66.7526 60.4377 68.7024C63.5317 70.6522 70.4386 71.7511 74.6339 71.5832C78.8293 71.4153 88.9181 71.3276 90.184 68.1262C91.4499 64.9249 91.8323 56.1488 89.9201 53.0963" stroke="#747474" stroke-width="2" stroke-linecap="round" stroke-linejoin="round"/>
<path d="M63.7077 57.4118L64.1169 65.1004L61.1377 68.3552" stroke="#747474" stroke-width="2" stroke-linecap="round" stroke-linejoin="round"/>
<path d="M90.1803 68.1262L86.0806 65.1004L86.1112 56.4999" stroke="#747474" stroke-width="2" stroke-linecap="round" stroke-linejoin="round"/>
<path d="M61.1377 28.5004L66.9699 31.7285H81.8966L88.4478 27.7334C88.4478 27.7334 93.5114 35.7922 87.6983 54.1723" stroke="#747474" stroke-width="2" stroke-linecap="round" stroke-linejoin="round"/>
<path d="M63.7075 44.6255L68.1209 46.228H81.4375L86.2142 44.6255" stroke="#747474" stroke-width="2" stroke-linecap="round" stroke-linejoin="round"/>
<path d="M75.8156 66.0543C75.8156 66.0543 67.7384 66.4435 67.9296 71.6023C68.1208 76.7611 68.2126 78.3294 75.8156 78.4973C83.4185 78.6651 83.8009 75.9942 84.0763 71.2932C84.2943 67.6073 79.6859 66.039 75.8156 66.0581V66.0543Z" fill="white" stroke="#747474" stroke-width="2" stroke-linecap="round" stroke-linejoin="round"/>
<path d="M68 42C68 40.3431 69.3431 39 71 39H80C81.6569 39 83 40.3431 83 42V51C83 52.6569 81.6569 54 80 54H71C69.3431 54 68 52.6569 68 51V42Z" fill="url(#paint0_linear_198_149)"/>
<path d="M80.5666 45.0384L76.6823 45.038L76.682 41.4336C76.6823 40.7523 76.1297 40.2 75.4484 40.2C74.7673 40.2 74.215 40.7523 74.215 41.4336V45.0382L70.4338 45.038C69.7525 45.0382 69.2002 45.5905 69.2002 46.2716C69.2006 46.9529 69.7525 47.505 70.4338 47.505H74.215V51.5664C74.215 52.2483 74.7673 52.8 75.4486 52.8C76.1299 52.8 76.682 52.2477 76.6823 51.5668V47.505H80.567C81.2479 47.505 81.8002 46.9529 81.8002 46.2721C81.8008 45.5903 81.2479 45.038 80.5666 45.0384Z" fill="white"/>
<path d="M21.8455 8.45282C21.8455 8.45282 25.341 12.0968 27.9914 12.3715C30.6417 12.6462 31.2727 19.2397 27.9914 20.4875C24.5226 21.8077 20.3158 22.0862 15.8794 21.9336C12.2845 21.8077 2.13449 22.7807 1.09043 18.4766C0.0463625 14.1725 1.93562 12.1655 4.62418 12.0243C7.31275 11.8831 8.07763 10.7384 9.22496 8.449H21.8455V8.45282Z" fill="white" stroke="#747474" stroke-linecap="round" stroke-linejoin="round"/>
<path d="M4.75781 14.1C4.75781 14.1 8.45985 13.4132 11.1369 11.8869C13.814 10.3607 18.1509 10.6316 20.2849 11.8869C22.2277 13.0316 24.53 13.6421 26.4384 13.7184" stroke="#747474" stroke-linecap="round" stroke-linejoin="round"/>
<path d="M11.7453 13.4513L11.1372 15.7026L13.4319 19.5183H17.7075L20.1322 15.1989L18.8587 13.3903L11.7453 13.4513Z" fill="white" stroke="#747474" stroke-linecap="round" stroke-linejoin="round"/>
<path d="M20.1321 15.1989C20.1321 15.1989 27.8306 16.046 27.1307 17.2098C26.4309 18.3736 22.2699 19.4649 18.0439 18.9192" stroke="#747474" stroke-linecap="round" stroke-linejoin="round"/>
<path d="M10.6438 15.3821C10.6438 15.3821 2.94521 16.2292 3.64508 17.393C4.34112 18.5567 8.50591 19.648 12.7319 19.1024" stroke="#747474" stroke-linecap="round" stroke-linejoin="round"/>
<path d="M9.74139 1.20303L9.2251 8.45282" stroke="#747474" stroke-linecap="round" stroke-linejoin="round"/>
<path d="M21.8456 8.45282L20.9966 1.20303" stroke="#747474" stroke-linecap="round" stroke-linejoin="round"/>
<defs>
<linearGradient id="paint0_linear_198_149" x1="75.5" y1="39" x2="75.5" y2="54" gradientUnits="userSpaceOnUse">
<stop stop-color="#665492"/>
<stop offset="1" stop-color="#683D89"/>
</linearGradient>
</defs>
</svg>
