<svg width="44" height="62" viewBox="0 0 44 62" fill="none" xmlns="http://www.w3.org/2000/svg">
<path d="M33.0806 36.8092C33.0806 36.8092 48.776 23.4124 36.7482 4.81474C36.3849 4.25001 36.7482 4.43317 36.7482 4.43317" stroke="#747474" stroke-width="2" stroke-linecap="round" stroke-linejoin="round"/>
<path d="M6.51611 2.99849C6.51611 2.99849 20.3261 -0.0540579 36.7519 2.99849C36.7519 2.99849 32.1779 19.7264 33.1149 37.4999C33.1149 37.4999 26.5063 40.3311 10.7727 37.8814C10.7727 37.8814 9.1932 10.2483 6.51611 2.99849V2.99849Z" stroke="#747474" stroke-width="2" stroke-linecap="round" stroke-linejoin="round"/>
<path d="M7.30755 8.73344C7.30755 8.73344 0.752506 22.5157 9.84696 35.1723" stroke="#747474" stroke-width="2" stroke-linecap="round" stroke-linejoin="round"/>
<path d="M6.51611 5.12381C6.51611 5.12381 -3.77539 19.5433 6.29047 32.3907C7.46839 33.894 8.92548 35.3745 10.7077 36.8092" stroke="#747474" stroke-width="2" stroke-linecap="round" stroke-linejoin="round"/>
<path d="M5.02471 32.5395L2.46235 34.4969C2.46235 34.4969 1.28444 52.1254 7.43792 57.4215C13.5914 62.7177 36.1554 60.4283 38.4501 58.5204C40.7447 56.6126 42.6149 43.1242 42.0603 35.1761L37.494 32.5395" stroke="#747474" stroke-width="2" stroke-linecap="round" stroke-linejoin="round"/>
<path d="M5.55993 32.9516L5.0245 35.8782C5.0245 35.8782 4.34376 47.7526 7.43771 49.7024C10.5317 51.6522 17.4386 52.7511 21.6339 52.5832C25.8293 52.4153 35.9181 52.3276 37.184 49.1262C38.4499 45.9249 38.8323 37.1488 36.9201 34.0963" stroke="#747474" stroke-width="2" stroke-linecap="round" stroke-linejoin="round"/>
<path d="M10.7077 38.4118L11.1169 46.1004L8.1377 49.3552" stroke="#747474" stroke-width="2" stroke-linecap="round" stroke-linejoin="round"/>
<path d="M37.1803 49.1262L33.0806 46.1004L33.1112 37.4999" stroke="#747474" stroke-width="2" stroke-linecap="round" stroke-linejoin="round"/>
<path d="M8.1377 9.50039L13.9699 12.7285H28.8966L35.4478 8.73344C35.4478 8.73344 40.5114 16.7922 34.6983 35.1723" stroke="#747474" stroke-width="2" stroke-linecap="round" stroke-linejoin="round"/>
<path d="M10.7075 25.6255L15.1209 27.228H28.4375L33.2142 25.6255" stroke="#747474" stroke-width="2" stroke-linecap="round" stroke-linejoin="round"/>
<path d="M22.8156 47.0543C22.8156 47.0543 14.7384 47.4435 14.9296 52.6023C15.1208 57.7611 15.2126 59.3294 22.8156 59.4973C30.4185 59.6651 30.8009 56.9942 31.0763 52.2932C31.2943 48.6073 26.6859 47.039 22.8156 47.0581V47.0543Z" fill="white" stroke="#747474" stroke-width="2" stroke-linecap="round" stroke-linejoin="round"/>
<path d="M12 23C12 21.3431 13.3431 20 15 20H29C30.6569 20 32 21.3431 32 23V37C32 38.6569 30.6569 40 29 40H15C13.3431 40 12 38.6569 12 37V23Z" fill="url(#paint0_linear_198_149)"/>
<path d="M28.7553 28.0513L23.5762 28.0507L23.5759 23.2448C23.5762 22.3364 22.8395 21.6 21.9311 21.6C21.0229 21.6 20.2865 22.3364 20.2865 23.2448V28.051L15.2449 28.0507C14.3365 28.051 13.6001 28.7874 13.6001 29.6955C13.6007 30.6039 14.3365 31.3401 15.2449 31.3401H20.2865V36.7552C20.2865 37.6644 21.0229 38.4 21.9314 38.4C22.8398 38.4 23.5759 37.6636 23.5762 36.7557V31.3401H28.7558C29.6637 31.3401 30.4001 30.6039 30.4001 29.6961C30.4009 28.7871 29.6637 28.0507 28.7553 28.0513Z" fill="white"/>
<defs>
<linearGradient id="paint0_linear_198_149" x1="22" y1="20" x2="22" y2="40" gradientUnits="userSpaceOnUse">
<stop stop-color="#665492"/>
<stop offset="1" stop-color="#683D89"/>
</linearGradient>
</defs>
</svg>
