<svg width="31" height="23" viewBox="0 0 31 23" fill="none" xmlns="http://www.w3.org/2000/svg">
<path d="M21.8455 8.45282C21.8455 8.45282 25.341 12.0968 27.9914 12.3715C30.6417 12.6462 31.2727 19.2397 27.9914 20.4875C24.5226 21.8077 20.3158 22.0862 15.8794 21.9336C12.2845 21.8077 2.13449 22.7807 1.09043 18.4766C0.0463624 14.1725 1.93562 12.1655 4.62418 12.0243C7.31275 11.8831 8.07763 10.7384 9.22496 8.449H21.8455V8.45282Z" fill="white" stroke="#747474" stroke-linecap="round" stroke-linejoin="round"/>
<path d="M4.75781 14.1C4.75781 14.1 8.45985 13.4132 11.1369 11.8869C13.814 10.3607 18.1509 10.6316 20.2849 11.8869C22.2277 13.0316 24.53 13.6421 26.4384 13.7184" stroke="#747474" stroke-linecap="round" stroke-linejoin="round"/>
<path d="M11.7453 13.4513L11.1372 15.7026L13.4319 19.5183H17.7075L20.1322 15.1989L18.8587 13.3903L11.7453 13.4513Z" fill="white" stroke="#747474" stroke-linecap="round" stroke-linejoin="round"/>
<path d="M20.1321 15.1989C20.1321 15.1989 27.8306 16.046 27.1307 17.2098C26.4309 18.3736 22.2699 19.4649 18.0439 18.9192" stroke="#747474" stroke-linecap="round" stroke-linejoin="round"/>
<path d="M10.6438 15.3821C10.6438 15.3821 2.94521 16.2292 3.64508 17.393C4.34112 18.5567 8.50591 19.648 12.7319 19.1024" stroke="#747474" stroke-linecap="round" stroke-linejoin="round"/>
<path d="M9.74139 1.20303L9.2251 8.45282" stroke="#747474" stroke-linecap="round" stroke-linejoin="round"/>
<path d="M21.8456 8.45282L20.9966 1.20303" stroke="#747474" stroke-linecap="round" stroke-linejoin="round"/>
</svg>
