<svg width="111" height="126" viewBox="0 0 111 126" fill="none" xmlns="http://www.w3.org/2000/svg">
<g opacity="0.7">
<path d="M3.7723 50.8787H106.733C106.733 50.8787 111.54 27.5458 108.007 12.7753C108.007 12.7753 66.1906 -11.1528 3.00742 12.7753C3.00742 12.7753 -0.323646 26.9735 3.7723 50.8787V50.8787Z" stroke="#747474" stroke-width="3" stroke-miterlimit="10"/>
<path d="M38.4941 51.203L44.9956 59.2159L45.8217 85.4106L46.4986 106.881H62.3432L63.7353 59.2159L70.1373 51.2603" stroke="#747474" stroke-width="3" stroke-miterlimit="10"/>
<path d="M46.4985 106.5C46.8541 118.298 43.8481 123.701 43.8481 123.701H64.4617C64.4617 123.701 62.1059 120.587 62.3468 106.5" stroke="#747474" stroke-width="3" stroke-miterlimit="10"/>
<path d="M45.7607 84.781C45.7607 84.781 46.5256 82.4916 49.2027 82.4916C51.8798 82.4916 59.957 82.4916 59.957 82.4916C59.957 82.4916 62.9706 82.4916 62.9782 85.1626" stroke="#747474" stroke-width="3" stroke-miterlimit="10"/>
</g>
</svg>
