<svg width="109" height="124" viewBox="0 0 109 124" fill="none" xmlns="http://www.w3.org/2000/svg">
<g opacity="0.7">
<path d="M2.7723 49.8787H105.733C105.733 49.8787 110.54 26.5458 107.007 11.7753C107.007 11.7753 65.1906 -12.1528 2.00742 11.7753C2.00742 11.7753 -1.32365 25.9735 2.7723 49.8787V49.8787Z" stroke="#747474" stroke-miterlimit="10"/>
<path d="M37.4941 50.203L43.9956 58.2159L44.8217 84.4106L45.4986 105.881H61.3432L62.7353 58.2159L69.1373 50.2603" stroke="#747474" stroke-miterlimit="10"/>
<path d="M45.4985 105.5C45.8541 117.298 42.8481 122.701 42.8481 122.701H63.4617C63.4617 122.701 61.1059 119.587 61.3468 105.5" stroke="#747474" stroke-miterlimit="10"/>
<path d="M44.7607 83.781C44.7607 83.781 45.5256 81.4916 48.2027 81.4916C50.8798 81.4916 58.957 81.4916 58.957 81.4916C58.957 81.4916 61.9706 81.4916 61.9782 84.1626" stroke="#747474" stroke-miterlimit="10"/>
</g>
</svg>
