<svg width="159" height="353" viewBox="0 0 159 353" fill="none" xmlns="http://www.w3.org/2000/svg">
<path opacity="0.4" d="M155.271 123.374C153.102 121.791 150.854 120.326 148.7 118.731C148.134 118.311 147.392 117.578 147.412 117.017C147.637 110.87 147.878 104.735 148.349 98.6067C148.655 94.5506 149.737 90.525 149.775 86.4842C149.875 76.4108 149.649 66.3374 149.416 56.2679C149.255 49.1287 149.064 41.9858 148.463 34.8772C148.287 32.7175 147.094 30.3747 145.702 28.6385C143.415 25.7959 140.788 23.1363 137.954 20.8202C127.88 12.6012 116.51 6.82429 103.955 3.31005C93.0476 0.253688 82.0026 -0.631549 70.7397 0.42921C59.9511 1.44418 49.6634 4.17239 39.9226 8.90383C30.9506 13.2613 22.5292 18.4469 15.5458 25.6661C13.2818 28.0051 10.9948 30.5197 10.662 33.9309C10.1037 39.6201 9.57208 45.3245 9.46499 51.0289C9.25465 62.1059 9.30054 73.1828 9.33879 84.2597C9.35026 87.5107 9.34644 90.8265 9.95834 93.9935C11.3848 101.423 11.6832 108.886 11.4346 116.395C11.4078 117.189 10.7997 118.177 10.1534 118.7C8.55478 119.978 6.76113 121.009 5.08986 122.191C1.51786 124.721 -0.153407 128.22 0.0110431 132.562C0.0951802 134.833 1.34194 135.573 3.4033 134.672C5.97713 133.547 8.55478 132.421 11.5149 131.135C11.228 137.176 10.8839 142.811 10.7041 148.455C10.3752 158.723 9.96599 168.994 9.91245 179.262C9.85126 192.934 10.0884 206.598 10.2069 220.266C10.314 232.373 9.65239 244.453 9.15139 256.549C8.48594 272.407 9.19728 288.326 9.41528 304.215C9.43822 306.084 9.75182 308.091 10.4899 309.793C14.1231 318.169 17.8864 326.491 21.7605 334.759C22.4068 336.144 23.6383 337.396 24.8889 338.331C29.9906 342.135 35.8917 344.356 41.831 346.443C52.1149 350.056 62.5937 352.742 73.5851 352.83C79.2338 352.876 84.936 353.277 90.5158 352.651C96.7075 351.949 102.823 350.403 108.911 348.98C117.26 347.03 125.161 343.829 132.523 339.441C134.267 338.407 136.141 336.942 137.013 335.202C140.501 328.23 143.541 321.034 146.907 314.002C148.567 310.522 149.699 306.897 149.806 303.116C150.089 293.115 150.119 283.11 150.226 273.113C150.272 268.355 150.463 263.589 150.211 258.846C149.848 251.97 148.945 245.117 148.655 238.241C148.433 233.025 148.926 227.787 148.907 222.555C148.819 200.92 148.655 179.289 148.528 157.658C148.521 155.743 148.628 153.823 148.54 151.912C148.238 145.15 147.871 138.389 147.511 131.307C148.693 131.75 149.53 132.043 150.356 132.383C152.307 133.2 154.2 134.199 156.219 134.775C156.911 134.97 158.434 134.337 158.671 133.726C159.803 130.842 157.871 125.274 155.271 123.374V123.374ZM87.9611 1.81812C100.226 3.16124 111.871 6.59916 122.717 12.5173C129.093 15.9972 135.028 20.1029 140.501 24.9259C145.561 29.3902 147.691 34.9268 147.691 41.5012C147.695 47.1064 147.744 52.7193 147.806 58.3245C147.905 66.8373 148.287 75.3539 148.062 83.8552C147.913 89.6322 146.976 95.3938 146.283 101.148C146.215 101.72 145.522 102.422 144.945 102.678C143.155 103.472 141.281 104.078 139.258 104.826C137.786 82.1305 133.261 59.8546 124.951 38.4372C124.672 38.4868 124.389 38.5402 124.106 38.5975C124.228 39.2461 124.274 39.9139 124.465 40.5396C127.001 48.8693 129.88 57.1149 132.026 65.5476C134.913 76.8725 136.619 88.415 137.644 100.083C138.34 108.001 136.753 115.575 135.579 123.267C134.248 132.009 133.016 140.77 131.949 149.546C130.856 158.536 129.949 167.552 129.081 176.569C128.504 182.559 128.026 188.565 127.704 194.575C127.031 207.239 126.442 219.907 125.915 232.579C125.655 238.886 125.601 245.194 125.479 251.505C125.322 259.522 125.203 267.531 125.043 275.544C124.955 279.798 124.825 284.049 124.698 288.296C124.626 290.734 123.207 292.104 120.346 292.237C120.53 289.074 120.687 285.93 120.905 282.797C121.107 279.836 121.463 276.875 121.616 273.91C121.975 266.974 122.243 260.04 122.561 253.104C123.138 240.504 123.712 227.909 124.297 215.309C124.702 206.537 124.978 197.749 125.578 188.992C126.224 179.606 127.089 170.235 128.029 160.875C128.932 151.938 129.988 143.017 131.104 134.108C132.125 125.973 133.307 117.857 134.454 109.733C136.107 98.0114 135.326 86.4766 132.385 74.9952C128.806 60.9993 125.494 46.9271 119.891 33.5646C117.654 28.2264 114.682 23.1897 112.043 18.0195C111.856 17.6608 111.65 17.3212 111.355 16.7985C113.397 16.4016 114.721 16.539 116.017 18.3744C118.212 21.4765 120.664 24.4756 123.429 27.0741C127.341 30.7448 128.898 35.6098 131.062 40.2039C132.087 42.3826 133.162 44.5423 134.351 46.6333C134.787 47.4002 135.667 47.9039 136.229 48.6136C136.841 49.3844 137.709 50.2162 137.797 51.09C138.646 59.3242 139.514 67.5699 140.05 75.8309C140.539 83.4012 140.619 90.9867 140.895 98.5609C140.91 99.0798 141.052 99.5911 141.132 100.106C141.319 100.129 141.507 100.152 141.698 100.175C141.843 99.6025 142.142 99.0187 142.119 98.4502C141.759 89.0407 141.507 79.616 140.914 70.218C140.493 63.51 139.575 56.8364 138.929 50.1475C138.883 49.6782 139.227 49.1593 139.445 48.6861C140.195 47.0568 141.388 45.4962 141.66 43.7906C143.186 34.1484 140.076 26.3987 131.881 20.7668C127.395 17.6799 122.736 15.0089 117.336 13.9672C116.453 13.7955 115.413 14.7113 114.418 14.7762C112.72 14.8868 110.376 15.4286 109.408 14.5625C104.058 9.78144 97.4227 8.61766 90.8179 7.32033C88.1829 6.80521 85.479 6.62969 82.7446 6.29391C81.8382 4.87066 80.8936 3.40162 79.6315 1.43273C82.9129 1.57773 85.4523 1.5472 87.9611 1.81812V1.81812ZM137.877 121.478C137.904 121.951 137.981 122.775 138.191 122.829C140.26 123.348 139.606 124.988 139.629 126.251C139.912 144.196 140.436 162.142 140.313 180.079C140.222 193.319 139.633 206.583 138.6 219.785C137.487 234.029 135.793 248.235 133.976 262.414C132.917 270.686 131.299 278.909 128.175 286.731C127.785 287.719 127.31 288.677 126.855 289.635C126.687 289.994 126.469 290.325 125.991 291.161C125.991 286.594 125.945 282.587 126.006 278.585C126.106 271.995 126.274 265.398 126.419 258.808C126.706 246.117 126.771 233.422 127.341 220.747C127.919 207.804 128.813 194.865 129.896 181.956C130.936 169.62 132.259 157.296 133.705 144.998C134.73 136.29 136.175 127.636 137.43 118.963C137.575 118.952 137.721 118.952 137.866 118.94H137.874H137.866C137.866 119.787 137.831 120.635 137.877 121.478V121.478ZM139.292 121.76V113.446C141.109 116.166 145.182 117.433 142.62 121.76H139.292ZM139.564 111.118C138.149 107.925 140.141 104.46 145.863 104.12V117.269C142.75 115.915 140.792 113.881 139.564 111.118ZM128.072 331.924C130.144 330.352 132.026 328.54 134.298 326.571C134.684 326.758 135.464 327.139 136.634 327.712C132.408 332.981 126.783 335.278 120.912 337.178C120.71 337.277 120.514 337.38 120.316 337.48L120.189 337.239C120.373 337.148 120.557 337.064 120.74 336.98V336.987C123.188 335.309 125.712 333.721 128.072 331.924V331.924ZM128.844 329.306C120.346 335.579 111.462 341.261 101.037 343.684C89.9689 346.26 78.7175 346.744 67.3934 345.298C61.5956 344.554 55.8322 343.676 50.4742 341.307C42.5959 337.823 35.0771 333.668 28.5488 327.96C26.2542 325.952 26.2006 325.659 28.5335 323.8C33.3905 319.931 34.3925 314.67 34.4155 308.969C34.4269 304.287 34.4155 299.601 34.4155 294.92V292.626C34.4155 292.626 34.4078 292.623 34.404 292.623H34.4155C35.7272 293.012 36.9013 293.245 37.9645 293.725C38.4005 293.92 38.7791 294.63 38.8633 295.152C39.4599 298.781 39.7658 302.467 40.5575 306.05C42.0987 312.987 46.4624 317.676 52.9333 320.481C63.5346 325.071 74.6789 325.411 85.9724 324.823C92.4739 324.483 98.7689 323.373 104.85 320.973C113.34 317.619 117.948 311.373 119.092 302.44C119.409 299.983 119.612 297.51 120.002 295.065C120.086 294.542 120.637 293.916 121.138 293.668C122.125 293.183 123.23 292.928 124.545 292.489C124.545 294.797 124.507 297.144 124.553 299.495C124.653 304.44 124.672 309.4 124.955 314.338C125.245 319.328 128.71 322.408 132.569 325.693C131.311 326.933 130.209 328.295 128.844 329.306V329.306ZM38.825 337.4C38.7638 337.499 38.7065 337.602 38.6453 337.701L37.888 337.163C32.0788 335.251 26.5142 332.939 22.2462 327.773C23.2558 327.231 24.0245 326.811 24.9271 326.323C28.2849 331.222 33.62 333.527 38.0907 336.926L38.825 337.4ZM115.983 15.2989H115.99C121.658 16.3482 126.259 18.6453 130.393 21.8046C132.688 23.5675 134.81 25.6051 136.784 27.7342C140.593 31.8475 140.577 37.014 140.283 42.1575C140.206 43.4815 139.866 44.8285 139.396 46.0686C138.78 47.6979 137.633 47.9421 136.489 46.6066C135.403 45.3283 134.5 43.8478 133.758 42.333C132.699 40.1733 131.839 37.9106 130.917 35.6861C129.234 31.6415 126.989 28.0166 123.582 25.1319C120.48 22.5106 118.205 19.1985 115.983 15.2989V15.2989ZM98.9219 10.7811C105.66 12.6546 109.997 16.9664 113.168 22.957C119.356 34.6291 123.471 47.0568 126.737 59.7707C129.028 68.6688 130.944 77.67 132.971 86.6369C134.451 93.0968 133.479 98.0801 133.479 98.0801C133.066 103.411 132.726 108.749 132.122 114.056C131.055 123.405 129.708 132.73 128.527 142.067C127.861 147.329 127.249 152.599 126.622 157.887C126.622 157.887 126.614 157.933 126.607 158.021C126.477 159.104 126.347 160.192 126.217 161.279H126.205C126.094 162.313 125.999 163.454 125.953 164.481V164.503C125.953 164.652 125.945 164.813 125.934 164.984C125.922 165.515 125.926 165.999 125.953 166.411L125.819 166.423C125.088 175.424 124.4 184.429 123.834 193.445C123.375 200.607 123.069 207.785 122.717 215.126L122.706 215.347C122.656 216.408 122.603 217.469 122.549 218.537H122.518L122.125 225.352V225.36C122.132 227.34 122.128 229.305 122.067 231.27C121.952 235.094 121.589 238.905 121.413 242.725C121.054 250.585 120.916 258.457 120.365 266.302C119.505 278.516 118.598 290.741 117.302 302.917C116.373 311.701 111.015 317.192 102.754 320.031C97.3424 321.889 91.7855 322.778 86.0795 323.137C77.4478 323.675 68.9002 323.407 60.4941 321.305C55.7863 320.126 51.2467 318.478 47.5753 315.089C43.6553 311.464 41.8846 306.817 41.4256 301.673C40.4427 290.669 39.4675 279.664 38.7868 268.641C38.0142 256.194 37.5706 243.732 36.974 231.274C36.8899 229.481 36.7981 227.691 36.7063 225.871C36.6069 223.959 36.5036 222.013 36.4003 220.006H36.4042L36.496 220.003L36.3353 215.565C35.5246 201.561 34.7252 187.588 33.9145 173.421C33.9145 173.421 33.4173 166.137 32.6333 160.314C32.5339 159.959 32.4688 159.474 32.3924 158.833C32.3541 158.528 32.3197 158.219 32.2814 157.914C32.2814 157.906 32.2776 157.895 32.2776 157.887V157.864C31.0041 147.226 29.6005 136.596 28.3729 125.95C27.3021 116.651 26.4071 107.337 25.3822 98.0343C25.3669 97.9046 25.3478 97.7748 25.3363 97.6451C25.2713 97.0193 25.1986 96.3936 25.1298 95.7678C25.0686 95.2107 25.0992 94.7375 25.2139 94.3255C25.2331 93.1388 25.3134 91.9712 25.4052 90.96C25.3975 90.96 25.3899 90.96 25.3822 90.9677C25.4128 90.7502 25.4434 90.5327 25.4702 90.3152C25.4702 90.2999 25.4702 90.2808 25.474 90.2656C25.6002 89.0293 25.7379 88.1173 25.7799 87.835C25.7876 87.7968 25.7914 87.7663 25.7914 87.7549C25.9865 86.1942 26.1853 84.7061 26.4951 83.2447C29.9753 66.8945 33.9604 50.6626 40.1865 35.0985C42.2593 29.9244 44.925 24.964 47.5715 20.038C50.2409 15.07 54.6849 12.2807 60.0467 10.7811C73.0076 7.14862 85.938 7.1677 98.9257 10.7811H98.9219ZM11.1592 89.6703C10.9642 74.5641 11.0827 59.4616 11.1439 44.3591C11.1516 41.7454 11.3696 39.1202 11.6449 36.5179C12.1689 31.4431 15.2399 27.7571 18.8425 24.5939C31.9449 13.0896 47.1661 5.8284 64.33 2.76822C68.6478 1.99745 73.0688 1.81812 77.4439 1.39458C77.7728 1.36024 78.1209 1.4976 78.4421 1.55865V1.56628C78.5033 4.11516 76.614 6.25957 74.3309 6.51522C67.3398 7.29743 60.3871 8.30096 53.9888 11.4909C52.7956 12.0861 51.4838 12.7386 50.6578 13.7269C49.2542 15.4134 47.5141 15.4248 45.6631 15.3676C45.3189 15.3562 44.7567 15.3409 44.6725 15.1539C43.6132 12.8569 41.7966 13.7688 40.2592 14.2C32.2203 16.4627 25.4969 20.866 20.3837 27.4137C18.8463 29.3826 17.7716 32.0498 17.4389 34.5261C16.9761 37.9831 17.4007 41.5622 17.4771 45.0879C17.4848 45.4962 17.588 46.019 17.8519 46.2822C21.2557 49.6744 19.3511 53.6732 19.0872 57.4202C18.7086 62.8575 17.9055 68.2644 17.5957 73.7017C17.1482 81.5544 16.9685 89.4223 16.7199 97.2826C16.6931 98.2174 16.9264 99.1599 17.0412 100.099C17.2324 100.106 17.4312 100.11 17.6225 100.118C17.7334 99.7094 17.9284 99.3049 17.9437 98.8966C18.089 93.4364 17.982 87.9609 18.3874 82.5236C19.1867 71.874 20.2498 61.2359 21.2786 50.5978C21.3474 49.9262 22.0473 49.289 22.5215 48.6861C23.6459 47.2552 25.0724 45.9999 25.91 44.424C27.4015 41.608 28.5679 38.6242 29.8224 35.6937C31.3177 32.2024 33.2643 29.1346 36.19 26.5399C38.6529 24.3535 40.8175 21.694 42.5806 18.9047C43.8847 16.8328 45.3074 16.3139 47.625 16.7641C46.6842 18.3019 45.7243 19.7633 44.8676 21.2857C38.2322 33.0571 34.1172 45.7976 30.7746 58.7862C28.3423 68.2262 26.2312 77.7616 24.2081 87.3008C22.9002 93.4593 23.3476 99.7208 24.0972 105.925C25.0839 114.136 26.2389 122.329 27.2944 130.536C28.2811 138.179 29.3099 145.818 30.1742 153.476C31.027 161.066 31.8799 168.666 32.3924 176.286C33.1534 187.52 33.6276 198.78 34.186 210.028C34.6411 219.083 35.0465 228.141 35.4634 237.204C35.8993 246.613 36.2512 256.03 36.7904 265.436C37.2953 274.33 37.9913 283.209 38.607 292.092C36.0294 292.478 34.1745 290.844 34.1439 288.131C34.0942 283.515 34.1095 278.901 34.0407 274.288C33.9221 266.271 33.773 258.262 33.62 250.249C33.4861 243.37 33.4861 236.486 33.1611 229.618C32.6256 218.16 31.9181 206.712 31.1838 195.262C30.6867 187.493 30.113 179.72 29.3825 171.967C28.5756 163.37 27.738 154.766 26.5754 146.215C25.0151 134.714 22.9193 123.29 21.4469 111.782C20.5443 104.677 21.2939 97.5116 22.25 90.4182C24.0437 77.132 26.736 64.0328 30.7861 51.2426C31.9181 47.6635 33.2605 44.1493 34.4881 40.6007C34.6947 39.9902 34.8056 39.3491 34.5302 38.5936C29.6464 48.9265 26.6749 59.8622 24.3267 70.9811C21.9594 82.1992 20.1275 93.4975 19.8368 105.002C17.4924 104.033 15.3814 103.166 12.7693 102.094C12.2568 98.3167 11.2166 94.0011 11.1592 89.6703V89.6703ZM42.8865 15.9247C40.9055 18.4736 39.2916 21.4612 36.8669 23.4835C31.4554 28.0089 28.6406 33.9996 26.0438 40.242C25.256 42.1308 24.3343 43.989 23.2214 45.6946C22.7166 46.4654 21.5922 47.2323 20.7432 47.2476C20.2192 47.2552 19.332 45.874 19.202 45.0269C18.1388 38.006 17.9514 31.2637 23.8524 25.7653C29.2028 20.7744 35.1 17.0198 42.2555 15.3867C42.4659 15.5622 42.6724 15.7415 42.8827 15.9209H42.8865V15.9247ZM19.7718 113.618V121.775H16.1539C14.1881 117.582 17.3318 115.991 19.7718 113.618ZM13.7866 117.353C13.5648 117.204 13.3391 117.055 13.1173 116.907V103.975C15.6032 104.071 17.7754 104.941 19.114 106.982C20.3684 108.905 19.7527 111.05 18.4218 112.717C17.0641 114.411 15.3469 115.819 13.7866 117.353V117.353ZM19.244 124.736C19.267 124.179 19.9745 123.653 20.334 123.096C20.812 122.348 21.2633 121.585 21.6955 120.879C30.8855 176.771 32.6333 233.449 32.8436 290.219C32.6639 290.287 32.488 290.348 32.3082 290.417C31.245 287.716 29.7688 285.094 29.1913 282.293C27.107 272.186 24.9462 262.063 23.5235 251.848C21.9708 240.714 21.0721 229.477 20.1466 218.263C19.5653 211.204 19.3129 204.11 19.1599 197.028C18.8195 181.434 18.4983 165.831 18.4371 150.233C18.4026 141.735 18.9075 133.23 19.244 124.736V124.736ZM9.83979 129.922C7.41128 130.552 5.18165 131.94 2.85258 132.959C2.61929 133.062 2.30569 132.971 1.75498 132.971C1.54463 129.72 1.88501 126.816 4.5315 124.797C7.4916 122.542 10.5664 120.444 13.5915 118.273C13.821 118.372 14.0581 118.467 14.2914 118.566C14.3564 119.829 14.2914 121.112 14.5017 122.34C15.1825 126.27 14.0466 128.831 9.83979 129.922V129.922ZM11.2242 247.216C11.8553 239.184 11.5684 231.079 11.5952 223.005C11.6181 217.538 11.4575 212.074 11.4575 206.606C11.4575 195.46 11.4154 184.311 11.5799 173.165C11.7214 163.454 12.1077 153.747 12.4098 144.04C12.5283 140.217 12.6928 136.393 12.8305 132.566C12.8764 131.193 13.0102 129.96 14.4903 129.189C16.2457 128.277 15.7332 126.48 15.7103 124.973C15.6873 123.508 16.0506 122.76 17.458 123.252L17.4657 123.267C17.4657 129.231 17.5001 134.959 17.4542 140.69C17.3701 152.183 17.0335 163.679 17.1903 175.164C17.3586 187.279 17.7219 199.405 18.483 211.497C19.2976 224.352 20.5902 237.181 21.8637 250.001C22.3992 255.416 23.3859 260.788 24.2464 266.172C24.4873 267.683 24.3381 268.588 22.6439 269.232C16.1271 271.728 15.7867 271.636 13.1938 265.131C10.8839 259.338 10.7385 253.416 11.2242 247.216V247.216ZM19.3779 325.357C19.3396 325.235 19.2823 325.117 19.267 324.995C19.2631 324.953 19.3511 324.903 19.4085 324.854C19.4505 324.976 19.5003 325.098 19.5156 325.22C19.5194 325.258 19.4238 325.308 19.3779 325.357ZM19.6226 311.045C19.332 314.692 19.1484 318.348 18.9801 322.003C18.9495 322.648 19.1484 323.312 18.9878 324.018C15.4158 316.223 10.4211 308.965 10.662 299.846C10.7844 295.168 10.62 290.478 10.5588 285.796C10.4746 278.844 10.3676 271.9 10.2681 264.951C10.2605 264.203 10.2681 263.455 10.2681 262.708C10.4593 262.666 10.6467 262.616 10.8418 262.574C11.251 263.704 11.599 264.856 12.0809 265.947C12.7043 267.382 13.3506 268.805 14.1155 270.163C14.9951 271.728 16.2648 272.548 18.1847 271.919C20.2728 271.236 22.3915 270.656 24.7741 269.95C25.1833 271.713 25.4816 273.571 26.0515 275.345C27.7227 280.519 29.1454 285.819 31.3865 290.745C32.6295 293.481 33.0808 296.152 33.0846 298.918C33.0922 304.287 32.9354 309.679 32.4612 315.028C32.094 319.138 29.1225 321.74 25.5008 324.602C24.3114 320.282 23.2367 316.409 22.1773 312.533C22.0511 312.052 22.0932 311.503 21.8714 311.087C21.6075 310.591 21.1409 310.201 20.7661 309.763C20.3684 310.186 19.6532 310.591 19.6226 311.045V311.045ZM20.5673 314.101C21.8599 318.035 23.0149 321.545 24.2464 325.292C23.5503 325.636 22.774 326.029 21.8331 326.498C20.1428 322.503 20.1657 318.546 20.5673 314.101V314.101ZM132.171 337.586C125.425 341.78 118.071 344.6 110.491 346.813C102.314 349.198 94.0037 350.777 85.437 351.258C65.5883 352.368 47.0016 348.022 29.3443 339.174C25.5467 337.27 22.7472 334.549 21.661 330.325C21.554 330.123 21.4431 329.928 21.336 329.726C21.4201 329.68 21.4966 329.635 21.5769 329.589C21.684 329.764 21.7949 329.944 21.902 330.123C29.3099 336.98 38.7485 339.529 48.0533 342.28C53.4725 343.875 58.9414 345.42 64.4907 346.454C73.3251 348.106 82.2474 348.064 91.1889 346.958C104.639 345.298 117.225 340.837 129.494 335.389C132.099 334.233 134.359 332.306 137.044 330.562C136.214 333.645 134.73 335.999 132.171 337.586V337.586ZM137.227 330.184C137.197 330.134 137.135 330.089 137.135 330.047C137.139 330.005 137.204 329.967 137.242 329.925C137.273 329.97 137.33 330.016 137.33 330.058C137.327 330.1 137.265 330.142 137.227 330.184ZM137.701 329.291L137.602 329.215L137.717 329.154L137.701 329.291ZM137.33 326.3C134.948 325.945 134.55 324.991 135.338 323.034C136.458 320.244 137.254 317.321 138.176 314.49C139.422 318.481 138.298 322.331 137.33 326.3V326.3ZM148.49 289.765C148.421 294.927 148.108 300.09 147.702 305.237C147.557 307.107 147.052 309.03 146.306 310.755C144.318 315.36 142.115 319.87 139.702 324.369C139.828 322.77 140.107 321.168 140.057 319.58C139.965 316.841 139.74 314.101 139.403 311.388C139.331 310.804 138.554 310.312 138.099 309.774C137.732 310.301 137.2 310.785 137.032 311.373C135.827 315.639 134.695 319.924 133.472 324.461C128.634 321.244 126.052 317.329 125.972 312.021C125.888 306.416 125.915 300.815 125.934 295.21C125.934 294.53 126.048 293.744 126.396 293.187C130.443 286.67 132.091 279.348 133.625 271.987C133.77 271.301 133.957 270.625 134.133 269.919C136.34 270.598 138.443 271.197 140.516 271.888C142.7 272.613 144.157 271.671 145.037 269.828C146.241 267.294 147.255 264.673 148.524 261.689C148.524 271.327 148.609 280.546 148.49 289.765V289.765ZM147.637 207.411C147.519 216.343 146.983 225.268 146.995 234.193C147.006 239.84 147.675 245.484 148.081 251.131C148.555 257.717 146.666 263.753 143.679 269.484C143.331 270.144 141.855 270.686 141.029 270.545C139.09 270.213 137.189 269.526 135.365 268.767C134.906 268.572 134.5 267.512 134.573 266.916C135.885 256.389 137.388 245.877 138.608 235.334C139.308 229.29 139.713 223.2 140.011 217.122C140.562 206.01 141.109 194.895 141.331 183.773C141.606 169.658 141.637 155.537 141.621 141.419C141.614 136.325 141.155 131.235 140.918 126.137C140.879 125.232 140.914 124.328 140.914 123.29H143.117C143.117 124.385 142.891 125.435 143.174 126.316C143.534 127.43 144.31 128.407 144.895 129.449C145.274 130.12 145.939 130.796 145.966 131.49C146.337 142.403 146.658 153.312 146.922 164.229C147.125 172.451 147.239 180.678 147.381 188.905C147.488 195.075 147.718 201.245 147.637 207.411ZM152.058 131.288C149.985 130.384 147.909 129.479 145.886 128.468C145.308 128.178 144.52 127.556 144.494 127.053C144.356 124.267 144.429 121.474 144.773 118.532C149.4 121.55 155.106 123.077 156.881 129.052C157.229 130.227 157.103 131.54 157.244 133.451C155.141 132.578 153.588 131.96 152.058 131.288V131.288Z" fill="#747474"/>
</svg>
