<svg width="107" height="83" viewBox="0 0 107 83" fill="none" xmlns="http://www.w3.org/2000/svg">
<path d="M1.76709 81.5616C1.76709 81.5616 8.78293 39.6484 18.5269 22.192C28.271 4.73559 30.7437 2.46405 53.6913 2.05386C76.6389 1.64367 80.9653 7.10774 88.4764 21.7895C95.9876 36.4713 104.447 72.7425 104.861 81.5035C104.861 81.5035 81.0465 66.516 53.6913 67.5531C26.3361 68.5902 19.3822 73.2494 1.76709 81.5616Z" fill="#FEFEFE" stroke="#747474" stroke-width="2.5" stroke-linecap="round" stroke-linejoin="round"/>
<rect x="41" y="26" width="25" height="25" rx="5" fill="url(#paint0_linear_195_52)"/>
<path d="M61.944 36.0641L55.4701 36.0634L55.4698 30.056C55.4701 28.9205 54.5492 28 53.4137 28C52.2786 28 51.358 28.9205 51.358 30.056V36.0637L45.056 36.0634C43.9205 36.0637 43 36.9842 43 38.1194C43.0007 39.2549 43.9205 40.1751 45.056 40.1751H51.358V46.944C51.358 48.0805 52.2786 49 53.4141 49C54.5496 49 55.4697 48.0795 55.4701 46.9447V40.1751H61.9447C63.0795 40.1751 64 39.2549 64 38.1201C64.001 36.9839 63.0795 36.0634 61.944 36.0641Z" fill="white"/>
<defs>
<linearGradient id="paint0_linear_195_52" x1="53.5" y1="26" x2="53.5" y2="51" gradientUnits="userSpaceOnUse">
<stop stop-color="#665492"/>
<stop offset="1" stop-color="#683D89"/>
</linearGradient>
</defs>
</svg>
