<svg width="92" height="61" viewBox="0 0 92 61" fill="none" xmlns="http://www.w3.org/2000/svg">
<path d="M1.34814 5.94803C1.34814 5.94803 46.5583 -4.56606 90.0078 5.94803L86.7495 59.4898H4.42072L1.34814 5.94803Z" fill="#FEFEFE" stroke="#747474" stroke-width="2.5" stroke-linecap="round" stroke-linejoin="round"/>
<rect x="33" y="20" width="25" height="25" rx="5" fill="url(#paint0_linear_195_50)"/>
<path d="M53.944 30.0641L47.4701 30.0634L47.4698 24.056C47.4701 22.9205 46.5492 22 45.4137 22C44.2786 22 43.358 22.9205 43.358 24.056V30.0637L37.056 30.0634C35.9205 30.0637 35 30.9842 35 32.1194C35.0007 33.2549 35.9205 34.1751 37.056 34.1751H43.358V40.944C43.358 42.0805 44.2786 43 45.4141 43C46.5496 43 47.4697 42.0795 47.4701 40.9447V34.1751H53.9447C55.0795 34.1751 56 33.2549 56 32.1201C56.001 30.9839 55.0795 30.0634 53.944 30.0641Z" fill="white"/>
<defs>
<linearGradient id="paint0_linear_195_50" x1="45.5" y1="20" x2="45.5" y2="45" gradientUnits="userSpaceOnUse">
<stop stop-color="#665492"/>
<stop offset="1" stop-color="#683D89"/>
</linearGradient>
</defs>
</svg>
