<svg width="85" height="103" viewBox="0 0 85 103" fill="none" xmlns="http://www.w3.org/2000/svg">
<path d="M1.31982 1.772H83.3158C83.3158 1.772 82.6889 29.3284 82.1936 36.0928C81.6982 42.8571 81.2377 58.216 79.7285 71.0442C78.2193 83.8724 79.7672 100.903 45.907 100.83C12.0468 100.756 6.7452 93.2488 5.33275 70.9552C3.92029 48.6617 1.31982 1.772 1.31982 1.772Z" fill="#FEFEFE" stroke="#747474" stroke-width="2.5" stroke-linecap="round" stroke-linejoin="round"/>
<rect x="30" y="34" width="25" height="25" rx="5" fill="url(#paint0_linear_195_49)"/>
<path d="M50.944 44.0641L44.4701 44.0634L44.4698 38.056C44.4701 36.9205 43.5492 36 42.4137 36C41.2786 36 40.358 36.9205 40.358 38.056V44.0637L34.056 44.0634C32.9205 44.0637 32 44.9842 32 46.1194C32.0007 47.2549 32.9205 48.1751 34.056 48.1751H40.358V54.944C40.358 56.0805 41.2786 57 42.4141 57C43.5496 57 44.4697 56.0795 44.4701 54.9447V48.1751H50.9447C52.0795 48.1751 53 47.2549 53 46.1201C53.001 44.9839 52.0795 44.0634 50.944 44.0641Z" fill="white"/>
<defs>
<linearGradient id="paint0_linear_195_49" x1="42.5" y1="34" x2="42.5" y2="59" gradientUnits="userSpaceOnUse">
<stop stop-color="#665492"/>
<stop offset="1" stop-color="#683D89"/>
</linearGradient>
</defs>
</svg>
