<svg width="107" height="83" viewBox="0 0 107 83" fill="none" xmlns="http://www.w3.org/2000/svg">
<path d="M1.53516 18.8831C1.53516 18.8831 16.2324 2.58379 53.6916 1.84854C91.1507 1.11328 105.434 18.3646 105.434 18.3646C105.434 18.3646 100.345 77.5678 98.2632 81.7123C98.2632 81.7123 70.6488 77.3782 52.5539 77.1498C36.9743 76.9525 9.34817 81.5652 9.34817 81.5652C9.34817 81.5652 0.92374 27.3656 1.53516 18.8793V18.8831Z" fill="#FEFEFE" stroke="#747474" stroke-width="2.5" stroke-linecap="round" stroke-linejoin="round"/>
<rect x="41" y="31" width="25" height="25" rx="5" fill="url(#paint0_linear_195_51)"/>
<path d="M61.944 41.0641L55.4701 41.0634L55.4698 35.056C55.4701 33.9205 54.5492 33 53.4137 33C52.2786 33 51.358 33.9205 51.358 35.056V41.0637L45.056 41.0634C43.9205 41.0637 43 41.9842 43 43.1194C43.0007 44.2549 43.9205 45.1751 45.056 45.1751H51.358V51.944C51.358 53.0805 52.2786 54 53.4141 54C54.5496 54 55.4697 53.0795 55.4701 51.9447V45.1751H61.9447C63.0795 45.1751 64 44.2549 64 43.1201C64.001 41.9839 63.0795 41.0634 61.944 41.0641Z" fill="white"/>
<defs>
<linearGradient id="paint0_linear_195_51" x1="53.5" y1="31" x2="53.5" y2="56" gradientUnits="userSpaceOnUse">
<stop stop-color="#665492"/>
<stop offset="1" stop-color="#683D89"/>
</linearGradient>
</defs>
</svg>
