<svg width="45" height="45" viewBox="0 0 45 45" fill="none" xmlns="http://www.w3.org/2000/svg">
<g filter="url(#filter0_d_71_1285)">
<rect x="10" y="10" width="25" height="25" rx="5" fill="#615187"/>
<rect x="8" y="8" width="29" height="29" rx="7" stroke="white" stroke-width="4"/>
</g>
<path d="M30.944 20.0641L24.4701 20.0634L24.4698 14.056C24.4701 12.9205 23.5492 12 22.4137 12C21.2786 12 20.358 12.9205 20.358 14.056V20.0637L14.056 20.0634C12.9205 20.0637 12 20.9842 12 22.1194C12.0007 23.2549 12.9205 24.1751 14.056 24.1751H20.358V30.944C20.358 32.0805 21.2786 33 22.4141 33C23.5496 33 24.4698 32.0795 24.4701 30.9447V24.1751H30.9447C32.0795 24.1751 33 23.2549 33 22.1201C33.001 20.9839 32.0795 20.0634 30.944 20.0641Z" fill="white"/>
<defs>
<filter id="filter0_d_71_1285" x="0" y="0" width="45" height="45" filterUnits="userSpaceOnUse" color-interpolation-filters="sRGB">
<feFlood flood-opacity="0" result="BackgroundImageFix"/>
<feColorMatrix in="SourceAlpha" type="matrix" values="0 0 0 0 0 0 0 0 0 0 0 0 0 0 0 0 0 0 127 0" result="hardAlpha"/>
<feOffset/>
<feGaussianBlur stdDeviation="3"/>
<feComposite in2="hardAlpha" operator="out"/>
<feColorMatrix type="matrix" values="0 0 0 0 0 0 0 0 0 0 0 0 0 0 0 0 0 0 0.35 0"/>
<feBlend mode="normal" in2="BackgroundImageFix" result="effect1_dropShadow_71_1285"/>
<feBlend mode="normal" in="SourceGraphic" in2="effect1_dropShadow_71_1285" result="shape"/>
</filter>
</defs>
</svg>
