<svg width="19" height="19" viewBox="0 0 19 19" fill="none" xmlns="http://www.w3.org/2000/svg">
<path d="M9.50005 12.1906C10.1369 12.1906 10.6532 11.6744 10.6532 11.0375C10.6532 10.4007 10.1369 9.8844 9.50005 9.8844C8.8632 9.8844 8.34692 10.4007 8.34692 11.0375C8.34692 11.6744 8.8632 12.1906 9.50005 12.1906Z" fill="white"/>
<path d="M14.8815 5.6563H12.5752V4.50317C12.5752 3.99346 12.3728 3.50462 12.0123 3.1442C11.6519 2.78378 11.1631 2.5813 10.6534 2.5813H8.34712C7.83741 2.5813 7.34857 2.78378 6.98815 3.1442C6.62773 3.50462 6.42524 3.99346 6.42524 4.50317V5.6563H4.11899C3.50734 5.6563 2.92073 5.89928 2.48823 6.33178C2.05572 6.76429 1.81274 7.35089 1.81274 7.96255V14.1125C1.81274 14.7242 2.05572 15.3108 2.48823 15.7433C2.92073 16.1758 3.50734 16.4188 4.11899 16.4188H14.8815C15.4931 16.4188 16.0798 16.1758 16.5123 15.7433C16.9448 15.3108 17.1877 14.7242 17.1877 14.1125V7.96255C17.1877 7.35089 16.9448 6.76429 16.5123 6.33178C16.0798 5.89928 15.4931 5.6563 14.8815 5.6563ZM7.96274 4.50317C7.96274 4.40123 8.00324 4.30346 8.07532 4.23138C8.14741 4.1593 8.24518 4.1188 8.34712 4.1188H10.6534C10.7553 4.1188 10.8531 4.1593 10.9252 4.23138C10.9972 4.30346 11.0377 4.40123 11.0377 4.50317V5.6563H7.96274V4.50317ZM9.50024 13.7282C8.96809 13.7282 8.44788 13.5704 8.00541 13.2747C7.56294 12.9791 7.21808 12.5589 7.01443 12.0672C6.81078 11.5756 6.7575 11.0346 6.86132 10.5126C6.96514 9.9907 7.22139 9.51128 7.59768 9.13499C7.97398 8.7587 8.4534 8.50244 8.97533 8.39862C9.49726 8.2948 10.0383 8.34809 10.5299 8.55173C11.0215 8.75538 11.4418 9.10025 11.7374 9.54272C12.0331 9.98519 12.1909 10.5054 12.1909 11.0375C12.1909 11.7511 11.9074 12.4355 11.4028 12.9401C10.8982 13.4447 10.2138 13.7282 9.50024 13.7282Z" fill="white"/>
</svg>
