<svg width="58" height="40" viewBox="0 0 58 40" fill="none" xmlns="http://www.w3.org/2000/svg">
<path d="M23.5283 23.0051C23.5283 23.7684 23.2988 24.5146 22.8687 25.1492C22.4386 25.7839 21.8273 26.2783 21.1122 26.5702C20.397 26.8621 19.6102 26.9382 18.8512 26.7889C18.0922 26.6395 17.3952 26.2715 16.8483 25.7314C16.3015 25.1912 15.9294 24.5032 15.7791 23.7543C15.6287 23.0055 15.7071 22.2296 16.004 21.5247C16.301 20.8197 16.8032 20.2176 17.4472 19.7942C18.0913 19.371 18.8482 19.1456 19.6221 19.1467C20.1356 19.1467 20.644 19.2466 21.1183 19.4405C21.5925 19.6345 22.0234 19.9188 22.3863 20.2772C22.7491 20.6355 23.0367 21.0609 23.2326 21.529C23.4286 21.9971 23.5291 22.4986 23.5283 23.0051Z" fill="url(#paint0_linear_21_3)"/>
<path d="M40.2896 23.0051C40.2896 23.7681 40.0601 24.5141 39.6303 25.1486C39.2004 25.7832 38.5895 26.2777 37.8747 26.5697C37.1599 26.8617 36.3734 26.9381 35.6146 26.7893C34.8557 26.6404 34.1587 26.2729 33.6116 25.7333C33.0645 25.1937 32.6919 24.5062 32.541 23.7578C32.3901 23.0093 32.4675 22.2335 32.7636 21.5286C33.0596 20.8235 33.5611 20.221 34.2044 19.797C34.8477 19.373 35.604 19.1467 36.3777 19.1467C36.8917 19.146 37.4006 19.2453 37.8756 19.4389C38.3506 19.6326 38.7821 19.9168 39.1455 20.2752C39.5089 20.6336 39.797 21.0593 39.9933 21.5277C40.1897 21.9961 40.2904 22.4981 40.2896 23.0051Z" fill="url(#paint1_linear_21_3)"/>
<path d="M57.8869 17.7308C57.8093 16.9453 57.5003 16.1995 56.9981 15.5852C56.4958 14.9709 55.8222 14.515 55.0604 14.2739C54.6194 14.1289 54.1672 13.995 53.715 13.8668L53.2232 9.23905C53.06 8.11248 52.6063 7.0461 51.9055 6.14207C51.2047 5.23804 50.2803 4.52663 49.2208 4.076C42.8341 1.36758 35.952 -0.0196166 29 0.000209556C22.0537 -0.0173285 15.1775 1.36982 8.79608 4.076C7.73662 4.52663 6.81221 5.23804 6.11142 6.14207C5.41062 7.0461 4.95691 8.11248 4.79376 9.23905L4.30194 13.8668C3.84971 13.995 3.39746 14.1289 2.95652 14.2739C2.19471 14.515 1.52113 14.9709 1.01886 15.5852C0.516596 16.1995 0.207611 16.9453 0.130019 17.7308C0.0452239 18.6619 0 19.6097 0 20.5687C0 21.5277 0.0452239 22.47 0.130019 23.4012C0.207265 24.1873 0.51603 24.934 1.01826 25.5493C1.52051 26.1645 2.19427 26.6214 2.95652 26.8636C3.39746 27.0086 3.84971 27.1424 4.30194 27.2651C4.47531 28.5326 4.69954 29.776 4.97465 30.9952C5.23277 32.1418 5.76724 33.2103 6.53282 34.11C7.29839 35.0096 8.27254 35.7141 9.3727 36.1638C15.5922 38.7142 22.2643 40.0183 29 39.9998C35.7357 40.0183 42.4077 38.7142 48.6272 36.1638C49.7275 35.7141 50.7016 35.0096 51.4672 34.11C52.2327 33.2103 52.7672 32.1418 53.0253 30.9952C53.2966 29.7723 53.5209 28.5288 53.698 27.2651C54.1502 27.1424 54.6025 27.0086 55.0434 26.8636C55.8057 26.6214 56.4794 26.1645 56.9817 25.5493C57.4839 24.934 57.7927 24.1873 57.8699 23.4012C57.9548 22.47 58 21.5277 58 20.5687C58 19.6097 57.9717 18.6619 57.8869 17.7308ZM49.2717 29.289C49.1919 29.9559 48.9292 30.5887 48.5118 31.1192C48.0944 31.6498 47.5383 32.058 46.9031 32.2999C41.1755 34.4025 35.1115 35.4733 29 35.4613C22.8885 35.4733 16.8245 34.4025 11.0969 32.2999C10.4617 32.058 9.90551 31.6498 9.48813 31.1192C9.07076 30.5887 8.80807 29.9559 8.72829 29.289C8.20067 25.1757 8.20067 21.0133 8.72829 16.8999C8.80807 16.2331 9.07076 15.6002 9.48813 15.0697C9.90551 14.5392 10.4617 14.131 11.0969 13.8891C16.8245 11.7865 22.8885 10.7156 29 10.7278C35.1115 10.7156 41.1755 11.7865 46.9031 13.8891C47.5383 14.131 48.0944 14.5392 48.5118 15.0697C48.9292 15.6002 49.1919 16.2331 49.2717 16.8999C49.7992 21.0133 49.7992 25.1757 49.2717 29.289Z" fill="url(#paint2_linear_21_3)"/>
<defs>
<linearGradient id="paint0_linear_21_3" x1="23.4687" y1="18.6904" x2="13.7023" y2="23.7216" gradientUnits="userSpaceOnUse">
<stop stop-color="#D685F1"/>
<stop offset="1" stop-color="#6E487A"/>
</linearGradient>
<linearGradient id="paint1_linear_21_3" x1="40.23" y1="18.6904" x2="30.4635" y2="23.7216" gradientUnits="userSpaceOnUse">
<stop stop-color="#D685F1"/>
<stop offset="1" stop-color="#6E487A"/>
</linearGradient>
<linearGradient id="paint2_linear_21_3" x1="57.5581" y1="-2.36543" x2="-1.82469" y2="41.3849" gradientUnits="userSpaceOnUse">
<stop stop-color="#D685F1"/>
<stop offset="1" stop-color="#6E487A"/>
</linearGradient>
</defs>
</svg>
