<svg width="25" height="25" viewBox="0 0 33 33" fill="none" xmlns="http://www.w3.org/2000/svg">
<rect x="2" y="2" width="29" height="29" rx="7" fill="#615187" stroke="white" stroke-width="4"/>
<path d="M24.944 14.0641L18.4701 14.0634L18.4698 8.05603C18.4701 6.92052 17.5492 6 16.4137 6C15.2786 6 14.358 6.92052 14.358 8.05603V14.0637L8.05603 14.0634C6.92052 14.0637 6 14.9842 6 16.1194C6.0007 17.2549 6.92052 18.1751 8.05603 18.1751H14.358V24.944C14.358 26.0805 15.2786 27 16.4141 27C17.5496 27 18.4697 26.0795 18.4701 24.9447V18.1751H24.9447C26.0795 18.1751 27 17.2549 27 16.1201C27.001 14.9839 26.0795 14.0634 24.944 14.0641Z" fill="white"/>
</svg>
