<svg width="17" height="21" viewBox="0 0 17 21" fill="none" xmlns="http://www.w3.org/2000/svg">
<path d="M14.2311 10.3047L14.5326 6.68677H15.0602C15.4595 6.68677 15.7831 6.36307 15.7831 5.96386V4.64461C15.7831 3.40044 14.7709 2.3882 13.5267 2.3882H11.0121V2.05425C11.0121 0.921454 10.0905 0 8.95787 0H6.84938C5.71665 0 4.7952 0.921454 4.7952 2.05418V2.38813H2.28057C1.03641 2.38813 0.0241699 3.40037 0.0241699 4.64453V5.96379C0.0241699 6.363 0.347867 6.6867 0.747079 6.6867H1.2747L2.25696 18.4758C2.3749 19.8912 3.57996 21 5.00032 21H10.8067C12.2102 21 13.4027 19.9173 13.5447 18.5259C15.5007 18.1225 16.9759 16.3869 16.9759 14.3132C16.976 12.4903 15.8355 10.9298 14.2311 10.3047ZM6.24102 2.05418C6.24102 1.71875 6.51395 1.44582 6.84938 1.44582H8.95787C9.29337 1.44582 9.5663 1.71875 9.5663 2.05418V2.38813H6.24102V2.05418V2.05418ZM1.46985 5.24102V4.64461C1.46985 4.1976 1.83349 3.83395 2.2805 3.83395H13.5267C13.9737 3.83395 14.3373 4.1976 14.3373 4.64461V5.24102H1.46985ZM10.8068 19.5542H5.00039C4.32599 19.5542 3.75383 19.0278 3.69783 18.3557L2.72539 6.68677H13.0818L12.8044 10.0154C12.7612 10.0141 12.7181 10.0121 12.6747 10.0121C10.3029 10.0121 8.37347 11.9416 8.37347 14.3132C8.37347 16.4802 9.98453 18.2771 12.0717 18.5713C11.9252 19.1369 11.4071 19.5542 10.8068 19.5542ZM12.6747 17.1687C11.1001 17.1687 9.81922 15.8877 9.81922 14.3132C9.81922 12.7387 11.1001 11.4578 12.6747 11.4578C14.2492 11.4578 15.5301 12.7387 15.5301 14.3132C15.5301 15.8877 14.2492 17.1687 12.6747 17.1687Z" fill="white"/>
<path d="M13.6972 14.3132L14.3789 13.6316C14.6611 13.3493 14.6611 12.8915 14.3787 12.6093C14.0963 12.327 13.6388 12.327 13.3564 12.6093L12.6748 13.2909L11.9931 12.6093C11.7107 12.327 11.2532 12.327 10.9708 12.6093C10.6884 12.8916 10.6884 13.3493 10.9708 13.6316L11.6524 14.3132L10.9708 14.9949C10.6884 15.2772 10.6884 15.7349 10.9708 16.0172C11.112 16.1584 11.297 16.2289 11.482 16.2289C11.667 16.2289 11.852 16.1584 11.9932 16.0172L12.6748 15.3356L13.3564 16.0172C13.4976 16.1584 13.6826 16.2289 13.8677 16.2289C14.0527 16.2289 14.2377 16.1584 14.3789 16.0172C14.6612 15.7349 14.6612 15.2772 14.3789 14.9949L13.6972 14.3132Z" fill="white"/>
</svg>
