<svg width="48" height="95" viewBox="0 0 48 95" fill="none" xmlns="http://www.w3.org/2000/svg">
<path d="M47 3.98L43.85 20.09C43.08 20.01 42.29 19.98 41.5 19.98C41.33 19.98 41.17 19.98 41 19.99C25.49 20.25 13 32.91 13 48.48C13 61.26 21.41 72.07 32.99 75.68L30 90.98C30 90.98 29 95.98 22 93.98C15 91.98 1 87.98 1 78.98V35.98C1 32.26 1.38 27.79 15 20.98C27 14.98 27 12.98 28 10.98C30 6.98 30 4.98 40 1.98C43.03 1.07 47.72 0.98 47 3.98V3.98Z" fill="#FEFEFE" fill-opacity="0.7" stroke="#747474"/>
</svg>
