<svg width="43" height="28" viewBox="0 0 43 28" fill="none" xmlns="http://www.w3.org/2000/svg">
<path d="M41.0471 22.9163C35.5745 17.4436 35.4914 17.4824 33.5028 16.1364C33.1926 15.9259 32.9323 15.7819 32.7384 15.7154C31.0767 15.1615 24.1749 12.4196 20.4249 9.07954C16.6749 5.74498 11.1358 1.86759 7.25842 2.4215C7.25842 2.4215 1.83562 5.68958 2.33414 12.6412C2.83266 19.5928 1.14322 22.3624 12.2326 24.578C23.3219 26.7937 33.8462 27.9015 41.0471 22.9163Z" fill="#FEFDFE" stroke="#747474" stroke-width="3" stroke-linecap="round" stroke-linejoin="round"/>
<path d="M32.1849 16.2693C32.1849 16.2693 23.7211 18.0917 15.7669 14.4082C7.81271 10.7302 7.8127 7.96063 7.25879 3.52933" fill="#FEFDFE"/>
<path d="M32.2845 16.718C25.6486 18.1582 18.5474 17.3716 12.5264 14.1257C7.76276 11.7051 6.17857 8.90783 5.56926 3.74536C5.40863 2.81478 6.029 1.93406 6.95957 1.76789C7.94 1.59063 8.87058 2.31072 8.95366 3.30223C9.06998 4.6427 9.13091 5.91116 9.40233 6.96913C10.3218 10.4976 13.9167 12.187 17.0796 13.821C19.3617 14.8679 21.8488 15.5271 24.3968 15.8484C26.9337 16.1641 29.5703 16.1862 32.0962 15.8262C32.6667 15.7099 32.8772 16.5795 32.29 16.718H32.2845Z" fill="#747474"/>
<path d="M27.487 13.4998C27.487 13.4998 14.6141 13.7989 10.6592 11.1567Z" fill="#FEFDFE"/>
<path d="M27.4926 13.6826C22.8231 13.8653 18.0872 13.8986 13.4731 12.9846C12.3763 12.7354 11.2131 12.3698 10.2327 11.7993C9.85049 11.6054 9.6954 11.1401 9.88927 10.7579C10.1108 10.3037 10.7091 10.1984 11.0913 10.5142C13.3014 11.9266 16.3424 12.3144 18.9679 12.7077C21.7818 13.0622 24.6344 13.256 27.4816 13.317C27.7031 13.317 27.7197 13.6715 27.4926 13.677V13.6826Z" fill="#747474"/>
<path d="M39.5629 21.465C39.5629 21.465 29.9691 24.5836 22.7683 22.9218C15.5674 21.2601 5.18708 19.2494 2.89941 19.4211" fill="#FEFDFE"/>
<path d="M39.5903 21.5426C35.1534 22.9883 30.4729 23.9521 25.7701 23.8081C24.1915 23.7527 22.5796 23.4536 21.0896 23.1434C15.4175 22.091 9.72882 20.9721 3.9792 20.5123C3.68009 20.4957 3.1594 20.5012 2.86028 20.5123C2.25098 20.5234 1.74692 20.0359 1.73584 19.4266C1.82447 17.6209 4.32262 18.4739 5.34182 18.5127C10.7425 19.3712 16.049 20.6619 21.3499 21.9691C22.8787 22.3735 24.3078 22.7224 25.8311 22.8609C30.4285 23.2542 35.0814 22.5507 39.5349 21.3653C39.6346 21.3266 39.6955 21.4983 39.5903 21.526V21.5426Z" fill="#747474"/>
</svg>
