<svg width="210" height="72" viewBox="0 0 210 72" fill="none" xmlns="http://www.w3.org/2000/svg">
<path opacity="0.4" d="M3.32178 37.726L3.7483 65.5048C3.7483 65.5048 3.7483 69.3822 8.17961 69.3822H27.0127C27.0127 69.3822 30.89 69.9361 30.8623 62.1148" stroke="#747474" stroke-width="3" stroke-linecap="round" stroke-linejoin="round"/>
<path opacity="0.4" d="M207.289 38.3353L206.863 66.1141C206.863 66.1141 206.863 69.9915 202.431 69.9915H183.598C183.598 69.9915 179.721 70.5454 179.749 62.7241" stroke="#747474" stroke-width="3" stroke-linecap="round" stroke-linejoin="round"/>
<path d="M154.966 2.90706L161.059 5.12271L159.398 6.78445C159.398 6.78445 162.721 10.1079 175.461 10.1079C188.201 10.1079 196.748 5.67663 197.18 3.46097L204.342 1.52228L208.159 3.46097C208.159 3.46097 208.142 46.6662 204.819 54.421C201.495 62.1758 198.725 61.6218 198.725 61.6218C198.725 61.6218 173.245 61.6218 166.599 61.0679L105.945 61.6329L43.0759 61.0679L11.8629 61.6329C11.8629 61.6329 4.30199 63.2836 3.19416 35.034C2.08634 6.78445 2.36329 3.18402 2.36329 3.18402L6.7946 1.52228L13.4194 2.35315C13.4194 2.35315 15.1033 6.5075 22.3042 7.61532C29.505 8.72315 37.8137 12.0466 52.2155 6.5075L50.8307 5.12271L58.0316 3.46097C58.0316 3.46097 60.142 5.46614 67.6696 5.57138C75.1973 5.67662 147.91 5.57138 147.91 5.57138C147.91 5.57138 152.418 4.5688 153.969 3.46097C155.52 2.35315 153.969 3.46097 153.969 3.46097" fill="#FEFDFE"/>
<path d="M154.966 2.90706L161.059 5.12271L159.398 6.78445C159.398 6.78445 162.721 10.1079 175.461 10.1079C188.201 10.1079 196.748 5.67663 197.18 3.46097L204.342 1.52228L208.159 3.46097C208.159 3.46097 208.142 46.6662 204.819 54.421C201.495 62.1758 198.725 61.6218 198.725 61.6218C198.725 61.6218 173.245 61.6218 166.599 61.0679L105.945 61.6329L43.0759 61.0679L11.8629 61.6329C11.8629 61.6329 4.30199 63.2836 3.19416 35.034C2.08634 6.78445 2.36329 3.18402 2.36329 3.18402L6.7946 1.52228L13.4194 2.35315C13.4194 2.35315 15.1033 6.5075 22.3042 7.61532C29.505 8.72315 37.8137 12.0466 52.2155 6.5075L50.8307 5.12271L58.0316 3.46097C58.0316 3.46097 60.142 5.46614 67.6696 5.57138C75.1973 5.67662 147.91 5.57138 147.91 5.57138C147.91 5.57138 152.418 4.5688 153.969 3.46097C155.52 2.35315 153.969 3.46097 153.969 3.46097" stroke="#747474" stroke-width="3" stroke-linecap="round" stroke-linejoin="round"/>
<path d="M50 54.144C50 54.144 13.8849 58.3094 11.7246 33.2393L50 54.144Z" fill="#FEFDFE"/>
<path d="M50.0001 54.144C34.3299 56.5258 12.7384 53.8892 9.09365 35.1725L8.77792 33.4886C8.4788 31.8767 9.54232 30.3313 11.1542 30.0266C12.8824 29.6943 14.5442 30.9794 14.6549 32.7353C14.6937 33.3113 14.7657 34.4302 14.7989 35.0008C16.7321 51.0809 36.5622 54.3988 50.0001 54.1385V54.144Z" fill="#747474"/>
<path d="M9.01025 28.1101L39.4755 30.8797C39.4755 30.8797 38.9216 34.2031 32.2746 34.2031C25.6276 34.2031 9.56417 33.0953 9.56417 33.0953L9.01025 28.1101Z" fill="#FEFDFE" stroke="#747474" stroke-width="3" stroke-linecap="round" stroke-linejoin="round"/>
<path d="M160.605 54.0775C160.605 54.0775 196.721 58.2374 198.881 33.1673L160.605 54.0775Z" fill="#FEFDFE"/>
<path d="M160.605 54.0775C174.038 54.3379 193.879 51.0144 195.807 34.9343C195.84 34.3748 195.912 33.2504 195.951 32.6854C196.056 31.0514 197.468 29.8106 199.102 29.9158C200.736 30.0211 201.977 31.4336 201.872 33.0676C201.855 33.2615 201.567 34.8678 201.517 35.1005C197.873 53.8172 176.281 56.4538 160.611 54.072L160.605 54.0775Z" fill="#747474"/>
<path d="M201.589 28.0381L171.124 30.8132C171.124 30.8132 171.678 34.1367 178.325 34.1367C184.972 34.1367 201.035 33.0288 201.035 33.0288L201.589 28.0436V28.0381Z" fill="#FEFDFE" stroke="#747474" stroke-width="3" stroke-linecap="round" stroke-linejoin="round"/>
<path d="M171.124 29.3619C171.124 29.3619 168.26 29.4949 161.613 23.4018C154.966 17.3088 141.384 11.7364 105.247 11.753C69.1097 11.7697 58.0314 15.6471 51.606 20.5547C45.5185 25.2021 42.3612 28.1156 37.1821 29.3564" fill="#FEFDFE"/>
<path d="M171.124 29.3619C169.601 29.4284 168.144 28.7249 166.815 28.0602C164.145 26.6865 161.929 24.6371 159.608 22.787C156.113 20.2113 152.069 18.5219 147.887 17.3309C139.429 14.9214 130.622 14.0739 121.842 13.5422C110.083 12.8775 98.2291 13.0215 86.4639 13.4646C77.7121 13.9465 68.8107 14.4284 60.3913 17.0041C57.6272 17.8793 54.9685 19.0536 52.6143 20.7154C47.8341 24.0167 43.1535 28.4147 37.1768 29.3619C42.9651 27.5562 47.0198 23.0861 51.7724 19.5466C63.3824 10.7117 89.5991 10.6507 104.156 10.4236C121.621 10.6674 148.868 10.6286 162.328 23.0086C163.918 24.5097 165.546 25.9775 167.302 27.2792C168.482 28.1212 169.689 29.0074 171.124 29.3675V29.3619Z" fill="#747474"/>
<rect x="92" y="21" width="25" height="25" rx="5" fill="url(#paint0_linear_195_29)"/>
<path d="M112.944 31.0641L106.47 31.0634L106.47 25.056C106.47 23.9205 105.549 23 104.414 23C103.279 23 102.358 23.9205 102.358 25.056V31.0637L96.056 31.0634C94.9205 31.0637 94 31.9842 94 33.1194C94.0007 34.2549 94.9205 35.1751 96.056 35.1751H102.358V41.944C102.358 43.0805 103.279 44 104.414 44C105.55 44 106.47 43.0795 106.47 41.9447V35.1751H112.945C114.079 35.1751 115 34.2549 115 33.1201C115.001 31.9839 114.079 31.0634 112.944 31.0641Z" fill="white"/>
<defs>
<linearGradient id="paint0_linear_195_29" x1="104.5" y1="21" x2="104.5" y2="46" gradientUnits="userSpaceOnUse">
<stop stop-color="#665492"/>
<stop offset="1" stop-color="#683D89"/>
</linearGradient>
</defs>
</svg>
