<svg width="43" height="28" viewBox="0 0 43 28" fill="none" xmlns="http://www.w3.org/2000/svg">
<path d="M1.78271 22.1988C1.78271 22.1988 6.97288 17.0086 9.32701 15.4189C9.6372 15.2084 9.89754 15.0644 10.0914 14.9979C11.7532 14.444 18.6549 11.7022 22.4049 8.36206C26.1549 5.02196 31.694 1.15011 35.5714 1.70402C35.5714 1.70402 40.9942 4.97211 40.4957 11.9237C39.9972 18.8753 41.6866 21.6449 30.5973 23.8605C19.5079 26.0762 8.98359 27.184 1.78271 22.1988Z" fill="#FEFDFE" stroke="#747474" stroke-width="3" stroke-linecap="round" stroke-linejoin="round"/>
<path d="M10.6455 15.5518C10.6455 15.5518 19.1093 17.3742 27.0635 13.6907C35.0177 10.0072 35.0177 7.24314 35.5716 2.81184" fill="#FEFDFE"/>
<path d="M10.7398 15.1087C18.0902 16.139 26.5374 14.2335 31.9048 9.04337C33.6552 7.22099 33.6662 5.09951 33.8767 2.60136C33.9487 1.65417 34.7796 0.950694 35.7268 1.02824C36.6684 1.10579 37.3608 1.93666 37.2833 2.87277C36.9454 5.62018 36.2032 9.08214 33.849 11.0098C29.5728 14.5603 24.0282 16.3439 18.5721 16.6375C15.869 16.7594 13.1992 16.5821 10.5515 15.995C10.3077 15.9396 10.1526 15.6959 10.208 15.4521C10.2634 15.2084 10.5016 15.0533 10.7453 15.1032L10.7398 15.1087Z" fill="#747474"/>
<path d="M15.3423 12.7823C15.3423 12.7823 28.2152 13.0814 32.1702 10.4392Z" fill="#FEFDFE"/>
<path d="M15.3479 12.605C19.5965 12.4887 23.8893 12.2062 28.0215 11.2535C29.3675 10.9322 30.7301 10.4946 31.7383 9.80223C32.0928 9.5142 32.6245 9.56959 32.8848 9.95179C33.6215 11.1649 31.212 11.6689 30.4365 11.9902C28.3427 12.5663 26.0939 12.81 23.9447 12.9429C21.0643 13.1091 18.195 13.1035 15.3313 12.9651C15.1097 12.9595 15.1098 12.5995 15.3424 12.605H15.3479Z" fill="#747474"/>
<path d="M3.26709 20.7475C3.26709 20.7475 12.8609 23.8661 20.0617 22.2043C27.2626 20.5426 37.6429 18.5319 39.9306 18.7036" fill="#FEFDFE"/>
<path d="M3.28915 20.6645C7.74261 21.8443 12.3955 22.5533 16.993 22.16C18.5162 22.0215 19.9509 21.6726 21.4741 21.2682C26.7751 19.961 32.0816 18.6704 37.4822 17.8118C38.518 17.7675 40.9995 16.92 41.0882 18.7258C41.0771 19.3351 40.5675 19.8225 39.9582 19.8059C39.648 19.7948 39.1661 19.7837 38.8448 19.8059C33.0952 20.2601 27.4065 21.3845 21.7344 22.4314C20.2444 22.7416 18.6326 23.0407 17.0539 23.0961C12.3512 23.2402 7.67615 22.2708 3.23377 20.8306C3.13407 20.7974 3.17837 20.6312 3.28915 20.67V20.6645Z" fill="#747474"/>
</svg>
