<svg width="163" height="34" viewBox="0 0 163 34" fill="none" xmlns="http://www.w3.org/2000/svg">
<path d="M1.62744 2.05704C1.62744 2.05704 8.2744 7.04226 11.044 8.704C13.8135 10.3657 30.4309 25.8753 33.2005 28.091C35.9701 30.3066 36.4298 31.9684 44.7828 31.9684H122.425C122.425 31.9684 126.806 32.5223 130.684 28.6449C134.561 24.7675 147.301 12.5814 148.963 11.4736C150.625 10.3657 160.357 3.71878 161.033 2.05704H1.62744Z" fill="#FEFDFE" stroke="#747474" stroke-width="3" stroke-linecap="round" stroke-linejoin="round"/>
<rect x="69" y="5" width="25" height="25" rx="5" fill="url(#paint0_linear_195_30)"/>
<path d="M89.944 15.0641L83.4701 15.0634L83.4698 9.05603C83.4701 7.92052 82.5492 7 81.4137 7C80.2786 7 79.358 7.92052 79.358 9.05603V15.0637L73.056 15.0634C71.9205 15.0637 71 15.9842 71 17.1194C71.0007 18.2549 71.9205 19.1751 73.056 19.1751H79.358V25.944C79.358 27.0805 80.2786 28 81.4141 28C82.5496 28 83.4697 27.0795 83.4701 25.9447V19.1751H89.9447C91.0795 19.1751 92 18.2549 92 17.1201C92.001 15.9839 91.0795 15.0634 89.944 15.0641Z" fill="white"/>
<defs>
<linearGradient id="paint0_linear_195_30" x1="81.5" y1="5" x2="81.5" y2="30" gradientUnits="userSpaceOnUse">
<stop stop-color="#665492"/>
<stop offset="1" stop-color="#683D89"/>
</linearGradient>
</defs>
</svg>
