<svg width="32" height="20" viewBox="0 0 32 20" fill="none" xmlns="http://www.w3.org/2000/svg">
<path d="M2.74059 14.0105H10.7446C10.7446 14.0105 10.7557 7.30263 11.4536 5.94555C12.1516 4.58846 13.2262 2.93226 17.6962 2.93226C19.9119 2.93226 26.5589 4.594 28.1264 6.05633C30.0984 7.89532 30.9902 10.687 30.9902 12.9027C30.9902 15.1183 28.7745 16.2262 13.8189 16.7801C-1.1368 17.334 2.74059 17.057 2.74059 17.057C2.74059 17.057 0.524941 15.6723 2.74059 14.0105Z" fill="#FEFDFE" stroke="#747474" stroke-width="2" stroke-linecap="round" stroke-linejoin="round"/>
<path d="M30.4362 12.9027L10.7446 14.0105" stroke="#747474" stroke-width="2" stroke-linecap="round" stroke-linejoin="round"/>
<rect x="11" width="20" height="20" rx="5" fill="url(#paint0_linear_195_22)"/>
<path d="M27.7553 8.05126L22.5762 8.0507L22.5759 3.24482C22.5762 2.33641 21.8395 1.6 20.9311 1.6C20.0229 1.6 19.2865 2.33641 19.2865 3.24482V8.05098L14.2449 8.0507C13.3365 8.05098 12.6001 8.78739 12.6001 9.69553C12.6007 10.6039 13.3365 11.3401 14.2449 11.3401H19.2865V16.7552C19.2865 17.6644 20.0229 18.4 20.9314 18.4C21.8398 18.4 22.5759 17.6636 22.5762 16.7557V11.3401H27.7558C28.6637 11.3401 29.4001 10.6039 29.4001 9.69608C29.4009 8.78712 28.6637 8.0507 27.7553 8.05126Z" fill="white"/>
<defs>
<linearGradient id="paint0_linear_195_22" x1="21" y1="0" x2="21" y2="20" gradientUnits="userSpaceOnUse">
<stop stop-color="#665492"/>
<stop offset="1" stop-color="#683D89"/>
</linearGradient>
</defs>
</svg>
