<svg width="32" height="20" viewBox="0 0 32 20" fill="none" xmlns="http://www.w3.org/2000/svg">
<path d="M29.92 14.0105H21.9159C21.9159 14.0105 21.9049 7.30263 21.2069 5.94555C20.509 4.58846 19.4344 2.93226 14.9643 2.93226C12.7487 2.93226 6.10172 4.594 4.53415 6.05633C2.56222 7.89532 1.67041 10.687 1.67041 12.9027C1.67041 15.1183 3.88606 16.2262 18.8417 16.7801C33.7974 17.334 29.92 17.057 29.92 17.057C29.92 17.057 32.1356 15.6723 29.92 14.0105Z" fill="#FEFDFE" stroke="#747474" stroke-width="2" stroke-linecap="round" stroke-linejoin="round"/>
<path d="M2.22412 12.9027L21.9157 14.0105" stroke="#747474" stroke-width="2" stroke-linecap="round" stroke-linejoin="round"/>
<rect x="2" width="20" height="20" rx="5" fill="url(#paint0_linear_195_25)"/>
<path d="M18.7553 8.05126L13.5762 8.0507L13.5759 3.24482C13.5762 2.33641 12.8395 1.6 11.9311 1.6C11.0229 1.6 10.2865 2.33641 10.2865 3.24482V8.05098L5.24492 8.0507C4.33651 8.05098 3.6001 8.78739 3.6001 9.69553C3.60065 10.6039 4.33651 11.3401 5.24492 11.3401H10.2865V16.7552C10.2865 17.6644 11.0229 18.4 11.9314 18.4C12.8398 18.4 13.5759 17.6636 13.5762 16.7557V11.3401H18.7558C19.6637 11.3401 20.4001 10.6039 20.4001 9.69608C20.4009 8.78712 19.6637 8.0507 18.7553 8.05126Z" fill="white"/>
<defs>
<linearGradient id="paint0_linear_195_25" x1="12" y1="0" x2="12" y2="20" gradientUnits="userSpaceOnUse">
<stop stop-color="#665492"/>
<stop offset="1" stop-color="#683D89"/>
</linearGradient>
</defs>
</svg>
