<svg width="163" height="46" viewBox="0 0 163 46" fill="none" xmlns="http://www.w3.org/2000/svg">
<path d="M15.7528 5.02095C15.7528 5.02095 1.35101 28.5069 1.62797 42.7978L80.1507 43.6287L161.033 43.3628C161.033 43.3628 161.426 34.3783 145.64 5.02095C145.64 5.02095 111.558 2.25138 80.8209 2.25138C50.0843 2.25138 15.714 5.02095 15.714 5.02095" fill="#FEFDFE"/>
<path d="M15.7528 5.02095C15.7528 5.02095 1.35101 28.5069 1.62797 42.7978L80.1507 43.6287L161.033 43.3628C161.033 43.3628 161.426 34.3783 145.64 5.02095C145.64 5.02095 111.558 2.25138 80.8209 2.25138C50.0843 2.25138 15.714 5.02095 15.714 5.02095" stroke="#747474" stroke-width="3" stroke-linecap="round" stroke-linejoin="round"/>
</svg>
