<svg width="50" height="22" viewBox="0 0 50 22" fill="none" xmlns="http://www.w3.org/2000/svg">
<path d="M49.1901 12.5184C47.8556 7.93505 44.4981 5.31424 40.1865 3.73212C28.9425 -0.380214 17.2818 0.477288 5.66346 0.875839C5.02336 0.899994 4.38326 0.712763 3.73713 0.616144C3.35669 1.06301 2.97626 1.50993 2.58978 1.96887C1.99196 5.82758 1.07406 9.65603 0.874787 13.5268C0.603047 18.7623 2.37842 20.3264 7.65621 20.58C10.7601 20.7249 13.864 20.888 16.9799 21.051H16.986C22.0041 20.731 25.8809 20.1754 28.2843 19.7527C28.5983 19.5957 28.9908 19.487 29.4497 19.4205C29.9751 19.3481 30.5065 19.2696 31.0319 19.2032C31.0741 19.1971 31.0923 19.1911 31.0923 19.1911C35.8628 18.5268 40.6394 17.9169 45.4462 17.5486C49.323 17.2527 50.2952 16.2865 49.1901 12.5184ZM23.0669 4.60172H14.1297C16.7806 2.94109 20.6212 2.63312 23.0669 4.60172ZM22.9159 7.08965C23.1695 8.86501 23.4352 10.7491 23.7613 13.0256C20.4159 13.2793 17.4449 13.6839 14.4799 13.6416C13.2299 13.6235 10.9835 12.7176 10.9352 12.0956C10.7963 9.98212 11.1828 7.43988 13.9787 7.15606C16.8289 6.86017 19.7335 7.08965 22.9159 7.08965ZM9.40742 3.17056C7.37843 6.14762 5.15018 9.40848 3.34462 12.0534C2.5294 4.44469 3.50765 2.97732 9.40742 3.17056ZM24.2625 18.243H5.53664C4.56441 13.3155 6.53907 8.29734 9.98715 6.14154C10.434 5.96038 10.8688 5.7792 11.3036 5.59804C11.5693 5.41084 11.8229 5.22369 12.0886 5.03649C12.149 5.16934 12.2154 5.30825 12.2818 5.4411C11.9739 5.50753 11.6598 5.57998 11.3579 5.65244C11.0016 5.93022 10.6454 6.22009 10.2891 6.49787C9.92676 7.80222 9.51008 9.08239 9.20211 10.3928C8.38085 13.9375 9.54027 15.5075 13.2359 15.5377C15.8144 15.5619 18.4171 15.3505 20.9835 15.0365C23.6406 14.7043 24.6852 15.7068 24.2625 18.243ZM24.7819 2.95915C28.6768 3.60529 32.5838 4.23938 36.4848 4.88552C36.4425 5.18142 36.4002 5.47729 36.3519 5.77319C32.4147 5.40483 28.4654 5.0365 24.5282 4.66814C24.6188 4.09446 24.6973 3.53282 24.7819 2.95915ZM25.1623 7.23457C33.1394 5.90002 41.678 8.17661 43.6527 12.6029C37.9824 12.6029 32.6744 12.8867 27.4208 12.5063C23.9365 12.2527 25.5488 9.19713 25.1623 7.23457ZM26.3217 17.0896C26.2613 16.8783 26.0138 15.9483 25.591 14.3904C29.5464 14.3904 33.1394 14.65 36.678 14.3179C39.8483 14.016 43.864 16.2322 46.2372 11.214C46.5633 12.5969 46.7807 13.5631 46.98 14.4085C40.0416 15.3083 33.3568 16.1778 26.3217 17.0896Z" fill="#747474"/>
<rect x="9" y="1" width="20" height="20" rx="5" fill="url(#paint0_linear_197_72)"/>
<path d="M25.7553 9.05126L20.5762 9.0507L20.5759 4.24482C20.5762 3.33641 19.8395 2.6 18.9311 2.6C18.0229 2.6 17.2865 3.33641 17.2865 4.24482V9.05098L12.2449 9.0507C11.3365 9.05098 10.6001 9.78739 10.6001 10.6955C10.6007 11.6039 11.3365 12.3401 12.2449 12.3401H17.2865V17.7552C17.2865 18.6644 18.0229 19.4 18.9314 19.4C19.8398 19.4 20.5759 18.6636 20.5762 17.7557V12.3401H25.7558C26.6637 12.3401 27.4001 11.6039 27.4001 10.6961C27.4009 9.78712 26.6637 9.0507 25.7553 9.05126Z" fill="white"/>
<defs>
<linearGradient id="paint0_linear_197_72" x1="19" y1="1" x2="19" y2="21" gradientUnits="userSpaceOnUse">
<stop stop-color="#665492"/>
<stop offset="1" stop-color="#683D89"/>
</linearGradient>
</defs>
</svg>
