<svg width="217" height="85" viewBox="0 0 217 85" fill="none" xmlns="http://www.w3.org/2000/svg">
<path d="M200.74 1.61379C205.016 2.93022 208.005 5.41808 208.917 10.0739C209.273 11.8855 209.955 13.7152 210.867 15.3215C215.155 22.8819 215.396 30.8651 213.711 39.126C211.211 51.4207 208.766 63.7335 206.278 76.0282C206.054 77.1393 205.577 78.2082 205.33 79.3193C204.611 82.5198 202.606 83.7456 199.418 83.4437C196.314 83.1478 193.198 83.0391 190.106 82.7372C189.351 82.6647 188.319 82.399 187.938 81.8555C184.557 77.0185 179.388 76.2456 174.17 75.847C168.687 75.4243 163.174 75.2432 157.673 75.2432C125.118 75.2251 80.4865 75.2613 47.926 75.382C44.4236 75.3941 40.8366 75.7444 37.4429 76.5898C34.8101 77.242 32.3885 78.8241 29.955 80.1587C28.7653 80.8169 27.8475 82.5258 26.6941 82.6284C22.3764 83.0391 17.9924 83.2746 13.6808 82.9243C12.6421 82.8398 11.3257 80.3579 10.9634 78.7939C8.64453 68.7939 6.48873 58.7516 4.43559 48.6972C3.56602 44.4339 3.29428 40.0499 2.3764 35.7987C0.860695 28.7455 2.17107 22.2418 5.25079 15.865C6.46456 13.359 7.20732 10.6295 8.14331 7.99058C9.42351 4.40361 12.4006 2.80939 15.6615 1.55334C15.0636 5.41205 14.1458 9.24662 13.9465 13.1174C13.6808 18.3469 15.4441 19.917 20.7279 20.1645C26.4103 20.4363 32.0866 20.7442 37.8173 21.0462C38.5661 23.9508 39.2122 26.8735 40.0878 29.7237C41.9357 35.7141 45.9876 39.0897 52.3161 39.5366C55.2087 39.7419 58.1072 40.0257 61.0058 40.0318C74.6169 40.062 88.2341 40.0015 101.845 39.9895C117.22 39.9774 144.684 40.1706 160.052 39.9109C171.296 39.7298 175.42 35.9255 177.612 24.9351C177.884 23.5523 178.271 22.1875 178.609 20.8046C179.786 20.8046 180.722 20.8408 181.652 20.8046C186.628 20.5872 191.61 20.4604 196.574 20.0679C199.038 19.8747 201.833 19.4882 202.208 16.2455C202.769 11.2938 203.089 6.30577 200.728 1.62581H200.734L200.74 1.61379ZM173.373 70.1164V70.0137C177.226 70.0137 181.085 70.1646 184.919 69.9352C186.242 69.8567 187.504 68.8059 188.796 68.2021C187.612 67.1936 186.441 66.161 185.209 65.213C184.925 65.0016 184.406 65.068 183.983 65.068C175.68 65.0801 167.377 65.068 159.08 65.1827C158.421 65.1827 157.292 65.9013 157.232 66.3965C157.129 67.1634 157.528 68.4195 158.126 68.7697C159.315 69.4702 160.771 70.0016 162.141 70.062C165.879 70.2311 169.635 70.1164 173.379 70.1164H173.373ZM43.2219 70.0017V70.1284C46.8572 70.1284 50.4864 70.1767 54.1217 70.0982C55.2328 70.0741 56.5432 69.9895 57.3886 69.4038C58.2703 68.7878 58.7051 67.5257 59.3331 66.5414C58.4152 66.0704 57.5094 65.219 56.5734 65.1827C49.5323 64.9412 42.4792 64.8084 35.432 64.7601C33.7956 64.748 32.0323 64.8808 30.5588 65.5028C29.4175 65.9859 28.6385 67.3325 27.6905 68.2927C28.8197 68.8603 29.9308 69.8688 31.0842 69.9231C35.1241 70.1224 39.176 70.0017 43.228 70.0017H43.2219Z" fill="#FEFEFE" stroke="#747474" stroke-width="3" stroke-linecap="round" stroke-linejoin="round"/>
</svg>
