<svg width="120" height="33" viewBox="0 0 120 33" fill="none" xmlns="http://www.w3.org/2000/svg">
<path d="M118.247 5.86485C116.249 11.8733 114.334 17.7851 112.305 23.6547C110.766 28.0992 107.293 29.9108 102.825 30.0859C92.3174 30.4965 81.8162 31.0219 71.3029 31.2091C60.4816 31.3963 49.6543 31.3782 38.833 31.1789C31.345 31.046 23.8571 30.5086 16.3812 30.0497C12.287 29.796 9.002 28.0328 7.5648 23.9567C5.4573 18.0086 3.53097 12.0122 1.55029 6.12447C9.3764 1.26335 106.575 1.02184 118.247 5.85881V5.86485Z" fill="#FEFEFE" stroke="#747474" stroke-width="3" stroke-linecap="round" stroke-linejoin="round"/>
<rect x="50" y="6" width="20" height="20" rx="5" fill="url(#paint0_linear_197_75)"/>
<path d="M66.7553 14.0513L61.5762 14.0507L61.5759 9.24482C61.5762 8.33641 60.8395 7.6 59.9311 7.6C59.0229 7.6 58.2865 8.33641 58.2865 9.24482V14.051L53.2449 14.0507C52.3365 14.051 51.6001 14.7874 51.6001 15.6955C51.6007 16.6039 52.3365 17.3401 53.2449 17.3401H58.2865V22.7552C58.2865 23.6644 59.0229 24.4 59.9314 24.4C60.8398 24.4 61.5759 23.6636 61.5762 22.7557V17.3401H66.7558C67.6637 17.3401 68.4001 16.6039 68.4001 15.6961C68.4009 14.7871 67.6637 14.0507 66.7553 14.0513Z" fill="white"/>
<defs>
<linearGradient id="paint0_linear_197_75" x1="60" y1="6" x2="60" y2="26" gradientUnits="userSpaceOnUse">
<stop stop-color="#665492"/>
<stop offset="1" stop-color="#683D89"/>
</linearGradient>
</defs>
</svg>
