<svg width="46" height="11" viewBox="0 0 46 11" fill="none" xmlns="http://www.w3.org/2000/svg">
<path d="M41.2513 2H5.01933C3.3518 2 2 3.3518 2 5.01933C2 6.68686 3.3518 8.03866 5.01933 8.03866H41.2513C42.9188 8.03866 44.2706 6.68686 44.2706 5.01933C44.2706 3.3518 42.9188 2 41.2513 2Z" fill="#CC6B6F" stroke="#CC6B6F" stroke-width="3" stroke-linecap="round" stroke-linejoin="round"/>
<path d="M17 2C17 0.895431 17.8954 0 19 0H26C27.1046 0 28 0.895431 28 2V9C28 10.1046 27.1046 11 26 11H19C17.8954 11 17 10.1046 17 9V2Z" fill="url(#paint0_linear_197_76)"/>
<path d="M26.2157 4.4282L23.3672 4.42789L23.3671 1.78465C23.3672 1.28503 22.962 0.880001 22.4624 0.880001C21.9629 0.880001 21.5579 1.28503 21.5579 1.78465V4.42804L18.785 4.42789C18.2854 4.42804 17.8804 4.83307 17.8804 5.33254C17.8807 5.83217 18.2854 6.23704 18.785 6.23704H21.5579V9.21535C21.5579 9.71543 21.9629 10.12 22.4626 10.12C22.9622 10.12 23.3671 9.71497 23.3672 9.21566V6.23704H26.216C26.7153 6.23704 27.1204 5.83217 27.1204 5.33285C27.1208 4.83292 26.7153 4.42789 26.2157 4.4282Z" fill="white"/>
<defs>
<linearGradient id="paint0_linear_197_76" x1="22.5" y1="0" x2="22.5" y2="11" gradientUnits="userSpaceOnUse">
<stop stop-color="#665492"/>
<stop offset="1" stop-color="#683D89"/>
</linearGradient>
</defs>
</svg>
