<svg width="50" height="22" viewBox="0 0 50 22" fill="none" xmlns="http://www.w3.org/2000/svg">
<path d="M47.6246 2.0413C47.2442 1.5582 46.8638 1.08113 46.4773 0.592002C46.2901 0.73693 46.1089 0.87579 45.9217 1.01468C45.8493 0.899945 45.7768 0.767097 45.7043 0.640285C39.2611 0.640285 32.7876 0.211578 26.3927 0.755058C20.7647 1.23211 15.1125 2.38548 9.67769 3.97968C5.24531 5.27196 1.96026 8.43624 0.903496 13.2853C0.20905 16.4495 1.05447 17.3492 4.30931 17.5244C8.85642 17.7659 13.4881 17.7176 17.9144 18.6234C20.8432 19.2152 22.3166 19.6017 22.8903 20.5377C23.1982 20.7491 23.9531 21.1415 25.493 21.2382C25.493 21.2321 25.499 21.2201 25.499 21.2141C26.0968 21.2141 26.6342 21.2261 27.1354 21.2321C27.1596 21.2321 27.1777 21.2261 27.2019 21.2321C27.2562 21.2261 27.3106 21.2261 27.3589 21.2321C27.7695 21.2321 28.156 21.2322 28.5485 21.2141C33.5244 20.9967 38.5062 20.8698 43.47 20.4773C45.9338 20.284 48.7297 19.8976 49.0981 16.6548C49.6597 11.6971 49.9797 6.71522 47.6246 2.0413ZM36.6282 4.81907H27.6789C28.6753 2.61495 32.4313 2.6693 36.6282 4.81907ZM27.214 6.95073C30.1729 6.95073 33.0412 6.7937 35.8794 6.99901C38.2285 7.1681 40.0703 9.98214 39.3396 12.2346C39.1222 12.9049 37.8722 13.6597 37.0992 13.6536C33.621 13.6174 30.1487 13.3154 26.5678 13.1041C26.7973 10.9 26.9845 9.08238 27.214 6.95073ZM24.1523 17.1923C17.1596 16.2502 10.4687 15.3505 3.2465 14.3782C3.40954 13.6415 3.62089 12.6814 3.65712 12.5184C5.60157 13.1766 7.37694 14.2212 9.20061 14.3118C14.1463 14.5534 19.1101 14.3903 24.4181 14.3903C24.2912 15.7551 24.1946 16.7152 24.1523 17.1923ZM20.5835 12.6029C16.0847 12.5908 11.5919 12.6029 6.9663 12.6029C8.09553 8.30338 16.2659 6.02072 24.6838 7.11976C25.7526 12.0292 25.2997 12.621 20.5835 12.6029ZM13.1862 4.87339C17.2623 4.22726 21.3383 3.58113 25.9579 2.85046C24.6837 4.9821 19.7804 5.74296 13.1862 4.87339ZM44.9374 18.0558C38.6753 18.3517 32.3528 18.6416 26.0304 18.9435C25.4567 15.5075 26.7671 14.6983 29.4422 15.0364C31.9 15.3504 34.3939 15.5377 36.8758 15.5437C40.9459 15.5619 42.0389 14.028 41.0062 10.0244C40.6983 8.82874 40.2635 7.65723 39.8891 6.46761C39.5268 6.20191 39.1584 5.93019 38.8022 5.66449H38.7901C38.5062 5.60411 38.2164 5.54369 37.9326 5.4833C37.9567 5.38669 37.9869 5.30217 38.0111 5.21159C38.3009 5.33237 38.5848 5.44104 38.8746 5.56181C39.3034 5.74901 39.7321 5.94221 40.1669 6.12941C43.6391 8.24898 45.2816 12.1077 44.9374 18.0558ZM46.8819 11.8179C44.9676 9.11253 42.836 6.10528 40.8915 3.35768C45.9701 2.10164 47.0872 3.53885 46.8819 11.8179Z" fill="#747474"/>
<rect x="21" y="1" width="20" height="20" rx="5" fill="url(#paint0_linear_197_73)"/>
<path d="M37.7553 9.05126L32.5762 9.0507L32.5759 4.24482C32.5762 3.33641 31.8395 2.6 30.9311 2.6C30.0229 2.6 29.2865 3.33641 29.2865 4.24482V9.05098L24.2449 9.0507C23.3365 9.05098 22.6001 9.78739 22.6001 10.6955C22.6007 11.6039 23.3365 12.3401 24.2449 12.3401H29.2865V17.7552C29.2865 18.6644 30.0229 19.4 30.9314 19.4C31.8398 19.4 32.5759 18.6636 32.5762 17.7557V12.3401H37.7558C38.6637 12.3401 39.4001 11.6039 39.4001 10.6961C39.4009 9.78712 38.6637 9.0507 37.7553 9.05126Z" fill="white"/>
<defs>
<linearGradient id="paint0_linear_197_73" x1="31" y1="1" x2="31" y2="21" gradientUnits="userSpaceOnUse">
<stop stop-color="#665492"/>
<stop offset="1" stop-color="#683D89"/>
</linearGradient>
</defs>
</svg>
