<svg width="177" height="86" viewBox="0 0 177 86" fill="none" xmlns="http://www.w3.org/2000/svg">
<path d="M2.6665 46.2188C8.80782 40.5304 15.3477 35.1862 20.8851 28.9543C22.7511 26.8589 22.6424 22.4566 22.4129 19.1776C22.0808 14.4554 20.8308 9.79966 19.9492 5.12574C19.5748 3.16317 19.7076 3.02426 23.4516 2.15469C24.46 5.69939 25.3779 9.29846 26.5132 12.825C27.5941 16.1765 28.8381 19.4736 30.1122 22.7586C32.1714 28.0726 36.4588 30.313 41.8091 30.5606C53.3248 31.092 64.8406 31.6354 76.3623 31.7864C89.9856 31.9615 103.615 31.8649 117.226 31.5932C123.742 31.4603 130.251 30.7176 136.749 30.0956C141.64 29.6246 144.702 26.5751 146.272 22.185C148.325 16.4301 150.04 10.5484 151.894 4.72112C152.166 3.85155 152.431 2.98199 152.703 2.08223C155.885 2.37812 156.526 3.65225 155.819 6.65346C154.66 11.581 154.014 16.6354 153.404 21.6777C152.945 25.482 154.164 28.8757 157.003 31.5569C162.19 36.4724 167.401 41.3517 172.613 46.249C166.169 46.249 159.696 45.8323 153.295 46.3698C147.661 46.8468 142.015 48.0003 136.58 49.5945C132.148 50.8928 128.856 54.0509 127.806 58.9C127.111 62.0703 127.963 68.3988 131.212 68.5739C135.759 68.8155 140.39 68.7733 144.817 69.673C150.777 70.8928 150.71 71.2309 149.315 77.0884C147.6 83.2116 143.687 83.7552 134.358 83.7854C104.297 83.888 74.2367 83.9424 44.1763 83.8578C31.4286 83.8216 28.6448 81.2732 27.431 75.3614C26.9359 73.0425 26.2837 71.3699 28.3912 71.074C34.0736 69.9266 38.989 69.7394 44.3393 69.3227C48.2222 69.0268 49.2367 61.9012 48.1316 58.1331C46.791 53.5497 43.4335 50.923 39.1279 49.3529C27.8839 45.2406 16.2293 46.092 4.60491 46.4906C3.97085 46.5087 3.32472 46.3215 2.68462 46.2309H2.67857L2.6665 46.2188ZM88.0834 53.1451C88.2283 53.0787 88.6027 53.0184 88.7537 52.813C89.9735 51.1766 91.3141 49.6005 92.2319 47.813C92.552 47.1971 91.8394 45.2586 91.4711 45.2224C89.1462 44.9869 86.779 45.005 84.4542 45.2345C84.0858 45.2707 83.3612 47.1488 83.657 47.6138C84.9312 49.5522 86.5375 51.2731 88.0774 53.1451H88.0834Z" fill="#FEFEFE" stroke="#747474" stroke-width="3" stroke-miterlimit="10" stroke-linecap="round"/>
<rect x="78" y="37" width="20" height="20" rx="5" fill="url(#paint0_linear_197_74)"/>
<path d="M94.7553 45.0513L89.5762 45.0507L89.5759 40.2448C89.5762 39.3364 88.8395 38.6 87.9311 38.6C87.0229 38.6 86.2865 39.3364 86.2865 40.2448V45.051L81.2449 45.0507C80.3365 45.051 79.6001 45.7874 79.6001 46.6955C79.6007 47.6039 80.3365 48.3401 81.2449 48.3401H86.2865V53.7552C86.2865 54.6644 87.0229 55.4 87.9314 55.4C88.8398 55.4 89.5759 54.6636 89.5762 53.7557V48.3401H94.7558C95.6637 48.3401 96.4001 47.6039 96.4001 46.6961C96.4009 45.7871 95.6637 45.0507 94.7553 45.0513Z" fill="white"/>
<defs>
<linearGradient id="paint0_linear_197_74" x1="88" y1="37" x2="88" y2="57" gradientUnits="userSpaceOnUse">
<stop stop-color="#665492"/>
<stop offset="1" stop-color="#683D89"/>
</linearGradient>
</defs>
</svg>
