<svg width="232" height="160" viewBox="0 0 232 160" fill="none" xmlns="http://www.w3.org/2000/svg">
<g opacity="0.3">
<path d="M23.1902 159.76C22.6709 159.736 22.1516 159.682 21.6383 159.682C16.3786 159.67 13.7518 157.091 13.7518 151.952C13.7518 131.046 13.7941 110.128 13.7035 89.2226C13.6914 86.1489 12.4595 83.0087 12.8098 80.0256C13.3412 75.4966 14.6455 71.0522 15.8472 66.6319C16.4269 64.5003 17.526 62.5075 18.6492 59.8263C13.4861 59.8263 8.95107 59.8625 4.42207 59.8142C0.442593 59.772 -0.390734 58.9628 0.146707 54.9652C0.768689 50.3275 3.21435 46.819 7.86412 45.4603C10.7083 44.6209 13.6854 44.0292 16.6383 43.7997C20.2736 43.5159 21.596 45.2188 23.0876 51.1548C25.2736 50.2852 27.0852 49.5002 28.0091 46.8372C31.8316 35.8226 35.7627 24.8443 40.0562 14.0049C41.3123 10.8407 43.7036 8.05684 45.9137 5.37567C46.8014 4.29475 48.5405 3.57618 49.9959 3.36483C57.351 2.30806 64.7242 0.834589 72.1094 0.683622C97.2605 0.170336 122.418 -0.197987 147.563 0.116023C158.879 0.254913 170.208 1.90954 181.464 3.39505C183.77 3.70302 186.53 5.87086 187.75 7.96024C191.125 13.7151 194.169 19.7296 196.651 25.9253C199.453 32.912 201.385 40.255 203.994 47.3263C204.622 49.0413 206.433 50.3215 208.161 52.3384C208.698 50.406 209.151 49.3855 209.229 48.3408C209.441 45.4241 211.228 44.1982 213.825 43.7876C219.978 42.8154 227.611 46.2091 230.491 51.7164C231.427 53.5098 231.615 56.185 231.017 58.1114C230.709 59.0896 227.937 59.6875 226.24 59.778C221.995 60.0075 217.732 59.8505 213.022 59.8505C214.018 62.3445 214.791 64.5667 215.781 66.6923C217.677 70.7865 218.716 74.9592 218.686 79.5607C218.511 103.752 218.541 127.942 218.475 152.139C218.475 153.468 218.299 154.833 217.997 156.131C217.436 158.571 215.824 159.76 213.299 159.748C209.658 159.73 206.023 159.76 202.382 159.772C199.676 159.754 196.977 159.7 194.272 159.724C189.441 159.772 188.65 159.029 188.638 154.186C188.625 149.434 188.638 144.694 188.638 139.676H47.7797C47.1577 139.676 46.5236 139.724 45.9077 139.676C44.1263 139.513 43.5405 140.346 43.5707 142.061C43.6432 146.119 43.6673 150.177 43.5707 154.235C43.4862 157.846 41.4149 159.736 37.8702 159.736C32.985 159.736 28.0936 159.766 23.2023 159.784L23.1902 159.766V159.76ZM190.244 36.9821L190.926 37.6161C190.824 37.2961 190.727 36.9821 190.63 36.662C188.722 31.9036 186.814 27.1451 184.646 21.7345C182.128 29.0714 184.906 32.8396 190.238 36.9821H190.244ZM41.3002 37.3927C46.3123 33.5762 49.7 29.0714 46.9765 22.0062C45.0804 27.133 43.1782 32.2538 41.2881 37.3806C41.2036 37.5134 41.107 37.6463 41.0224 37.7792C41.113 37.6463 41.2096 37.5255 41.3062 37.3927H41.3002ZM200.443 46.191C200.576 46.2816 200.715 46.3661 200.842 46.4446C200.775 46.2997 200.697 46.1487 200.63 46.0038C200.552 45.3818 200.594 44.7297 200.395 44.156C197.273 35.4966 194.205 26.8129 190.92 18.2139C189.845 15.4119 188.173 12.8395 186.433 9.51222C184.912 14.3069 184.247 17.9542 186.415 22.0122C189.181 27.2055 191.433 32.7188 193.456 38.2623C194.809 41.9579 197.261 44.313 200.449 46.191H200.443ZM200.485 49.8625L200.51 49.8867C195.304 44.9954 190.087 40.1101 184.9 35.1946C182.067 32.5074 180.842 29.1197 181.301 25.3093C181.917 20.2791 182.557 15.2127 183.716 10.2851C184.423 7.28993 183.782 6.00977 180.6 5.71388C180.328 6.61364 180.069 7.48924 179.791 8.35277C177.937 14.1801 176.228 20.0618 174.169 25.8166C172.605 30.2067 169.537 33.2562 164.646 33.7272C158.148 34.3492 151.633 35.092 145.123 35.2248C131.5 35.4966 117.87 35.5931 104.259 35.418C92.7315 35.2731 81.2158 34.7236 69.7061 34.1922C64.3498 33.9507 60.0684 31.7043 58.0092 26.3903C56.735 23.1113 55.491 19.8021 54.4101 16.4567C53.2749 12.9301 52.357 9.33103 51.3425 5.78634C47.6046 6.64987 47.4717 6.79482 47.8401 8.75739C48.7278 13.4373 49.9777 18.0931 50.3038 22.8153C50.5333 26.0943 50.642 30.4905 48.7761 32.592C43.2446 38.8239 36.7048 44.162 30.5574 49.8504C30.177 50.3033 29.7965 50.7502 29.4101 51.191C26.1431 52.4531 23.1661 54.0413 21.8859 57.6343C20.9499 60.2671 20.2011 63.0027 18.9934 65.5087C15.9137 71.8795 14.6033 78.3892 16.119 85.4424C17.0308 89.6936 17.3086 94.0776 18.1781 98.3409C20.2313 108.401 22.3931 118.438 24.7059 128.438C25.0683 130.008 26.3847 132.483 27.4233 132.568C31.7289 132.918 36.113 132.683 40.4367 132.272C41.584 132.157 42.4958 130.461 43.6975 129.796C46.119 128.456 48.5466 126.874 51.1855 126.227C54.5732 125.382 58.1662 125.038 61.6686 125.026C94.2291 124.899 126.777 124.869 159.338 124.887C164.839 124.887 170.352 125.068 175.836 125.491C181.047 125.889 186.216 126.662 189.604 131.505C189.984 132.049 191.011 132.314 191.772 132.387C194.875 132.683 197.991 132.798 201.083 133.093C204.272 133.389 206.276 132.17 206.995 128.963C207.243 127.852 207.72 126.789 207.943 125.672C210.431 113.371 212.871 101.064 215.377 88.7697C217.062 80.5027 216.82 72.5256 212.533 64.9652C211.621 63.3589 210.938 61.5292 210.582 59.7176C209.67 55.0618 206.687 52.5739 202.412 51.2695C202.025 50.7804 201.645 50.3034 201.258 49.8142C200.999 49.8142 200.733 49.8263 200.473 49.8323L200.485 49.8625ZM178.233 5.94939C165.775 0.786335 62.0611 1.03994 53.7096 6.23319C55.8232 12.5074 57.8824 18.9144 60.1287 25.261C61.6626 29.6089 65.165 31.4869 69.537 31.7586C77.5141 32.2478 85.5032 32.8214 93.4924 32.9603C105.038 33.1656 116.59 33.1897 128.142 32.9905C139.356 32.7972 150.57 32.2296 161.778 31.7888C166.548 31.6016 170.25 29.6753 171.892 24.9289C174.066 18.6668 176.101 12.3564 178.239 5.94335L178.233 5.94939ZM41.2096 134.899C37.8763 134.899 34.9596 134.688 32.0792 134.941C26.5961 135.43 24.1323 133.999 22.7675 128.673C21.3243 123.051 20.0743 117.375 18.8303 111.704C17.8762 107.357 17.0489 102.973 16.1733 98.6006C15.7808 111.988 15.7808 125.297 15.7808 138.607C15.7808 143.601 15.7687 148.589 15.7868 153.583C15.7929 155.503 16.1914 157.218 18.6069 157.23C25.1589 157.26 31.7168 157.363 38.2627 157.097C39.2833 157.055 41.0405 155.273 41.0768 154.235C41.3364 147.713 41.2096 141.173 41.2096 134.887H41.2157L41.2096 134.899ZM216.095 98.1115C213.734 108.522 211.542 118.522 209.181 128.48C207.847 134.102 204.869 135.877 199.133 135.134C196.403 134.778 193.631 134.754 191.017 134.591C191.017 141.221 191.113 147.417 190.968 153.607C190.908 156.318 191.904 157.345 194.586 157.296C200.196 157.194 205.811 157.272 211.427 157.266C215.799 157.266 216.089 156.982 216.089 152.707V98.1175L216.095 98.1115ZM188.378 137.157C188.933 135.183 188.734 134.186 186.566 134.078C181.18 133.824 175.811 133.148 170.431 133.021C155.884 132.689 141.337 132.417 126.79 132.387C111.512 132.357 96.2279 132.52 80.9621 132.822C69.1324 133.057 57.3087 133.697 45.479 134.072C42.9789 134.15 42.7434 135.183 43.5949 137.145H188.384L188.378 137.157ZM44.4222 131.976C92.3088 130.177 139.652 130.225 187.176 131.463C184.857 129.984 182.448 128.456 179.857 128.021C175.274 127.248 170.588 126.819 165.938 126.795C137.961 126.668 109.99 126.656 82.0129 126.705C73.601 126.723 65.1831 126.928 56.7894 127.333C52.4053 127.544 47.9246 128.039 44.4161 131.964L44.4222 131.976ZM32.2965 46.499C34.1504 44.1802 36.4813 42.1028 37.7615 39.5123C40.642 33.6668 42.7132 27.4228 45.6541 21.6197C47.6649 17.6463 46.8799 14.1257 45.7507 10.2308C41.8739 14.2223 31.3183 41.1004 32.3026 46.505L32.2965 46.499ZM2.76144 57.3988C7.0187 57.3988 11.1371 57.4229 15.2615 57.3988C20.7084 57.3625 20.9922 57.0485 20.6661 51.6379C20.6178 50.8226 20.34 50.0196 20.2494 49.2043C19.9777 46.8674 18.5103 45.9133 16.3726 46.1971C13.8243 46.5353 11.2035 46.8553 8.82426 47.743C4.74213 49.2707 2.48971 52.9422 2.76748 57.4109H2.76144V57.3988ZM220.401 57.3806C222.273 57.3806 224.145 57.3988 226.023 57.3806C229.622 57.3444 230.208 56.3843 228.662 53.0449C226.554 48.4918 218.952 44.8746 214.09 46.2997C213.185 46.5654 212.17 47.6342 211.868 48.5521C211.361 50.092 211.283 51.8009 211.21 53.4555C211.095 56.2937 212.08 58.0087 215.413 57.4411C217.031 57.1693 218.734 57.3927 220.401 57.3867V57.3806Z" fill="#747474"/>
<path d="M202.418 51.2876C206.693 52.6041 209.682 55.092 210.594 59.7478C210.951 61.5594 211.633 63.3891 212.545 64.9954C216.832 72.5558 217.074 80.5389 215.389 88.7998C212.889 101.095 210.443 113.407 207.955 125.702C207.732 126.813 207.255 127.882 207.007 128.993C206.289 132.194 204.284 133.42 201.096 133.118C197.992 132.822 194.876 132.713 191.784 132.411C191.029 132.339 189.996 132.073 189.616 131.529C186.234 126.692 181.065 125.92 175.848 125.521C170.365 125.098 164.851 124.917 159.35 124.917C126.796 124.899 94.2414 124.935 61.6809 125.056C58.1785 125.068 54.5915 125.418 51.1978 126.264C48.5649 126.916 46.1434 128.498 43.7098 129.833C42.5202 130.491 41.6024 132.2 40.449 132.302C36.1313 132.713 31.7473 132.949 27.4357 132.598C26.397 132.514 25.0806 130.032 24.7183 128.468C22.3994 118.468 20.2436 108.425 18.1905 98.3711C17.3209 94.1078 17.0492 89.7237 16.1313 85.4725C14.6156 78.4193 15.926 71.9157 19.0057 65.5389C20.2195 63.0328 20.9622 60.3034 21.8982 57.6645C23.1784 54.0775 26.1555 52.4833 29.4163 51.2273C28.8185 55.086 27.9006 58.9205 27.7014 62.7913C27.4357 68.0208 29.1989 69.5908 34.4828 69.8384C40.1651 70.1101 45.8415 70.4182 51.5722 70.7201C52.321 73.6247 52.9671 76.5474 53.8427 79.3977C55.6905 85.388 59.7425 88.7636 66.071 89.2105C68.9635 89.4158 71.8621 89.6996 74.7607 89.7056C88.3718 89.7358 101.989 89.6755 115.6 89.6634C130.975 89.6513 146.361 89.8445 161.729 89.5849C172.973 89.4037 177.098 85.5993 179.29 74.609C179.562 73.2261 179.948 71.8614 180.286 70.4785C181.464 70.4785 182.4 70.5148 183.33 70.4785C188.306 70.2611 193.288 70.1343 198.251 69.7418C200.715 69.5486 203.511 69.1621 203.885 65.9193C204.447 60.9676 204.767 55.9797 202.406 51.2997H202.412L202.418 51.2876ZM175.051 119.79V119.688C178.903 119.688 182.762 119.839 186.597 119.609C187.919 119.531 189.181 118.48 190.474 117.876C189.29 116.868 188.118 115.835 186.887 114.887C186.603 114.676 186.083 114.742 185.661 114.742C177.358 114.754 169.054 114.742 160.757 114.857C160.099 114.857 158.97 115.575 158.909 116.07C158.807 116.837 159.205 118.093 159.803 118.444C160.993 119.144 162.448 119.675 163.819 119.736C167.557 119.905 171.313 119.79 175.057 119.79H175.051ZM56.9768 119.676V119.802C60.6121 119.802 64.2413 119.851 67.8766 119.772C68.9877 119.748 70.2981 119.663 71.1435 119.078C72.0251 118.462 72.4599 117.2 73.088 116.215C72.1701 115.744 71.2643 114.893 70.3283 114.857C63.2872 114.615 56.234 114.482 49.1869 114.434C47.5504 114.422 45.7871 114.555 44.3137 115.177C43.1724 115.66 42.3934 117.006 41.4453 117.967C42.5746 118.534 43.6857 119.543 44.8391 119.597C48.879 119.796 52.9309 119.676 56.9828 119.676H56.9768Z" fill="#FEFEFE"/>
<path d="M30.5752 49.8686C36.7165 44.1802 43.2564 38.836 48.7938 32.6041C50.6598 30.5086 50.5511 26.1064 50.3216 22.8274C49.9895 18.1052 48.7395 13.4494 47.8579 8.77545C47.4835 6.81288 47.6163 6.67404 51.3603 5.80447C52.3687 9.34917 53.2866 12.9482 54.4219 16.4747C55.5028 19.8262 56.7468 23.1234 58.0209 26.4084C60.0801 31.7224 64.3676 33.9627 69.7178 34.2103C81.2335 34.7417 92.7493 35.2852 104.271 35.4362C117.894 35.6113 131.524 35.5147 145.135 35.243C151.65 35.1101 158.16 34.3673 164.658 33.7453C169.549 33.2743 172.611 30.2248 174.181 25.8347C176.234 20.0798 177.949 14.1982 179.803 8.3709C180.074 7.50134 180.34 6.63177 180.612 5.73201C183.794 6.0279 184.434 7.30203 183.728 10.3032C182.568 15.2308 181.922 20.2852 181.312 25.3274C180.853 29.1318 182.073 32.5255 184.911 35.2067C190.099 40.1222 195.31 45.0014 200.521 49.8987C194.078 49.8987 187.605 49.4821 181.204 50.0195C175.57 50.4966 169.923 51.65 164.489 53.2442C160.056 54.5425 156.765 57.7007 155.714 62.5498C155.02 65.7201 155.871 66.6138 159.12 66.7889C163.667 67.0305 168.299 66.9882 172.725 67.8879C178.685 69.1077 178.619 69.4459 177.224 75.3034C175.05 84.452 171.596 87.4049 162.266 87.4351C132.206 87.5377 102.145 87.5921 72.085 87.5075C59.3374 87.4713 56.8072 85.08 54.12 72.4954C53.6248 70.1766 54.1864 68.981 56.2939 68.6851C61.6079 67.9423 66.94 67.2297 72.2903 66.813C76.1731 66.5171 77.1393 65.551 76.0342 61.7828C74.6937 57.1995 71.3362 54.5727 67.0306 53.0026C55.7866 48.8903 44.132 49.7417 32.5076 50.1403C31.8735 50.1584 31.2274 49.9712 30.5873 49.8807H30.5812L30.5752 49.8686ZM115.992 56.7949C116.137 56.7285 116.511 56.6681 116.662 56.4628C117.882 54.8263 119.223 53.2502 120.141 51.4628C120.461 50.8468 119.748 48.9084 119.38 48.8722C117.055 48.6367 114.688 48.6548 112.363 48.8843C111.994 48.9205 111.27 50.7985 111.566 51.2635C112.84 53.2019 114.446 54.9229 115.986 56.7949H115.992Z" stroke="#747474" stroke-width="3" stroke-miterlimit="10" stroke-linecap="round"/>
<path d="M178.227 5.94339C176.089 12.3564 174.048 18.6668 171.886 24.9289C170.244 29.6753 166.542 31.6016 161.771 31.7888C150.558 32.2296 139.356 32.7852 128.136 32.9905C116.59 33.1898 105.038 33.1717 93.4862 32.9604C85.491 32.8154 77.5079 32.2478 69.5308 31.7587C65.1588 31.4869 61.6564 29.6029 60.1225 25.2611C57.8762 18.9144 55.817 12.5134 53.7095 6.23323C62.0609 1.04602 165.781 0.786374 178.233 5.94943L178.227 5.94339Z" fill="#FEFEFE"/>
<path d="M41.1974 134.893C41.1974 141.179 41.3303 147.719 41.0646 154.241C41.0223 155.273 39.265 157.055 38.2505 157.103C31.7107 157.363 25.1527 157.266 18.5947 157.236C16.1792 157.224 15.7807 155.509 15.7746 153.589C15.7565 148.595 15.7686 143.607 15.7686 138.613C15.7686 125.304 15.7686 111.988 16.1611 98.6066C17.0427 102.979 17.864 107.363 18.8181 111.711C20.0681 117.375 21.3121 123.051 22.7553 128.679C24.1201 134.005 26.5899 135.436 32.073 134.947C34.9534 134.694 37.8641 134.905 41.2034 134.905H41.1974V134.893Z" fill="#FEFEFE"/>
<path d="M216.089 98.0933V152.683C216.089 156.952 215.793 157.236 211.421 157.242C205.811 157.242 200.189 157.176 194.58 157.272C191.898 157.321 190.902 156.3 190.968 153.583C191.113 147.393 191.011 141.203 191.011 134.567C193.619 134.73 196.391 134.76 199.127 135.11C204.863 135.853 207.834 134.078 209.169 128.456C211.536 118.504 213.722 108.51 216.089 98.0933V98.0933Z" fill="#FEFEFE"/>
<path d="M188.366 137.151H43.5707C42.7192 135.189 42.9608 134.162 45.4547 134.078C57.2845 133.703 69.1082 133.069 80.9379 132.828C96.2157 132.514 111.494 132.363 126.771 132.393C141.318 132.417 155.872 132.695 170.407 133.021C175.793 133.148 181.162 133.824 186.548 134.078C188.716 134.18 188.915 135.177 188.36 137.157L188.366 137.151Z" fill="#FEFEFE"/>
<path d="M44.416 131.97C47.9245 128.045 52.4052 127.55 56.7892 127.339C65.189 126.934 73.6009 126.723 82.0127 126.711C109.99 126.656 137.967 126.674 165.938 126.795C170.582 126.813 175.28 127.248 179.851 128.027C182.442 128.462 184.845 129.99 187.17 131.469C139.64 130.231 92.3026 130.183 44.416 131.982V131.97Z" fill="#FEFEFE"/>
<path d="M32.2905 46.493C31.3062 41.0884 41.8618 14.2103 45.7386 10.2187C46.8679 14.1136 47.6529 17.6342 45.642 21.6076C42.7012 27.4108 40.6299 33.6547 37.7495 39.5002C36.4693 42.0968 34.1384 44.1802 32.2845 46.4869L32.2905 46.493Z" fill="#FEFEFE"/>
<path d="M2.75545 57.3987C2.48371 52.9241 4.73613 49.2586 8.81223 47.7248C11.1915 46.8311 13.8122 46.5231 16.3606 46.1789C18.5043 45.9011 19.9656 46.8552 20.2374 49.1862C20.3279 50.0014 20.6057 50.8046 20.654 51.6198C20.9862 57.0304 20.6963 57.3444 15.2494 57.3806C11.1311 57.4108 7.00666 57.3806 2.74941 57.3806H2.75545V57.3987Z" fill="#FEFEFE"/>
<path d="M220.401 57.3927C218.734 57.3927 217.037 57.1693 215.413 57.4411C212.08 58.0027 211.095 56.2997 211.21 53.4555C211.27 51.807 211.361 50.098 211.868 48.5461C212.17 47.6282 213.179 46.5594 214.09 46.2937C218.964 44.8685 226.56 48.4918 228.662 53.0389C230.208 56.3722 229.622 57.3444 226.023 57.3746C224.151 57.3927 222.279 57.3746 220.401 57.3806V57.3927Z" fill="#FEFEFE"/>
<path d="M200.437 46.1911C197.249 44.307 194.791 41.9579 193.444 38.2623C191.421 32.7248 189.175 27.2115 186.403 22.0122C184.235 17.9482 184.9 14.3009 186.421 9.51222C188.161 12.8395 189.839 15.4119 190.908 18.2139C194.199 26.8069 197.267 35.4966 200.383 44.156C200.588 44.7237 200.546 45.3818 200.618 46.0038L200.431 46.1911H200.437Z" fill="#FEFEFE"/>
<path d="M41.2817 37.3806C43.1779 32.2538 45.0801 27.133 46.9702 22.0062C49.6936 29.0714 46.2999 33.5762 41.2938 37.3927L41.2817 37.3806V37.3806Z" fill="#FEFEFE"/>
<path d="M190.238 36.9821C184.911 32.8456 182.134 29.0714 184.646 21.7345C186.814 27.1451 188.722 31.9036 190.63 36.662C190.497 36.7768 190.37 36.8794 190.238 36.9881V36.9821Z" fill="#FEFEFE"/>
<path d="M190.631 36.656C190.733 36.976 190.83 37.29 190.933 37.6101C190.709 37.3987 190.48 37.1874 190.244 36.9761C190.377 36.8674 190.504 36.7647 190.631 36.6499V36.656Z" fill="#FEFEFE"/>
<path d="M41.2999 37.3927C41.2094 37.5255 41.1127 37.6463 41.0161 37.7792C41.1007 37.6463 41.1973 37.5134 41.2818 37.3806L41.2939 37.3927H41.2999Z" fill="#FEFEFE"/>
<path d="M200.624 46.0038C200.691 46.1487 200.769 46.2997 200.836 46.4446C200.703 46.3601 200.564 46.2696 200.437 46.191L200.624 46.0038Z" fill="#FEFEFE"/>
<path d="M201.265 49.8444C201.077 49.9893 200.896 50.1283 200.709 50.2672C200.631 50.1283 200.552 49.9954 200.474 49.8625C200.733 49.8625 200.999 49.8504 201.259 49.8444H201.265Z" fill="#FEFEFE"/>
<path d="M175.044 119.79C171.3 119.79 167.544 119.905 163.806 119.736C162.442 119.675 160.986 119.144 159.791 118.444C159.193 118.093 158.8 116.837 158.897 116.07C158.957 115.575 160.087 114.869 160.745 114.857C169.048 114.754 177.345 114.76 185.648 114.742C186.059 114.742 186.59 114.676 186.874 114.887C188.112 115.829 189.271 116.874 190.461 117.876C189.169 118.48 187.907 119.531 186.584 119.615C182.75 119.851 178.891 119.694 175.038 119.694V119.796L175.044 119.79ZM161.669 116.783C161.687 117.012 161.711 117.248 161.729 117.483H186.469V116.783H161.669Z" fill="#747474"/>
<path d="M56.9647 119.676C52.9188 119.676 48.8609 119.802 44.821 119.597C43.6676 119.543 42.5565 118.534 41.4272 117.967C42.3693 117.006 43.1483 115.66 44.2956 115.177C45.769 114.555 47.5323 114.422 49.1688 114.434C56.2159 114.482 63.2691 114.615 70.3162 114.857C71.2522 114.887 72.158 115.744 73.0759 116.215C72.4418 117.194 72.0131 118.456 71.1314 119.078C70.286 119.669 68.9756 119.748 67.8645 119.772C64.2292 119.851 60.6 119.802 56.9647 119.802V119.676V119.676ZM44.4345 117.502H70.7329C70.7329 117.23 70.7208 116.964 70.7148 116.698C61.9466 116.04 53.1845 115.762 44.4406 117.502H44.4345Z" fill="#747474"/>
<path d="M115.992 56.7949C114.453 54.9229 112.852 53.1958 111.572 51.2635C111.276 50.7985 111.995 48.9205 112.369 48.8843C114.688 48.6548 117.061 48.6367 119.386 48.8722C119.761 48.9084 120.467 50.8529 120.147 51.4628C119.229 53.2563 117.883 54.8263 116.669 56.4628C116.512 56.6742 116.137 56.7224 115.992 56.7949V56.7949Z" fill="#747474"/>
<path d="M37.1275 55.7502C36.7591 57.0425 36.3424 58.3287 36.0405 59.6391C35.2253 63.1777 36.3847 64.7539 40.0743 64.784C42.6589 64.8022 45.2555 64.5908 47.8219 64.2768C50.4789 63.9507 51.5176 64.9532 51.1009 67.4834H32.375C31.4028 62.5558 33.3714 57.5377 36.8255 55.3879C36.9282 55.5027 37.0248 55.6295 37.1275 55.7563V55.7502Z" fill="#FEFEFE"/>
<path d="M194.972 55.3758C198.444 57.4894 200.087 61.3481 199.742 67.2962C193.486 67.5921 187.164 67.8879 180.835 68.1838C180.262 64.7478 181.566 63.9387 184.241 64.2829C186.699 64.5969 189.199 64.7841 191.681 64.7901C195.751 64.8022 196.838 63.2804 195.805 59.2707C195.491 58.0691 195.069 56.8976 194.694 55.708C194.785 55.5933 194.881 55.4785 194.978 55.3698H194.972V55.3758Z" fill="#FEFEFE"/>
<path d="M161.766 61.8432C162.895 57.5497 171.065 55.2611 179.483 56.3601C180.552 61.2756 180.099 61.8613 175.383 61.8493C170.884 61.8311 166.391 61.8493 161.766 61.8493V61.8432Z" fill="#FEFEFE"/>
<path d="M70.4913 61.8371C64.821 61.8371 59.513 62.115 54.2594 61.7345C50.769 61.4869 52.3874 58.4253 52.0009 56.4688C59.978 55.1282 68.5288 57.4108 70.4913 61.8371Z" fill="#FEFEFE"/>
<path d="M181.379 62.3324C181.608 60.1283 181.796 58.3106 182.025 56.179C184.984 56.179 187.852 56.022 190.697 56.2273C193.046 56.3964 194.887 59.2104 194.157 61.4628C193.939 62.1331 192.683 62.8939 191.916 62.8819C188.438 62.8456 184.96 62.5438 181.385 62.3324H181.379Z" fill="#FEFEFE"/>
<path d="M50.6059 62.266C47.2605 62.5136 44.2895 62.9302 41.3245 62.8819C40.0745 62.8638 37.8281 61.958 37.7858 61.336C37.6409 59.2225 38.0274 56.6862 40.8233 56.3963C43.6735 56.1005 46.5781 56.336 49.7605 56.336C50.0081 58.1053 50.2798 60.0015 50.6059 62.272V62.266Z" fill="#FEFEFE"/>
<path d="M158.046 63.6065C158.209 62.8698 158.42 61.9097 158.457 61.7467C160.407 62.4049 162.176 63.4495 164 63.5401C168.946 63.7817 173.909 63.6186 179.223 63.6186C179.091 64.9834 179.006 65.9435 178.952 66.4206C171.965 65.4785 165.268 64.5788 158.046 63.6065V63.6065Z" fill="#FEFEFE"/>
<path d="M73.0754 60.4483C73.4015 61.8372 73.6189 62.7973 73.8181 63.6427C66.8737 64.5425 60.1949 65.4121 53.1599 66.3239C53.1055 66.1186 52.8519 65.1887 52.4292 63.6247C56.3906 63.6247 59.9775 63.8783 63.5162 63.5462C66.6805 63.2503 70.7022 65.4665 73.0754 60.4483V60.4483Z" fill="#FEFEFE"/>
<path d="M201.693 61.0522C199.773 58.3409 197.648 55.3397 195.703 52.5921C200.788 51.336 201.905 52.7732 201.693 61.0522Z" fill="#FEFEFE"/>
<path d="M30.1949 61.2877C29.3796 53.6851 30.3639 52.2236 36.2577 52.4108C34.2226 55.3879 32.0004 58.6488 30.1949 61.2877Z" fill="#FEFEFE"/>
<path d="M167.985 54.1198C172.061 53.4797 176.138 52.8275 180.757 52.0968C179.483 54.2285 174.58 54.9894 167.985 54.1198Z" fill="#FEFEFE"/>
<path d="M51.6201 52.1935C55.5211 52.8336 59.4221 53.4737 63.3291 54.1138C63.2869 54.4097 63.2385 54.7056 63.1963 55.0075C59.2591 54.6391 55.3098 54.2707 51.3726 53.9024C51.4511 53.3347 51.5356 52.7611 51.6201 52.1874V52.1935Z" fill="#FEFEFE"/>
<path d="M191.427 54.0654H182.478C183.468 51.8613 187.23 51.9157 191.427 54.0654Z" fill="#FEFEFE"/>
<path d="M40.9678 53.842C43.6187 52.1814 47.4593 51.8794 49.911 53.842H40.9678Z" fill="#FEFEFE"/>
<path d="M193.595 54.9048C193.311 54.8444 193.021 54.778 192.731 54.7237C192.756 54.6391 192.786 54.5485 192.81 54.4579C193.1 54.5727 193.384 54.6874 193.673 54.8082L193.589 54.9108L193.595 54.9048Z" fill="#FEFEFE"/>
<path d="M38.1479 54.8444C38.4076 54.6572 38.6673 54.47 38.9269 54.2828C38.9873 54.4157 39.0598 54.5546 39.1202 54.6814C38.8122 54.7478 38.5042 54.8263 38.1963 54.8927L38.154 54.8384H38.1479V54.8444Z" fill="#FEFEFE"/>
<path d="M38.1899 54.8927C37.8337 55.1765 37.4774 55.4604 37.1211 55.7502C37.0245 55.6234 36.9279 55.5027 36.8252 55.3879C37.26 55.2068 37.7008 55.0256 38.1356 54.8444L38.1779 54.8988H38.1839L38.1899 54.8927Z" fill="#FEFEFE"/>
<path d="M193.68 54.8082C194.109 54.9954 194.543 55.1886 194.972 55.3758C194.882 55.4906 194.785 55.6053 194.688 55.714C194.32 55.4422 193.958 55.1765 193.589 54.9108L193.674 54.8082H193.68Z" fill="#FEFEFE"/>
<path d="M161.669 116.789H186.476V117.49H161.735C161.717 117.26 161.687 117.031 161.669 116.789Z" fill="#FEFEFE"/>
<path d="M44.4401 117.502C53.1962 115.75 61.9522 116.034 70.7143 116.699C70.7204 116.97 70.7264 117.236 70.7325 117.502H44.4341H44.4401Z" fill="#FEFEFE"/>
</g>
</svg>
